<?xml version="1.0" encoding="UTF-8"?>
<svg xmlns="http://www.w3.org/2000/svg" xmlns:xlink="http://www.w3.org/1999/xlink" version="1.2" >
<font id="Neogrotesk Pro Bold">
<font-face  font-family="Neogrotesk Pro" units-per-em="1000" ascent="750" descent="-250" font-style="normal" font-weight="700" font-stretch="normal" cap-height="690" x-height="500" underline-position="-75" underline-thickness="50" />
<missing-glyph  horiz-adv-x="587" d="M72 690 L72 0 L515 0 L515 690 L72 690 Z M341 582 L190 203 L190 582 L341 582 Z M248 108 L397 481 L397 108 L248 108 Z " />
<glyph glyph-name="NULL" d="" />
<glyph glyph-name="CR" unicode="&#xd;" horiz-adv-x="250" d="" />
<glyph glyph-name="space" unicode="&#x20;" horiz-adv-x="225" d="" />
<glyph glyph-name="exclam" unicode="&#x21;" horiz-adv-x="280" d="M203 240 L218 690 L62 690 L77 240 L203 240 Z M55 71 C55 19 92 -10 140 -10 C188 -10 225 19 225 71 C225 123 188 152 140 152 C92 152 55 123 55 71 L55 71 Z " />
<glyph glyph-name="quotedbl" unicode="&#x22;" horiz-adv-x="438" d="M45 593 L45 690 L180 690 L180 593 L156 397 L69 397 L45 593 Z M258 593 L258 690 L393 690 L393 593 L369 397 L282 397 L258 593 Z " />
<glyph glyph-name="numbersign" unicode="&#x23;" horiz-adv-x="787" d="M729 420 L762 540 L656 540 L700 700 L559 700 L515 540 L382 540 L426 700 L275 700 L231 540 L125 540 L93 420 L198 420 L165 296 L59 296 L26 176 L132 176 L81 -10 L232 -10 L283 176 L416 176 L365 -10 L506 -10 L557 176 L663 176 L696 296 L590 296 L623 420 L729 420 Z M449 296 L316 296 L349 420 L482 420 L449 296 Z " />
<glyph glyph-name="dollar" unicode="&#x24;" horiz-adv-x="606" d="M576 197 C576 297 523 362 398 393 L251 429 C194 443 176 472 176 506 C176 557 212 589 289 590 C378 591 427 549 427 476 L562 476 C562 596 495 678 359 696 L359 800 L255 800 L255 698 C109 684 44 599 44 501 C44 395 99 330 230 300 L360 270 C417 257 443 229 443 187 C443 131 399 101 312 100 C215 99 165 146 165 216 L27 216 C27 89 101 7 255 -8 L255 -112 L359 -112 L359 -7 C508 8 576 90 576 197 L576 197 Z " />
<glyph glyph-name="percent" unicode="&#x25;" horiz-adv-x="986" d="M217 -10 L348 -10 L768 700 L637 700 L217 -10 Z M401 485 C401 620 323 696 215 696 C109 696 27 619 27 483 C27 344 105 270 214 270 C319 270 401 349 401 485 L401 485 Z M273 482 C273 411 254 371 214 371 C175 371 155 409 155 484 C155 556 175 595 214 595 C254 595 273 555 273 482 L273 482 Z M959 209 C959 344 881 420 773 420 C667 420 585 343 585 207 C585 68 663 -6 772 -6 C877 -6 959 73 959 209 L959 209 Z M831 206 C831 135 812 95 772 95 C733 95 713 133 713 208 C713 280 733 319 772 319 C812 319 831 279 831 206 L831 206 Z " />
<glyph glyph-name="ampersand" unicode="&#x26;" horiz-adv-x="669" d="M579 111 C629 168 659 238 673 312 L563 312 C557 269 539 221 508 181 L349 336 C428 380 498 436 498 530 C498 631 418 700 302 700 C189 700 97 635 97 518 C97 454 124 409 173 356 C97 313 30 257 30 162 C30 46 129 -16 279 -16 C366 -16 438 5 496 40 L538 0 L680 0 L680 12 L579 111 Z M210 521 C210 570 253 596 300 596 C347 596 388 570 388 524 C388 474 337 441 274 408 C239 444 210 481 210 521 L210 521 Z M287 81 C195 81 143 114 143 166 C143 215 189 249 247 281 L423 111 C386 92 341 81 287 81 L287 81 Z " />
<glyph glyph-name="quotesingle" unicode="&#x27;" horiz-adv-x="225" d="M45 593 L45 690 L180 690 L180 593 L156 397 L69 397 L45 593 Z " />
<glyph glyph-name="parenleft" unicode="&#x28;" horiz-adv-x="394" d="M375 -180 L375 -61 C255 -61 167 51 167 285 C167 521 255 631 375 631 L375 750 C182 750 35 580 35 284 C35 -19 170 -180 375 -180 L375 -180 Z " />
<glyph glyph-name="parenright" unicode="&#x29;" horiz-adv-x="393" d="M19 -180 C224 -180 359 -19 359 284 C359 580 212 750 19 750 L19 631 C139 631 227 521 227 285 C227 51 139 -61 19 -61 L19 -180 Z " />
<glyph glyph-name="asterisk" unicode="&#x2a;" horiz-adv-x="473" d="M445 500 L400 621 L280 554 L301 690 L172 690 L193 554 L73 621 L28 500 L163 472 L72 369 L180 299 L237 425 L293 299 L401 369 L310 472 L445 500 Z " />
<glyph glyph-name="plus" unicode="&#x2b;" horiz-adv-x="540" d="M511 309 L335 309 L335 492 L205 492 L205 309 L29 309 L29 193 L205 193 L205 10 L335 10 L335 193 L511 193 L511 309 Z " />
<glyph glyph-name="comma" unicode="&#x2c;" horiz-adv-x="244" d="M206 71 C206 123 167 152 122 152 C77 152 38 123 38 71 C38 41 54 17 72 6 L38 -135 L38 -150 L117 -150 L189 7 C197 24 206 51 206 71 L206 71 Z " />
<glyph glyph-name="hyphen" unicode="&#x2d;" horiz-adv-x="480" d="M53 338 L53 222 L427 222 L427 338 L53 338 Z " />
<glyph glyph-name="period" unicode="&#x2e;" horiz-adv-x="240" d="M36 71 C36 19 75 -10 120 -10 C165 -10 204 19 204 71 C204 123 165 152 120 152 C75 152 36 123 36 71 L36 71 Z " />
<glyph glyph-name="slash" unicode="&#x2f;" horiz-adv-x="491" d="M18 -10 L153 -10 L473 700 L338 700 L18 -10 Z " />
<glyph glyph-name="zero" unicode="0" horiz-adv-x="696" d="M654 348 C654 573 532 700 351 700 C171 700 42 571 42 345 C42 114 164 -10 345 -10 C525 -10 654 122 654 348 L654 348 Z M506 344 C506 189 447 112 348 112 C249 112 190 190 190 346 C190 501 249 578 348 578 C447 578 506 500 506 344 L506 344 Z " />
<glyph glyph-name="one" unicode="1" horiz-adv-x="403" d="M226 690 C157 638 89 594 20 565 L20 440 C78 460 135 488 187 524 L187 0 L329 0 L329 690 L226 690 Z " />
<glyph glyph-name="two" unicode="2" horiz-adv-x="632" d="M324 335 L38 121 L38 0 L598 0 L598 120 L411 120 C352 120 281 116 231 113 C260 132 294 154 316 170 L426 252 C519 322 576 396 574 494 C572 608 479 700 324 700 C155 700 45 600 45 449 L190 449 C190 528 236 578 316 578 C390 578 426 539 426 481 C426 425 392 386 324 335 L324 335 Z " />
<glyph glyph-name="three" unicode="3" horiz-adv-x="639" d="M467 355 C532 385 576 439 576 510 C576 609 483 700 323 700 C154 700 49 613 49 467 L192 467 C192 541 233 583 320 583 C398 583 434 540 434 485 C434 434 393 397 319 397 L219 397 L219 293 L321 293 C399 293 452 266 452 202 C452 144 398 108 311 108 C226 108 176 150 176 225 L31 225 C31 79 139 -10 312 -10 C485 -10 600 72 600 196 C600 274 554 334 467 355 L467 355 Z " />
<glyph glyph-name="four" unicode="4" horiz-adv-x="662" d="M630 252 L533 252 L533 690 L363 690 L20 252 L20 133 L391 133 L391 0 L533 0 L533 133 L630 133 L630 252 Z M266 252 C232 252 194 251 164 250 C184 273 208 302 227 327 L332 462 C348 483 373 519 394 550 C393 512 391 468 391 443 L391 252 L266 252 Z " />
<glyph glyph-name="five" unicode="5" horiz-adv-x="613" d="M346 458 C283 458 227 443 185 402 L199 570 L539 570 L539 690 L77 690 L50 282 L179 282 C201 315 243 347 310 347 C384 347 432 302 432 228 C432 151 381 108 304 108 C232 108 195 138 190 192 L45 192 C45 63 145 -10 309 -10 C468 -10 580 76 580 228 C580 373 470 458 346 458 L346 458 Z " />
<glyph glyph-name="six" unicode="6" horiz-adv-x="651" d="M376 435 C294 435 226 404 191 357 C193 474 225 578 334 578 C404 578 448 543 452 475 L596 475 C590 607 494 700 339 700 C164 700 43 570 43 341 C43 116 151 -10 344 -10 C500 -10 610 86 610 219 C610 358 507 435 376 435 L376 435 Z M332 110 C260 110 211 155 201 219 C217 282 280 319 338 319 C422 319 462 276 462 215 C462 157 412 110 332 110 L332 110 Z " />
<glyph glyph-name="seven" unicode="7" horiz-adv-x="558" d="M15 690 L15 570 L200 570 C261 570 324 572 364 574 C232 405 151 211 143 0 L301 0 C301 218 390 423 541 589 L541 690 L15 690 Z " />
<glyph glyph-name="eight" unicode="8" horiz-adv-x="650" d="M325 700 C490 700 587 609 587 510 C587 440 540 387 473 359 C563 335 611 270 611 196 C611 68 496 -10 325 -10 C154 -10 39 68 39 196 C39 270 87 335 177 359 C110 387 63 440 63 510 C63 609 160 700 325 700 L325 700 Z M324 404 C402 404 445 442 445 493 C445 549 407 591 325 591 C243 591 205 549 205 493 C205 442 246 404 324 404 L324 404 Z M325 100 C410 100 463 135 463 198 C463 265 408 297 326 297 C244 297 187 265 187 198 C187 135 240 100 325 100 L325 100 Z " />
<glyph glyph-name="nine" unicode="9" horiz-adv-x="651" d="M307 700 C151 700 41 604 41 471 C41 332 144 255 275 255 C357 255 425 286 460 333 C458 216 426 112 317 112 C247 112 203 147 199 215 L55 215 C61 83 157 -10 312 -10 C487 -10 608 120 608 349 C608 574 500 700 307 700 L307 700 Z M313 371 C229 371 189 414 189 475 C189 533 239 580 319 580 C391 580 440 535 450 471 C434 408 371 371 313 371 L313 371 Z " />
<glyph glyph-name="colon" unicode="&#x3a;" horiz-adv-x="274" d="M53 429 C53 377 92 348 137 348 C182 348 221 377 221 429 C221 481 182 510 137 510 C92 510 53 481 53 429 L53 429 Z M53 71 C53 19 92 -10 137 -10 C182 -10 221 19 221 71 C221 123 182 152 137 152 C92 152 53 123 53 71 L53 71 Z " />
<glyph glyph-name="semicolon" unicode="&#x3b;" horiz-adv-x="274" d="M53 429 C53 377 92 348 137 348 C182 348 221 377 221 429 C221 481 182 510 137 510 C92 510 53 481 53 429 L53 429 Z M221 71 C221 123 182 152 137 152 C92 152 53 123 53 71 C53 41 69 17 87 6 L53 -135 L53 -150 L132 -150 L204 7 C212 24 221 51 221 71 L221 71 Z " />
<glyph glyph-name="less" unicode="&#x3c;" horiz-adv-x="542" d="M492 510 L24 288 L24 212 L492 -10 L492 116 L192 250 L492 384 L492 510 Z " />
<glyph glyph-name="equal" unicode="&#x3d;" horiz-adv-x="576" d="M57 447 L57 335 L519 335 L519 447 L57 447 Z M57 218 L57 106 L519 106 L519 218 L57 218 Z " />
<glyph glyph-name="greater" unicode="&#x3e;" horiz-adv-x="542" d="M50 510 L50 384 L350 250 L50 116 L50 -10 L518 212 L518 288 L50 510 Z " />
<glyph glyph-name="question" unicode="&#x3f;" horiz-adv-x="575" d="M408 505 C408 455 384 427 325 396 C236 349 220 302 220 203 L358 202 C358 261 378 283 427 312 C497 353 546 406 546 501 C546 603 467 700 295 700 C116 700 24 602 24 469 L159 469 C159 550 212 597 294 594 C371 591 408 553 408 505 L408 505 Z M197 71 C197 19 236 -10 288 -10 C340 -10 379 19 379 71 C379 123 340 152 288 152 C236 152 197 123 197 71 L197 71 Z " />
<glyph glyph-name="at" unicode="&#x40;" horiz-adv-x="964" d="M541 700 C252 700 31 498 31 212 C31 -17 197 -152 413 -152 C482 -152 554 -144 614 -129 L614 -19 C556 -34 494 -44 430 -44 C271 -44 149 46 149 224 C149 439 306 592 529 592 C681 592 811 512 811 332 C811 227 779 124 704 124 C674 124 661 144 661 170 C661 179 663 189 664 197 L714 488 L610 488 L603 449 C578 480 535 497 482 497 C355 497 257 379 257 234 C257 127 325 51 418 51 C472 51 520 70 555 106 C571 64 619 29 685 29 C836 29 929 164 929 348 C929 574 748 700 541 700 L541 700 Z M445 144 C396 144 360 183 360 246 C360 330 406 404 492 404 C534 404 569 384 584 352 L558 202 C531 168 488 144 445 144 L445 144 Z " />
<glyph glyph-name="A" unicode="A" horiz-adv-x="713" d="M563 0 L717 0 L446 690 L267 690 L-4 0 L144 0 L205 167 L502 167 L563 0 Z M245 276 L309 451 C325 496 342 547 354 584 C366 547 383 496 399 451 L463 276 L245 276 Z " />
<glyph glyph-name="B" unicode="B" horiz-adv-x="693" d="M532 374 C591 402 622 453 622 520 C622 628 542 690 380 690 L72 690 L72 0 L409 0 C568 0 660 76 660 200 C660 291 619 350 532 374 L532 374 Z M359 575 C433 575 476 555 476 498 C476 439 443 410 366 410 L214 410 L214 575 L359 575 Z M398 115 L214 115 L214 303 L396 303 C472 303 512 273 512 212 C512 148 471 115 398 115 L398 115 Z " />
<glyph glyph-name="C" unicode="C" horiz-adv-x="726" d="M698 252 L552 252 C540 161 470 112 377 112 C275 112 185 190 185 346 C185 501 275 578 377 578 C465 578 541 532 552 438 L697 438 C685 607 546 700 380 700 C198 700 37 571 37 345 C37 114 191 -10 375 -10 C539 -10 681 85 698 252 L698 252 Z " />
<glyph glyph-name="D" unicode="D" horiz-adv-x="726" d="M362 690 L72 690 L72 0 L356 0 C552 0 688 128 688 348 C688 567 558 690 362 690 L362 690 Z M355 120 L214 120 L214 570 L355 570 C470 570 540 495 540 344 C540 194 470 120 355 120 L355 120 Z " />
<glyph glyph-name="E" unicode="E" horiz-adv-x="617" d="M214 119 L214 295 L536 295 L536 411 L214 411 L214 571 L570 571 L570 690 L72 690 L72 0 L576 0 L576 119 L214 119 Z " />
<glyph glyph-name="F" unicode="F" horiz-adv-x="590" d="M563 571 L563 690 L72 690 L72 0 L214 0 L214 274 L534 274 L534 389 L214 389 L214 571 L563 571 Z " />
<glyph glyph-name="G" unicode="G" horiz-adv-x="737" d="M688 359 L409 359 L409 255 L545 255 L545 145 C495 119 440 110 386 110 C271 110 185 186 185 344 C185 501 274 580 375 580 C467 580 533 536 541 444 L687 444 C677 609 546 700 378 700 C197 700 37 569 37 343 C37 112 177 -10 396 -10 C495 -10 608 24 688 83 L688 359 Z " />
<glyph glyph-name="H" unicode="H" horiz-adv-x="757" d="M543 690 L543 414 L214 414 L214 690 L72 690 L72 0 L214 0 L214 294 L543 294 L543 0 L685 0 L685 690 L543 690 Z " />
<glyph glyph-name="I" unicode="I" horiz-adv-x="286" d="M72 0 L214 0 L214 690 L72 690 L72 0 Z " />
<glyph glyph-name="J" unicode="J" horiz-adv-x="612" d="M405 690 L405 278 C405 159 362 112 283 112 C214 112 158 150 158 264 L17 264 C17 77 132 -10 283 -10 C425 -10 547 74 547 267 L547 690 L405 690 Z " />
<glyph glyph-name="K" unicode="K" horiz-adv-x="695" d="M708 0 L366 360 L698 690 L524 690 L214 374 L214 690 L72 690 L72 0 L214 0 L214 332 L523 0 L708 0 Z " />
<glyph glyph-name="L" unicode="L" horiz-adv-x="576" d="M214 120 L214 690 L72 690 L72 0 L564 0 L564 120 L214 120 Z " />
<glyph glyph-name="M" unicode="M" horiz-adv-x="895" d="M254 381 L390 0 L507 0 L644 381 C660 427 682 495 698 544 C695 493 692 422 692 375 L690 0 L823 0 L823 690 L640 690 L488 254 C478 224 466 180 456 144 C446 180 434 224 423 254 L268 690 L72 690 L72 0 L205 0 L203 374 C203 430 200 507 197 558 C212 509 235 435 254 381 L254 381 Z " />
<glyph glyph-name="N" unicode="N" horiz-adv-x="760" d="M554 690 L558 287 C558 252 561 199 565 153 C542 194 516 241 496 275 L246 690 L72 690 L72 0 L206 0 L202 401 C202 443 200 493 197 536 C218 497 242 452 262 420 L515 0 L688 0 L688 690 L554 690 Z " />
<glyph glyph-name="O" unicode="O" horiz-adv-x="781" d="M745 348 C745 573 590 700 393 700 C198 700 36 571 36 345 C36 114 191 -10 388 -10 C584 -10 745 122 745 348 L745 348 Z M597 344 C597 189 504 112 391 112 C278 112 184 190 184 346 C184 501 278 578 391 578 C504 578 597 500 597 344 L597 344 Z " />
<glyph glyph-name="P" unicode="P" horiz-adv-x="699" d="M401 690 L72 690 L72 0 L214 0 L214 246 L395 246 C573 246 677 330 677 472 C677 614 580 690 401 690 L401 690 Z M391 366 L214 366 L214 570 L391 570 C479 570 530 544 530 468 C530 392 476 366 391 366 L391 366 Z " />
<glyph glyph-name="Q" unicode="Q" horiz-adv-x="780" d="M591 76 C707 147 745 254 745 348 C745 573 585 700 393 700 C203 700 36 571 36 345 C36 114 196 -10 388 -10 L762 -33 L762 93 C713 93 650 85 591 76 L591 76 Z M184 346 C184 501 280 578 391 578 C502 578 597 499 597 344 C597 193 522 109 391 109 C280 109 184 187 184 346 L184 346 Z " />
<glyph glyph-name="R" unicode="R" horiz-adv-x="698" d="M632 121 L613 200 C599 257 571 298 525 320 C598 352 646 414 646 489 C646 616 555 690 381 690 L72 690 L72 0 L214 0 L214 264 L342 264 C432 264 457 230 469 184 L496 81 C502 58 513 27 530 0 L672 0 L672 12 C656 42 639 90 632 121 L632 121 Z M214 378 L214 572 L369 572 C450 572 499 550 499 479 C499 406 447 378 359 378 L214 378 Z " />
<glyph glyph-name="S" unicode="S" horiz-adv-x="672" d="M419 405 L306 422 C238 432 195 452 195 501 C195 546 231 583 330 584 C421 585 478 545 478 476 L619 476 C619 612 523 700 328 700 C135 700 49 609 49 495 C49 387 120 312 272 291 L383 275 C441 267 490 252 490 192 C490 142 442 107 333 106 C228 105 172 150 172 216 L28 216 C28 76 128 -10 337 -10 C542 -10 637 78 637 202 C637 333 554 385 419 405 L419 405 Z " />
<glyph glyph-name="T" unicode="T" horiz-adv-x="635" d="M625 690 L10 690 L10 570 L246 570 L246 0 L389 0 L389 570 L625 570 L625 690 Z " />
<glyph glyph-name="U" unicode="U" horiz-adv-x="734" d="M670 295 L670 690 L528 690 L528 305 C528 160 452 112 367 112 C282 112 206 161 206 307 L206 690 L64 690 L64 292 C64 76 201 -10 364 -10 C527 -10 670 84 670 295 L670 295 Z " />
<glyph glyph-name="V" unicode="V" horiz-adv-x="697" d="M256 0 L441 0 L699 690 L553 690 L416 293 C389 214 367 145 353 100 C339 145 317 214 289 293 L151 690 L-2 690 L256 0 Z " />
<glyph glyph-name="W" unicode="W" horiz-adv-x="1007" d="M693 279 L591 690 L418 690 L320 280 C305 220 294 160 286 117 C278 160 266 220 251 280 L150 690 L3 690 L198 0 L374 0 L473 405 C489 471 499 527 504 559 C509 527 518 471 534 407 L636 0 L814 0 L1000 690 L865 690 L763 280 C747 218 736 156 729 112 C721 156 708 218 693 279 L693 279 Z " />
<glyph glyph-name="X" unicode="X" horiz-adv-x="685" d="M447 357 L679 690 L511 690 L411 537 C384 496 359 452 346 428 C333 451 309 496 282 537 L184 690 L6 690 L238 350 L-6 0 L161 0 L270 164 C300 209 326 254 339 278 C353 254 379 210 408 165 L514 0 L691 0 L447 357 Z " />
<glyph glyph-name="Y" unicode="Y" horiz-adv-x="666" d="M671 690 L507 690 L391 500 C368 462 348 423 337 399 C327 423 308 462 285 500 L169 690 L-5 690 L262 268 L262 0 L405 0 L405 271 L671 690 Z " />
<glyph glyph-name="Z" unicode="Z" horiz-adv-x="647" d="M291 199 L610 583 L610 690 L42 690 L42 571 L302 571 C343 571 391 572 424 573 C400 547 366 509 343 481 L32 107 L32 0 L615 0 L615 119 L336 119 C303 119 255 117 218 115 C241 140 270 173 291 199 L291 199 Z " />
<glyph glyph-name="bracketleft" unicode="&#x5b;" horiz-adv-x="399" d="M200 -61 L200 631 L375 631 L375 750 L70 750 L70 -180 L381 -180 L381 -61 L200 -61 Z " />
<glyph glyph-name="backslash" unicode="&#x5c;" horiz-adv-x="491" d="M473 -10 L153 700 L18 700 L338 -10 L473 -10 Z " />
<glyph glyph-name="bracketright" unicode="&#x5d;" horiz-adv-x="399" d="M329 750 L24 750 L24 631 L199 631 L199 -61 L18 -61 L18 -180 L329 -180 L329 750 Z " />
<glyph glyph-name="asciicircum" unicode="&#x5e;" horiz-adv-x="529" d="M325 710 L204 710 L29 399 L29 384 L151 384 L265 584 L378 384 L500 384 L500 399 L325 710 Z " />
<glyph glyph-name="underscore" unicode="&#x5f;" horiz-adv-x="539" d="M0 -60 L0 -160 L539 -160 L539 -60 L0 -60 Z " />
<glyph glyph-name="grave" unicode="&#x60;" horiz-adv-x="600" d="M50 730 L50 715 L198 575 L315 575 L315 590 L196 730 L50 730 Z " />
<glyph glyph-name="a" unicode="a" horiz-adv-x="548" d="M490 110 L490 318 C490 432 418 510 273 510 C133 510 53 433 53 325 L188 325 C188 374 215 402 271 402 C328 402 350 373 350 321 L350 296 L191 272 C75 255 31 198 31 122 C31 48 88 -10 181 -10 C255 -10 319 21 355 67 C356 44 360 20 367 0 L504 0 L504 12 C495 40 490 76 490 110 L490 110 Z M219 85 C188 85 168 104 168 136 C168 167 188 188 231 195 L350 215 L350 180 C319 109 258 85 219 85 L219 85 Z " />
<glyph glyph-name="b" unicode="b" horiz-adv-x="615" d="M358 510 C291 510 236 484 202 438 L202 750 L62 750 L62 0 L198 0 L198 67 C232 18 287 -10 355 -10 C471 -10 581 67 581 251 C581 435 472 510 358 510 L358 510 Z M321 110 C268 110 216 145 202 203 L202 297 C216 355 268 390 321 390 C373 390 436 355 436 250 C436 145 373 110 321 110 L321 110 Z " />
<glyph glyph-name="c" unicode="c" horiz-adv-x="563" d="M292 -10 C433 -10 531 70 534 192 L397 192 C392 132 350 99 288 99 C223 99 176 148 176 253 C176 362 229 401 291 401 C351 401 389 368 395 308 L534 308 C530 428 430 510 292 510 C150 510 32 415 32 250 C32 85 141 -10 292 -10 L292 -10 Z " />
<glyph glyph-name="d" unicode="d" horiz-adv-x="615" d="M553 114 L553 750 L413 750 L413 446 C379 488 324 510 261 510 C145 510 34 435 34 251 C34 67 143 -10 257 -10 C327 -10 384 19 418 70 C419 47 422 23 430 0 L567 0 L567 12 C557 41 553 83 553 114 L553 114 Z M294 110 C242 110 179 145 179 250 C179 355 242 390 294 390 C347 390 399 355 413 297 L413 203 C399 145 347 110 294 110 L294 110 Z " />
<glyph glyph-name="e" unicode="e" horiz-adv-x="571" d="M537 249 C537 420 439 510 293 510 C154 510 32 417 32 250 C32 80 139 -10 291 -10 C439 -10 524 65 529 163 L391 163 C389 122 351 95 292 95 C228 95 177 139 177 208 L537 208 L537 249 Z M291 402 C347 402 385 372 391 301 L182 301 C191 369 233 402 291 402 L291 402 Z " />
<glyph glyph-name="f" unicode="f" horiz-adv-x="380" d="M310 640 C334 640 357 638 378 634 L378 750 C347 757 317 760 283 760 C172 760 96 694 96 558 L96 500 L29 500 L29 384 L96 384 L96 0 L236 0 L236 384 L368 384 L368 500 L236 500 L236 551 C236 611 265 640 310 640 L310 640 Z " />
<glyph glyph-name="g" unicode="g" horiz-adv-x="558" d="M374 68 L257 79 C232 81 221 90 221 106 C221 117 225 126 235 135 C242 134 250 134 257 134 C381 134 489 206 489 315 C489 346 481 376 465 399 C491 394 517 390 537 388 L537 500 L339 500 C315 507 288 510 261 510 C137 510 29 443 29 322 C29 241 74 185 140 157 C122 137 109 111 109 79 C109 11 156 -20 224 -26 L332 -35 C377 -39 400 -49 400 -78 C400 -106 358 -130 266 -130 C179 -130 146 -97 146 -49 L5 -49 C5 -157 92 -226 263 -226 C445 -226 542 -166 542 -70 C542 17 484 58 374 68 L374 68 Z M259 408 C310 408 351 379 351 321 C351 265 310 236 259 236 C208 236 167 265 167 323 C167 379 208 408 259 408 L259 408 Z " />
<glyph glyph-name="h" unicode="h" horiz-adv-x="592" d="M352 510 C287 510 235 485 202 440 L202 750 L62 750 L62 0 L202 0 L202 297 C216 355 254 390 305 390 C359 390 395 362 395 295 L395 0 L535 0 L535 313 C535 430 474 510 352 510 L352 510 Z " />
<glyph glyph-name="i" unicode="i" horiz-adv-x="264" d="M41 658 C41 606 80 577 132 577 C184 577 223 606 223 658 C223 710 184 739 132 739 C80 739 41 710 41 658 L41 658 Z M62 0 L202 0 L202 500 L62 500 L62 0 Z " />
<glyph glyph-name="j" unicode="j" horiz-adv-x="272" d="M48 658 C48 606 87 577 139 577 C191 577 230 606 230 658 C230 710 191 739 139 739 C87 739 48 710 48 658 L48 658 Z M210 -57 L210 500 L70 500 L70 -42 C70 -86 48 -104 14 -104 C-5 -104 -30 -102 -46 -98 L-46 -214 C-20 -220 10 -224 38 -224 C143 -224 210 -176 210 -57 L210 -57 Z " />
<glyph glyph-name="k" unicode="k" horiz-adv-x="554" d="M562 0 L348 270 L554 500 L384 500 L202 291 L202 750 L62 750 L62 0 L202 0 L202 242 L391 0 L562 0 Z " />
<glyph glyph-name="l" unicode="l" horiz-adv-x="264" d="M62 0 L202 0 L202 750 L62 750 L62 0 Z " />
<glyph glyph-name="m" unicode="m" horiz-adv-x="883" d="M655 510 C584 510 523 480 490 425 C464 479 417 510 343 510 C280 510 229 483 198 436 L198 500 L62 500 L62 0 L202 0 L202 302 C216 356 249 390 295 390 C343 390 375 364 375 298 L375 0 L515 0 L515 302 C529 356 561 390 607 390 C654 390 686 364 686 298 L686 0 L826 0 L826 316 C826 432 769 510 655 510 L655 510 Z " />
<glyph glyph-name="n" unicode="n" horiz-adv-x="600" d="M359 510 C286 510 231 483 198 434 L198 500 L62 500 L62 0 L202 0 L202 297 C217 355 259 391 315 391 C369 391 403 362 403 295 L403 0 L543 0 L543 314 C543 431 484 510 359 510 L359 510 Z " />
<glyph glyph-name="o" unicode="o" horiz-adv-x="598" d="M566 252 C566 417 445 510 301 510 C158 510 32 415 32 250 C32 81 153 -10 297 -10 C440 -10 566 87 566 252 L566 252 Z M422 249 C422 156 365 110 299 110 C233 110 176 157 176 251 C176 344 233 390 299 390 C365 390 422 343 422 249 L422 249 Z " />
<glyph glyph-name="p" unicode="p" horiz-adv-x="615" d="M356 510 C287 510 232 482 198 432 L198 500 L62 500 L62 -214 L202 -214 L202 56 C236 13 289 -10 356 -10 C471 -10 581 65 581 249 C581 433 471 510 356 510 L356 510 Z M321 110 C268 110 218 144 202 191 L202 297 C216 355 268 390 321 390 C373 390 436 355 436 250 C436 145 373 110 321 110 L321 110 Z " />
<glyph glyph-name="q" unicode="q" horiz-adv-x="615" d="M417 500 L417 433 C383 482 328 510 259 510 C144 510 34 433 34 249 C34 65 138 -10 253 -10 C320 -10 377 16 413 64 L413 -214 L553 -214 L553 500 L417 500 Z M294 110 C242 110 179 145 179 250 C179 355 242 390 294 390 C347 390 399 355 413 297 L413 203 C399 145 347 110 294 110 L294 110 Z " />
<glyph glyph-name="r" unicode="r" horiz-adv-x="380" d="M331 510 C276 510 229 481 198 429 L198 500 L62 500 L62 0 L202 0 L202 273 C220 344 262 377 311 377 C328 377 347 376 365 373 L365 508 C355 510 341 510 331 510 L331 510 Z " />
<glyph glyph-name="s" unicode="s" horiz-adv-x="525" d="M331 300 L237 314 C193 321 177 333 177 357 C177 386 200 408 258 409 C315 410 346 380 346 334 L481 334 C481 435 413 510 260 510 C110 510 44 436 44 354 C44 269 96 215 201 201 L294 189 C335 184 355 168 355 141 C355 110 325 92 263 91 C196 90 166 124 166 167 L28 167 C28 63 97 -10 264 -10 C420 -10 493 64 493 152 C493 234 444 283 331 300 L331 300 Z " />
<glyph glyph-name="t" unicode="t" horiz-adv-x="392" d="M293 110 C255 110 230 131 230 182 L230 384 L366 384 L366 500 L230 500 L230 648 L90 648 L90 500 L23 500 L23 384 L90 384 L90 175 C90 38 166 -10 261 -10 C308 -10 341 -6 372 1 L372 117 C351 112 323 110 293 110 L293 110 Z " />
<glyph glyph-name="u" unicode="u" horiz-adv-x="595" d="M533 114 L533 500 L393 500 L393 199 C377 144 329 110 279 110 C227 110 197 136 197 197 L197 500 L57 500 L57 174 C57 59 119 -10 231 -10 C305 -10 363 20 397 71 C399 47 402 23 410 0 L547 0 L547 12 C537 41 533 83 533 114 L533 114 Z " />
<glyph glyph-name="v" unicode="v" horiz-adv-x="548" d="M3 500 L189 0 L359 0 L546 500 L400 500 L312 222 C301 188 287 136 277 98 C267 136 253 188 242 222 L155 500 L3 500 Z " />
<glyph glyph-name="w" unicode="w" horiz-adv-x="835" d="M576 226 L512 500 L327 500 L266 226 C257 184 247 132 242 104 C237 132 226 186 215 226 L145 500 L6 500 L155 0 L325 0 L397 312 C405 349 412 383 416 407 C421 383 428 349 437 312 L513 0 L678 0 L831 500 L696 500 L626 226 C616 184 605 132 600 104 C595 132 586 184 576 226 L576 226 Z " />
<glyph glyph-name="x" unicode="x" horiz-adv-x="547" d="M368 263 L534 500 L372 500 L324 422 C306 394 286 357 275 335 C262 360 243 397 228 422 L182 500 L11 500 L179 255 L1 0 L163 0 L223 98 C242 130 261 164 273 186 C285 163 303 128 321 98 L378 0 L549 0 L368 263 Z " />
<glyph glyph-name="y" unicode="y" horiz-adv-x="547" d="M401 500 L323 265 C311 229 292 162 278 114 C265 161 246 229 233 265 L152 500 L0 500 L209 -22 L186 -70 C168 -109 136 -120 101 -120 C87 -120 65 -119 46 -115 L46 -219 C67 -222 97 -224 117 -224 C210 -224 264 -189 297 -115 L349 0 L547 500 L401 500 Z " />
<glyph glyph-name="z" unicode="z" horiz-adv-x="510" d="M286 191 L470 397 L470 500 L43 500 L43 389 L172 389 C208 389 257 391 291 392 C268 369 236 335 212 308 L33 103 L33 0 L477 0 L477 111 L320 111 C284 111 236 109 206 108 C228 130 262 165 286 191 L286 191 Z " />
<glyph glyph-name="braceleft" unicode="&#x7b;" horiz-adv-x="426" d="M245 16 L245 190 C245 234 226 273 188 285 C226 298 245 337 245 381 L245 544 C245 596 261 621 315 621 L404 621 L404 750 L261 750 C162 750 115 684 115 598 L115 419 C115 365 83 349 42 349 L13 349 L13 222 L42 222 C83 222 115 206 115 152 L115 -28 C115 -114 162 -180 261 -180 L404 -180 L404 -61 L315 -61 C261 -61 245 -36 245 16 L245 16 Z " />
<glyph glyph-name="bar" unicode="&#x7c;" horiz-adv-x="270" d="M70 -250 L200 -250 L200 780 L70 780 L70 -250 Z " />
<glyph glyph-name="braceright" unicode="&#x7d;" horiz-adv-x="426" d="M181 16 C181 -36 165 -61 111 -61 L22 -61 L22 -180 L165 -180 C264 -180 311 -114 311 -28 L311 152 C311 206 343 222 384 222 L413 222 L413 349 L384 349 C343 349 311 365 311 419 L311 598 C311 684 264 750 165 750 L22 750 L22 621 L111 621 C165 621 181 596 181 544 L181 381 C181 337 200 298 238 285 C200 273 181 234 181 190 L181 16 Z " />
<glyph glyph-name="asciitilde" unicode="&#x7e;" horiz-adv-x="592" d="M50 199 L164 199 C164 241 179 261 211 261 C268 261 332 199 408 199 C483 199 546 246 546 381 L432 381 C432 340 414 320 384 320 C335 320 272 381 188 381 C113 381 50 334 50 199 L50 199 Z " />
<glyph glyph-name="exclamdown" unicode="&#xa1;" horiz-adv-x="280" d="M55 619 C55 567 92 538 140 538 C188 538 225 567 225 619 C225 671 188 700 140 700 C92 700 55 671 55 619 L55 619 Z M62 0 L218 0 L203 450 L77 450 L62 0 Z " />
<glyph glyph-name="cent" unicode="&#xa2;" horiz-adv-x="565" d="M291 190 C218 190 166 240 166 348 C166 460 225 500 294 500 C362 500 405 466 411 403 L537 403 C534 508 457 584 345 601 L345 723 L241 723 L241 600 C124 579 35 489 35 345 C35 199 117 108 241 89 L241 -33 L345 -33 L345 89 C456 107 534 181 537 287 L411 287 C406 224 359 190 291 190 L291 190 Z " />
<glyph glyph-name="sterling" unicode="&#xa3;" horiz-adv-x="626" d="M212 115 C212 115 244 146 244 209 L244 293 L470 293 L470 407 L244 407 L244 461 C244 547 282 581 351 581 C419 581 452 546 452 491 L592 491 C592 613 507 700 344 700 C192 700 102 610 102 465 L102 407 L46 407 L46 293 L102 293 L102 166 C102 139 94 120 66 120 L43 120 L43 0 L586 0 L586 120 L344 120 C268 120 212 115 212 115 L212 115 Z " />
<glyph glyph-name="currency" unicode="&#xa4;" horiz-adv-x="575" d="M500 333 C500 371 490 407 473 437 L534 498 L454 579 L392 517 C361 534 326 544 287 544 C248 544 213 535 182 518 L121 579 L41 498 L101 438 C83 408 73 372 73 333 C73 294 83 258 100 227 L41 168 L121 87 L181 147 C212 131 248 121 287 121 C326 121 362 131 393 148 L454 87 L534 168 L473 229 C490 259 500 295 500 333 L500 333 Z M287 226 C227 226 183 273 183 333 C183 392 227 439 287 439 C346 439 390 392 390 333 C390 273 346 226 287 226 L287 226 Z " />
<glyph glyph-name="yen" unicode="&#xa5;" horiz-adv-x="686" d="M660 690 L496 690 L402 526 C381 489 359 446 346 422 C334 446 312 489 291 526 L200 690 L26 690 L222 386 L86 386 L86 294 L272 294 L272 225 L86 225 L86 133 L272 133 L272 0 L415 0 L415 133 L601 133 L601 225 L415 225 L415 294 L601 294 L601 386 L465 386 L660 690 Z " />
<glyph glyph-name="brokenbar" unicode="&#xa6;" horiz-adv-x="270" d="M70 370 L200 370 L200 780 L70 780 L70 370 Z M70 -250 L200 -250 L200 160 L70 160 L70 -250 Z " />
<glyph glyph-name="section" unicode="&#xa7;" horiz-adv-x="707" d="M570 126 C620 157 651 200 651 262 C651 341 600 408 457 427 L343 442 C292 449 215 458 215 519 C215 570 270 592 344 592 C441 592 492 553 492 487 L633 487 C633 609 537 700 345 700 C172 700 71 626 71 513 C71 455 97 411 146 380 C88 347 49 296 49 227 C49 139 114 80 254 65 L388 51 C470 42 521 18 521 -31 C521 -87 456 -116 351 -116 C233 -116 168 -80 168 -2 L27 -2 C27 -133 140 -224 353 -224 C541 -224 667 -158 667 -24 C667 53 623 99 570 126 L570 126 Z M193 255 C193 286 211 318 245 341 C267 335 291 331 316 328 L378 320 C416 315 506 304 506 237 C506 204 483 179 448 162 C436 164 426 165 417 166 L325 174 C278 178 193 187 193 255 L193 255 Z " />
<glyph glyph-name="dieresis" unicode="&#xa8;" horiz-adv-x="600" d="M93 657 C93 608 130 580 173 580 C215 580 253 608 253 657 C253 707 215 735 173 735 C130 735 93 707 93 657 L93 657 Z M336 657 C336 608 373 580 416 580 C458 580 496 608 496 657 C496 707 458 735 416 735 C373 735 336 707 336 657 L336 657 Z " />
<glyph glyph-name="copyright" unicode="&#xa9;" horiz-adv-x="766" d="M730 348 C730 573 572 700 387 700 C200 700 36 571 36 345 C36 114 193 -10 377 -10 C565 -10 730 122 730 348 L730 348 Z M640 344 C640 161 516 76 382 76 C249 76 126 164 126 346 C126 528 249 614 382 614 C516 614 640 525 640 344 L640 344 Z M560 293 L469 293 C463 253 429 231 382 231 C330 231 285 269 285 346 C285 422 330 459 382 459 C426 459 464 439 469 397 L560 397 C553 488 476 537 384 537 C282 537 193 468 193 345 C193 220 279 153 381 153 C472 153 551 204 560 293 L560 293 Z " />
<glyph glyph-name="ordfeminine" unicode="&#xaa;" horiz-adv-x="461" d="M404 378 L404 544 C404 634 346 698 229 698 C117 698 52 636 52 551 L167 551 C167 587 187 608 226 608 C268 608 285 586 285 547 L285 527 L163 509 C64 494 33 445 33 388 C33 329 79 282 153 282 C212 282 261 306 289 343 C291 324 294 305 299 290 L416 290 L416 300 C408 322 404 354 404 378 L404 378 Z M186 361 C164 361 149 376 149 400 C149 425 165 440 197 445 L285 460 L285 434 C261 381 215 361 186 361 L186 361 Z " />
<glyph glyph-name="guillemotleft" unicode="&#xab;" horiz-adv-x="595" d="M304 456 L151 456 L36 298 L36 206 L151 48 L304 48 L161 252 L304 456 Z M567 456 L414 456 L299 298 L299 206 L414 48 L567 48 L424 252 L567 456 Z " />
<glyph glyph-name="logicalnot" unicode="&#xac;" horiz-adv-x="631" d="M568 444 L29 444 L29 325 L431 325 L431 78 L568 78 L568 444 Z " />
<glyph glyph-name="uni00AD" unicode="&#xad;" horiz-adv-x="480" d="M53 338 L53 222 L427 222 L427 338 L53 338 Z " />
<glyph glyph-name="registered" unicode="&#xae;" horiz-adv-x="766" d="M387 700 C200 700 36 571 36 345 C36 114 193 -10 377 -10 C565 -10 730 122 730 348 C730 573 572 700 387 700 L387 700 Z M382 76 C249 76 126 164 126 346 C126 528 249 614 382 614 C516 614 640 525 640 344 C640 161 516 76 382 76 L382 76 Z M531 263 C523 293 508 312 484 323 C525 340 549 374 549 420 C549 487 501 527 410 527 L226 527 L226 163 L315 163 L315 285 L370 285 C420 285 436 269 443 247 L456 208 C460 195 466 178 475 163 L563 163 L563 170 C554 187 546 205 542 221 L531 263 Z M315 360 L315 452 L383 452 C430 452 458 439 458 407 C458 374 427 360 378 360 L315 360 Z " />
<glyph glyph-name="macron" unicode="&#xaf;" horiz-adv-x="600" d="M50 693 L50 593 L390 593 L390 693 L50 693 Z " />
<glyph glyph-name="degree" unicode="&#xb0;" horiz-adv-x="409" d="M205 374 C304 374 380 442 380 541 C380 641 304 707 205 707 C105 707 29 641 29 541 C29 441 105 374 205 374 L205 374 Z M205 474 C169 474 140 499 140 541 C140 582 169 607 205 607 C240 607 269 582 269 541 C269 499 240 474 205 474 L205 474 Z " />
<glyph glyph-name="plusminus" unicode="&#xb1;" horiz-adv-x="570" d="M350 409 L350 592 L220 592 L220 409 L44 409 L44 293 L220 293 L220 110 L350 110 L350 293 L526 293 L526 409 L350 409 Z M44 -46 L526 -46 L526 70 L44 70 L44 -46 Z " />
<glyph glyph-name="acute" unicode="&#xb4;" horiz-adv-x="600" d="M315 730 L169 730 L50 590 L50 575 L167 575 L315 715 L315 730 Z " />
<glyph glyph-name="paragraph" unicode="&#xb6;" horiz-adv-x="725" d="M644 690 L281 690 C115 690 25 610 25 466 C25 314 122 226 287 226 L325 226 L325 -214 L437 -214 L437 578 L532 578 L532 -214 L644 -214 L644 690 Z " />
<glyph glyph-name="periodcentered" unicode="&#xb7;" horiz-adv-x="252" d="M42 337 C42 285 81 256 126 256 C171 256 210 285 210 337 C210 389 171 418 126 418 C81 418 42 389 42 337 L42 337 Z " />
<glyph glyph-name="cedilla" unicode="&#xb8;" horiz-adv-x="600" d="M203 -40 L221 12 L128 12 L97 -72 L156 -104 C161 -102 168 -101 175 -101 C197 -101 210 -112 210 -131 C210 -153 190 -161 168 -161 C146 -161 127 -151 127 -136 L40 -136 C40 -177 69 -224 167 -224 C259 -224 297 -186 297 -126 C297 -72 253 -44 203 -40 L203 -40 Z " />
<glyph glyph-name="ordmasculine" unicode="&#xba;" horiz-adv-x="489" d="M460 492 C460 623 362 698 246 698 C131 698 29 622 29 490 C29 355 127 282 243 282 C358 282 460 360 460 492 L460 492 Z M338 489 C338 419 295 383 245 383 C195 383 151 419 151 491 C151 561 194 597 245 597 C295 597 338 560 338 489 L338 489 Z " />
<glyph glyph-name="guillemotright" unicode="&#xbb;" horiz-adv-x="595" d="M296 298 L181 456 L28 456 L171 252 L28 48 L181 48 L296 206 L296 298 Z M444 456 L291 456 L434 252 L291 48 L444 48 L559 206 L559 298 L444 456 Z " />
<glyph glyph-name="onequarter" unicode="&#xbc;" horiz-adv-x="869" d="M542 700 L122 -10 L253 -10 L673 700 L542 700 Z M236 276 L236 690 L145 690 C105 662 65 635 26 615 L26 505 C55 516 84 531 113 551 L113 276 L236 276 Z M790 158 L790 414 L647 414 L456 164 L455 66 L667 66 L667 0 L790 0 L790 66 L842 66 L842 158 L790 158 Z M667 247 L667 158 L606 158 C594 158 576 157 561 157 C571 169 582 183 590 194 L640 259 C649 270 659 285 669 299 C668 281 667 261 667 247 L667 247 Z " />
<glyph glyph-name="onehalf" unicode="&#xbd;" horiz-adv-x="899" d="M542 700 L122 -10 L253 -10 L673 700 L542 700 Z M236 276 L236 690 L145 690 C105 662 65 635 26 615 L26 505 C55 516 84 531 113 551 L113 276 L236 276 Z M754 98 C733 98 711 97 691 96 C784 152 858 219 858 290 C858 367 798 420 693 420 C588 420 520 357 520 263 L638 263 C638 297 656 322 687 322 C717 322 731 304 731 281 C731 257 716 241 677 211 L516 80 L516 0 L868 0 L868 98 L754 98 Z " />
<glyph glyph-name="threequarters" unicode="&#xbe;" horiz-adv-x="974" d="M662 700 L242 -10 L373 -10 L793 700 L662 700 Z M394 392 C394 439 371 477 316 491 C356 509 382 540 382 582 C382 646 322 696 217 696 C105 696 41 645 41 554 L165 554 C165 579 178 601 214 601 C248 601 261 581 261 561 C261 539 246 522 212 522 L161 522 L161 448 L212 448 C246 448 266 435 266 408 C266 381 243 366 210 366 C176 366 152 382 152 414 L27 414 C27 322 93 270 210 270 C323 270 394 321 394 392 L394 392 Z M895 158 L895 414 L752 414 L561 164 L560 66 L772 66 L772 0 L895 0 L895 66 L947 66 L947 158 L895 158 Z M772 247 L772 158 L711 158 C699 158 681 157 666 157 C676 169 687 183 695 194 L745 259 C754 270 764 285 774 299 C773 281 772 261 772 247 L772 247 Z " />
<glyph glyph-name="questiondown" unicode="&#xbf;" horiz-adv-x="576" d="M379 619 C379 671 340 700 288 700 C236 700 197 671 197 619 C197 567 236 538 288 538 C340 538 379 567 379 619 L379 619 Z M168 185 C168 235 192 263 251 294 C340 341 356 388 356 487 L218 488 C218 429 198 407 149 378 C79 337 30 284 30 189 C30 87 109 -10 281 -10 C460 -10 552 88 552 221 L417 221 C417 140 364 93 282 96 C205 99 168 137 168 185 L168 185 Z " />
<glyph glyph-name="Agrave" unicode="&#xc0;" horiz-adv-x="713" d="M417 754 L417 769 L298 889 L152 889 L152 874 L300 754 L417 754 Z M563 0 L717 0 L446 690 L267 690 L-4 0 L144 0 L205 167 L502 167 L563 0 Z M245 276 L309 451 C325 496 342 547 354 584 C366 547 383 496 399 451 L463 276 L245 276 Z " />
<glyph glyph-name="Aacute" unicode="&#xc1;" horiz-adv-x="713" d="M562 874 L562 889 L416 889 L297 769 L297 754 L414 754 L562 874 Z M563 0 L717 0 L446 690 L267 690 L-4 0 L144 0 L205 167 L502 167 L563 0 Z M245 276 L309 451 C325 496 342 547 354 584 C366 547 383 496 399 451 L463 276 L245 276 Z " />
<glyph glyph-name="Acircumflex" unicode="&#xc2;" horiz-adv-x="713" d="M358 806 L413 754 L533 754 L533 769 L412 889 L303 889 L182 769 L182 754 L302 754 L358 806 Z M563 0 L717 0 L446 690 L267 690 L-4 0 L144 0 L205 167 L502 167 L563 0 Z M245 276 L309 451 C325 496 342 547 354 584 C366 547 383 496 399 451 L463 276 L245 276 Z " />
<glyph glyph-name="Atilde" unicode="&#xc3;" horiz-adv-x="713" d="M296 802 C337 802 376 750 440 750 C501 750 557 782 557 888 L465 888 C465 855 449 840 425 840 C392 840 353 892 282 892 C221 892 165 859 165 754 L257 754 C257 785 271 802 296 802 L296 802 Z M563 0 L717 0 L446 690 L267 690 L-4 0 L144 0 L205 167 L502 167 L563 0 Z M245 276 L309 451 C325 496 342 547 354 584 C366 547 383 496 399 451 L463 276 L245 276 Z " />
<glyph glyph-name="Adieresis" unicode="&#xc4;" horiz-adv-x="713" d="M236 743 C278 743 316 771 316 820 C316 870 278 898 236 898 C193 898 156 870 156 820 C156 771 193 743 236 743 L236 743 Z M479 743 C521 743 559 771 559 820 C559 870 521 898 479 898 C436 898 399 870 399 820 C399 771 436 743 479 743 L479 743 Z M563 0 L717 0 L446 690 L267 690 L-4 0 L144 0 L205 167 L502 167 L563 0 Z M245 276 L309 451 C325 496 342 547 354 584 C366 547 383 496 399 451 L463 276 L245 276 Z " />
<glyph glyph-name="Aring" unicode="&#xc5;" horiz-adv-x="713" d="M563 0 L717 0 L447 686 C477 709 493 744 493 786 C493 859 445 911 358 911 C270 911 222 859 222 786 C222 745 237 710 266 688 L-4 0 L144 0 L205 167 L502 167 L563 0 Z M358 832 C385 832 401 813 401 786 C401 759 385 739 358 739 C330 739 314 759 314 786 C314 813 330 832 358 832 L358 832 Z M245 276 L309 451 C325 496 342 547 354 584 C366 547 383 496 399 451 L463 276 L245 276 Z " />
<glyph glyph-name="AE" unicode="&#xc6;" horiz-adv-x="1092" d="M689 119 L689 295 L1011 295 L1011 411 L689 411 L689 571 L1045 571 L1045 690 L460 690 L-14 0 L146 0 L286 204 L547 204 L547 0 L1051 0 L1051 119 L689 119 Z M359 311 L439 428 C471 475 513 538 547 590 L547 311 L359 311 Z " />
<glyph glyph-name="Ccedilla" unicode="&#xc7;" horiz-adv-x="725" d="M697 252 L551 252 C539 161 469 112 376 112 C274 112 184 190 184 346 C184 501 274 578 376 578 C464 578 540 532 551 438 L696 438 C684 607 545 700 379 700 C197 700 36 571 36 345 C36 126 174 3 345 -9 L322 -72 L381 -104 C386 -102 393 -101 400 -101 C422 -101 435 -112 435 -131 C435 -153 415 -161 393 -161 C371 -161 352 -151 352 -136 L265 -136 C265 -177 294 -224 392 -224 C484 -224 522 -186 522 -126 C522 -72 478 -44 428 -40 L440 -5 C575 18 682 108 697 252 L697 252 Z " />
<glyph glyph-name="Egrave" unicode="&#xc8;" horiz-adv-x="617" d="M391 754 L391 769 L272 889 L126 889 L126 874 L274 754 L391 754 Z M214 119 L214 295 L536 295 L536 411 L214 411 L214 571 L570 571 L570 690 L72 690 L72 0 L576 0 L576 119 L214 119 Z " />
<glyph glyph-name="Eacute" unicode="&#xc9;" horiz-adv-x="617" d="M536 874 L536 889 L390 889 L271 769 L271 754 L388 754 L536 874 Z M214 119 L214 295 L536 295 L536 411 L214 411 L214 571 L570 571 L570 690 L72 690 L72 0 L576 0 L576 119 L214 119 Z " />
<glyph glyph-name="Ecircumflex" unicode="&#xca;" horiz-adv-x="617" d="M332 806 L387 754 L507 754 L507 769 L386 889 L277 889 L156 769 L156 754 L276 754 L332 806 Z M214 119 L214 295 L536 295 L536 411 L214 411 L214 571 L570 571 L570 690 L72 690 L72 0 L576 0 L576 119 L214 119 Z " />
<glyph glyph-name="Edieresis" unicode="&#xcb;" horiz-adv-x="617" d="M210 743 C252 743 290 771 290 820 C290 870 252 898 210 898 C167 898 130 870 130 820 C130 771 167 743 210 743 L210 743 Z M453 743 C495 743 533 771 533 820 C533 870 495 898 453 898 C410 898 373 870 373 820 C373 771 410 743 453 743 L453 743 Z M214 119 L214 295 L536 295 L536 411 L214 411 L214 571 L570 571 L570 690 L72 690 L72 0 L576 0 L576 119 L214 119 Z " />
<glyph glyph-name="Igrave" unicode="&#xcc;" horiz-adv-x="286" d="M203 769 L84 889 L-62 889 L-62 874 L86 754 L203 754 L203 769 Z M72 0 L214 0 L214 690 L72 690 L72 0 Z " />
<glyph glyph-name="Iacute" unicode="&#xcd;" horiz-adv-x="286" d="M348 889 L202 889 L83 769 L83 754 L200 754 L348 874 L348 889 Z M72 0 L214 0 L214 690 L72 690 L72 0 Z " />
<glyph glyph-name="Icircumflex" unicode="&#xce;" horiz-adv-x="286" d="M192 889 L95 889 L-9 769 L-9 754 L103 754 L144 806 L184 754 L296 754 L296 769 L192 889 Z M72 0 L214 0 L214 690 L72 690 L72 0 Z " />
<glyph glyph-name="Idieresis" unicode="&#xcf;" horiz-adv-x="286" d="M-36 821 C-36 771 -1 744 40 744 C80 744 116 771 116 821 C116 870 80 898 40 898 C-1 898 -36 870 -36 821 L-36 821 Z M171 821 C171 771 206 744 247 744 C287 744 323 771 323 821 C323 870 287 898 247 898 C206 898 171 870 171 821 L171 821 Z M72 0 L214 0 L214 690 L72 690 L72 0 Z " />
<glyph glyph-name="Eth" unicode="&#xd0;" horiz-adv-x="735" d="M371 690 L81 690 L81 404 L22 404 L22 288 L81 288 L81 0 L365 0 C561 0 697 128 697 348 C697 567 567 690 371 690 L371 690 Z M364 120 L223 120 L223 288 L349 288 L349 404 L223 404 L223 570 L364 570 C479 570 549 495 549 344 C549 194 479 120 364 120 L364 120 Z " />
<glyph glyph-name="Ntilde" unicode="&#xd1;" horiz-adv-x="760" d="M185 754 L277 754 C277 785 291 802 316 802 C357 802 396 750 460 750 C521 750 577 782 577 888 L485 888 C485 855 469 840 445 840 C412 840 373 892 302 892 C241 892 185 859 185 754 L185 754 Z M554 690 L558 287 C558 252 561 199 565 153 C542 194 516 241 496 275 L246 690 L72 690 L72 0 L206 0 L202 401 C202 443 200 493 197 536 C218 497 242 452 262 420 L515 0 L688 0 L688 690 L554 690 Z " />
<glyph glyph-name="Ograve" unicode="&#xd2;" horiz-adv-x="781" d="M451 769 L332 889 L186 889 L186 874 L334 754 L451 754 L451 769 Z M745 348 C745 573 590 700 393 700 C198 700 36 571 36 345 C36 114 191 -10 388 -10 C584 -10 745 122 745 348 L745 348 Z M597 344 C597 189 504 112 391 112 C278 112 184 190 184 346 C184 501 278 578 391 578 C504 578 597 500 597 344 L597 344 Z " />
<glyph glyph-name="Oacute" unicode="&#xd3;" horiz-adv-x="781" d="M596 889 L450 889 L331 769 L331 754 L448 754 L596 874 L596 889 Z M745 348 C745 573 590 700 393 700 C198 700 36 571 36 345 C36 114 191 -10 388 -10 C584 -10 745 122 745 348 L745 348 Z M597 344 C597 189 504 112 391 112 C278 112 184 190 184 346 C184 501 278 578 391 578 C504 578 597 500 597 344 L597 344 Z " />
<glyph glyph-name="Ocircumflex" unicode="&#xd4;" horiz-adv-x="781" d="M393 806 L448 754 L568 754 L568 769 L447 889 L338 889 L217 769 L217 754 L337 754 L393 806 Z M393 700 C198 700 36 571 36 345 C36 114 191 -10 388 -10 C584 -10 745 122 745 348 C745 573 590 700 393 700 L393 700 Z M391 112 C278 112 184 190 184 346 C184 501 278 578 391 578 C504 578 597 500 597 344 C597 189 504 112 391 112 L391 112 Z " />
<glyph glyph-name="Otilde" unicode="&#xd5;" horiz-adv-x="781" d="M199 754 L291 754 C291 785 305 802 330 802 C371 802 410 750 474 750 C535 750 591 782 591 888 L499 888 C499 855 483 840 459 840 C426 840 387 892 316 892 C255 892 199 859 199 754 L199 754 Z M745 348 C745 573 590 700 393 700 C198 700 36 571 36 345 C36 114 191 -10 388 -10 C584 -10 745 122 745 348 L745 348 Z M597 344 C597 189 504 112 391 112 C278 112 184 190 184 346 C184 501 278 578 391 578 C504 578 597 500 597 344 L597 344 Z " />
<glyph glyph-name="Odieresis" unicode="&#xd6;" horiz-adv-x="781" d="M190 820 C190 771 227 743 270 743 C312 743 350 771 350 820 C350 870 312 898 270 898 C227 898 190 870 190 820 L190 820 Z M433 820 C433 771 470 743 513 743 C555 743 593 771 593 820 C593 870 555 898 513 898 C470 898 433 870 433 820 L433 820 Z M745 348 C745 573 590 700 393 700 C198 700 36 571 36 345 C36 114 191 -10 388 -10 C584 -10 745 122 745 348 L745 348 Z M597 344 C597 189 504 112 391 112 C278 112 184 190 184 346 C184 501 278 578 391 578 C504 578 597 500 597 344 L597 344 Z " />
<glyph glyph-name="multiply" unicode="&#xd7;" horiz-adv-x="558" d="M529 418 L447 500 L279 332 L111 500 L29 418 L197 250 L29 82 L111 0 L279 168 L447 0 L529 82 L361 250 L529 418 Z " />
<glyph glyph-name="Oslash" unicode="&#xd8;" horiz-adv-x="793" d="M769 645 L697 717 L616 636 C556 678 481 700 399 700 C204 700 42 571 42 345 C42 255 65 182 105 125 L25 45 L97 -27 L178 54 C237 12 312 -10 394 -10 C590 -10 751 122 751 348 C751 435 728 508 688 564 L769 645 Z M190 346 C190 501 284 578 397 578 C443 578 485 565 520 540 L211 231 C198 263 190 301 190 346 L190 346 Z M603 344 C603 189 510 112 397 112 C351 112 309 125 274 150 L582 458 C595 426 603 388 603 344 L603 344 Z " />
<glyph glyph-name="Ugrave" unicode="&#xd9;" horiz-adv-x="734" d="M427 769 L308 889 L162 889 L162 874 L310 754 L427 754 L427 769 Z M670 295 L670 690 L528 690 L528 305 C528 160 452 112 367 112 C282 112 206 161 206 307 L206 690 L64 690 L64 292 C64 76 201 -10 364 -10 C527 -10 670 84 670 295 L670 295 Z " />
<glyph glyph-name="Uacute" unicode="&#xda;" horiz-adv-x="734" d="M572 889 L426 889 L307 769 L307 754 L424 754 L572 874 L572 889 Z M670 295 L670 690 L528 690 L528 305 C528 160 452 112 367 112 C282 112 206 161 206 307 L206 690 L64 690 L64 292 C64 76 201 -10 364 -10 C527 -10 670 84 670 295 L670 295 Z " />
<glyph glyph-name="Ucircumflex" unicode="&#xdb;" horiz-adv-x="734" d="M368 806 L423 754 L543 754 L543 769 L422 889 L313 889 L192 769 L192 754 L312 754 L368 806 Z M528 690 L528 305 C528 160 452 112 367 112 C282 112 206 161 206 307 L206 690 L64 690 L64 292 C64 76 201 -10 364 -10 C527 -10 670 84 670 295 L670 690 L528 690 Z " />
<glyph glyph-name="Udieresis" unicode="&#xdc;" horiz-adv-x="734" d="M166 820 C166 771 203 743 246 743 C288 743 326 771 326 820 C326 870 288 898 246 898 C203 898 166 870 166 820 L166 820 Z M409 820 C409 771 446 743 489 743 C531 743 569 771 569 820 C569 870 531 898 489 898 C446 898 409 870 409 820 L409 820 Z M670 295 L670 690 L528 690 L528 305 C528 160 452 112 367 112 C282 112 206 161 206 307 L206 690 L64 690 L64 292 C64 76 201 -10 364 -10 C527 -10 670 84 670 295 L670 295 Z " />
<glyph glyph-name="Yacute" unicode="&#xdd;" horiz-adv-x="666" d="M539 874 L539 889 L393 889 L274 769 L274 754 L391 754 L539 874 Z M671 690 L507 690 L391 500 C368 462 348 423 337 399 C327 423 308 462 285 500 L169 690 L-5 690 L262 268 L262 0 L405 0 L405 271 L671 690 Z " />
<glyph glyph-name="Thorn" unicode="&#xde;" horiz-adv-x="699" d="M393 562 L214 562 L214 690 L72 690 L72 0 L214 0 L214 118 L387 118 C565 118 669 202 669 344 C669 486 572 562 393 562 L393 562 Z M383 238 L214 238 L214 442 L383 442 C471 442 522 416 522 340 C522 264 468 238 383 238 L383 238 Z " />
<glyph glyph-name="germandbls" unicode="&#xdf;" horiz-adv-x="622" d="M353 95 C317 95 282 101 254 109 L252 3 C288 -6 324 -10 372 -10 C514 -10 591 74 591 191 C591 308 523 363 447 382 C496 410 531 465 531 524 C531 625 446 700 298 700 C146 700 62 618 62 461 L62 0 L192 0 L192 470 C192 552 218 598 299 598 C362 598 397 564 397 502 C397 469 383 417 316 417 L285 417 L285 310 L335 310 C411 310 457 271 457 199 C457 126 411 95 353 95 L353 95 Z " />
<glyph glyph-name="agrave" unicode="&#xe0;" horiz-adv-x="548" d="M332 575 L332 590 L213 730 L67 730 L67 715 L215 575 L332 575 Z M490 110 L490 318 C490 432 418 510 273 510 C133 510 53 433 53 325 L188 325 C188 374 215 402 271 402 C328 402 350 373 350 321 L350 296 L191 272 C75 255 31 198 31 122 C31 48 88 -10 181 -10 C255 -10 319 21 355 67 C356 44 360 20 367 0 L504 0 L504 12 C495 40 490 76 490 110 L490 110 Z M219 85 C188 85 168 104 168 136 C168 167 188 188 231 195 L350 215 L350 180 C319 109 258 85 219 85 L219 85 Z " />
<glyph glyph-name="aacute" unicode="&#xe1;" horiz-adv-x="548" d="M476 715 L476 730 L330 730 L211 590 L211 575 L328 575 L476 715 Z M490 110 L490 318 C490 432 418 510 273 510 C133 510 53 433 53 325 L188 325 C188 374 215 402 271 402 C328 402 350 373 350 321 L350 296 L191 272 C75 255 31 198 31 122 C31 48 88 -10 181 -10 C255 -10 319 21 355 67 C356 44 360 20 367 0 L504 0 L504 12 C495 40 490 76 490 110 L490 110 Z M219 85 C188 85 168 104 168 136 C168 167 188 188 231 195 L350 215 L350 180 C319 109 258 85 219 85 L219 85 Z " />
<glyph glyph-name="acircumflex" unicode="&#xe2;" horiz-adv-x="548" d="M275 642 L338 575 L452 575 L452 590 L327 730 L226 730 L101 590 L101 575 L211 575 L275 642 Z M490 110 L490 318 C490 432 418 510 273 510 C133 510 53 433 53 325 L188 325 C188 374 215 402 271 402 C328 402 350 373 350 321 L350 296 L191 272 C75 255 31 198 31 122 C31 48 88 -10 181 -10 C255 -10 319 21 355 67 C356 44 360 20 367 0 L504 0 L504 12 C495 40 490 76 490 110 L490 110 Z M219 85 C188 85 168 104 168 136 C168 167 188 188 231 195 L350 215 L350 180 C319 109 258 85 219 85 L219 85 Z " />
<glyph glyph-name="atilde" unicode="&#xe3;" horiz-adv-x="548" d="M213 637 C250 637 291 577 351 577 C412 577 464 612 464 732 L374 732 C374 698 360 679 336 679 C307 679 267 739 199 739 C138 739 86 704 86 583 L176 583 C176 622 188 637 213 637 L213 637 Z M490 110 L490 318 C490 432 418 510 273 510 C133 510 53 433 53 325 L188 325 C188 374 215 402 271 402 C328 402 350 373 350 321 L350 296 L191 272 C75 255 31 198 31 122 C31 48 88 -10 181 -10 C255 -10 319 21 355 67 C356 44 360 20 367 0 L504 0 L504 12 C495 40 490 76 490 110 L490 110 Z M219 85 C188 85 168 104 168 136 C168 167 188 188 231 195 L350 215 L350 180 C319 109 258 85 219 85 L219 85 Z " />
<glyph glyph-name="adieresis" unicode="&#xe4;" horiz-adv-x="548" d="M156 580 C198 580 236 608 236 657 C236 707 198 735 156 735 C113 735 76 707 76 657 C76 608 113 580 156 580 L156 580 Z M399 580 C441 580 479 608 479 657 C479 707 441 735 399 735 C356 735 319 707 319 657 C319 608 356 580 399 580 L399 580 Z M490 110 L490 318 C490 432 418 510 273 510 C133 510 53 433 53 325 L188 325 C188 374 215 402 271 402 C328 402 350 373 350 321 L350 296 L191 272 C75 255 31 198 31 122 C31 48 88 -10 181 -10 C255 -10 319 21 355 67 C356 44 360 20 367 0 L504 0 L504 12 C495 40 490 76 490 110 L490 110 Z M219 85 C188 85 168 104 168 136 C168 167 188 188 231 195 L350 215 L350 180 C319 109 258 85 219 85 L219 85 Z " />
<glyph glyph-name="aring" unicode="&#xe5;" horiz-adv-x="548" d="M277 548 C364 548 412 601 412 674 C412 747 364 799 277 799 C189 799 141 747 141 674 C141 601 189 548 277 548 L277 548 Z M277 720 C304 720 320 701 320 674 C320 647 304 627 277 627 C249 627 233 647 233 674 C233 701 249 720 277 720 L277 720 Z M490 110 L490 318 C490 432 418 510 273 510 C133 510 53 433 53 325 L188 325 C188 374 215 402 271 402 C328 402 350 373 350 321 L350 296 L191 272 C75 255 31 198 31 122 C31 48 88 -10 181 -10 C255 -10 319 21 355 67 C356 44 360 20 367 0 L504 0 L504 12 C495 40 490 76 490 110 L490 110 Z M219 85 C188 85 168 104 168 136 C168 167 188 188 231 195 L350 215 L350 180 C319 109 258 85 219 85 L219 85 Z " />
<glyph glyph-name="ae" unicode="&#xe6;" horiz-adv-x="885" d="M850 256 C850 420 755 510 608 510 C541 510 480 489 434 450 C398 487 343 510 271 510 C132 510 54 433 54 325 L189 325 C189 374 215 402 270 402 C326 402 349 372 349 320 L349 296 L192 272 C76 254 30 195 30 119 C30 43 87 -10 189 -10 C285 -10 356 29 396 80 C438 21 508 -10 597 -10 C744 -10 841 65 846 163 L707 163 C705 122 661 95 599 95 C536 95 489 139 489 208 L850 208 L850 256 Z M603 402 C659 402 697 372 703 297 L494 297 C503 369 545 402 603 402 L603 402 Z M218 85 C187 85 167 102 167 134 C167 165 187 184 230 191 L349 211 L349 159 C322 108 268 85 218 85 L218 85 Z " />
<glyph glyph-name="ccedilla" unicode="&#xe7;" horiz-adv-x="563" d="M288 99 C223 99 176 148 176 253 C176 362 229 401 291 401 C351 401 389 368 395 308 L534 308 C530 428 430 510 292 510 C150 510 32 415 32 250 C32 98 125 5 258 -8 L234 -72 L293 -104 C298 -102 305 -101 312 -101 C334 -101 347 -112 347 -131 C347 -153 327 -161 305 -161 C283 -161 264 -151 264 -136 L177 -136 C177 -177 206 -224 304 -224 C396 -224 434 -186 434 -126 C434 -72 390 -44 340 -40 L352 -5 C460 15 531 88 534 192 L397 192 C392 132 350 99 288 99 L288 99 Z " />
<glyph glyph-name="egrave" unicode="&#xe8;" horiz-adv-x="571" d="M361 575 L361 590 L242 730 L96 730 L96 715 L244 575 L361 575 Z M537 249 C537 420 439 510 293 510 C154 510 32 417 32 250 C32 80 139 -10 291 -10 C439 -10 524 65 529 163 L391 163 C389 122 351 95 292 95 C228 95 177 139 177 208 L537 208 L537 249 Z M291 402 C347 402 385 372 391 301 L182 301 C191 369 233 402 291 402 L291 402 Z " />
<glyph glyph-name="eacute" unicode="&#xe9;" horiz-adv-x="571" d="M485 715 L485 730 L339 730 L220 590 L220 575 L337 575 L485 715 Z M537 249 C537 420 439 510 293 510 C154 510 32 417 32 250 C32 80 139 -10 291 -10 C439 -10 524 65 529 163 L391 163 C389 122 351 95 292 95 C228 95 177 139 177 208 L537 208 L537 249 Z M291 402 C347 402 385 372 391 301 L182 301 C191 369 233 402 291 402 L291 402 Z " />
<glyph glyph-name="ecircumflex" unicode="&#xea;" horiz-adv-x="571" d="M293 642 L356 575 L470 575 L470 590 L345 730 L244 730 L119 590 L119 575 L229 575 L293 642 Z M537 249 C537 420 439 510 293 510 C154 510 32 417 32 250 C32 80 139 -10 291 -10 C439 -10 524 65 529 163 L391 163 C389 122 351 95 292 95 C228 95 177 139 177 208 L537 208 L537 249 Z M291 402 C347 402 385 372 391 301 L182 301 C191 369 233 402 291 402 L291 402 Z " />
<glyph glyph-name="edieresis" unicode="&#xeb;" horiz-adv-x="571" d="M165 580 C207 580 245 608 245 657 C245 707 207 735 165 735 C122 735 85 707 85 657 C85 608 122 580 165 580 L165 580 Z M408 580 C450 580 488 608 488 657 C488 707 450 735 408 735 C365 735 328 707 328 657 C328 608 365 580 408 580 L408 580 Z M537 249 C537 420 439 510 293 510 C154 510 32 417 32 250 C32 80 139 -10 291 -10 C439 -10 524 65 529 163 L391 163 C389 122 351 95 292 95 C228 95 177 139 177 208 L537 208 L537 249 Z M291 402 C347 402 385 372 391 301 L182 301 C191 369 233 402 291 402 L291 402 Z " />
<glyph glyph-name="igrave" unicode="&#xec;" horiz-adv-x="264" d="M-79 730 L-79 715 L69 575 L186 575 L186 590 L67 730 L-79 730 Z M62 0 L202 0 L202 500 L62 500 L62 0 Z " />
<glyph glyph-name="iacute" unicode="&#xed;" horiz-adv-x="264" d="M330 730 L184 730 L65 590 L65 575 L182 575 L330 715 L330 730 Z M62 0 L202 0 L202 500 L62 500 L62 0 Z " />
<glyph glyph-name="icircumflex" unicode="&#xee;" horiz-adv-x="264" d="M191 730 L70 730 L-23 590 L-23 575 L84 575 L131 645 L177 575 L284 575 L284 590 L191 730 Z M62 0 L202 0 L202 500 L62 500 L62 0 Z " />
<glyph glyph-name="idieresis" unicode="&#xef;" horiz-adv-x="264" d="M-50 651 C-50 604 -14 577 27 577 C67 577 103 604 103 651 C103 698 67 724 27 724 C-14 724 -50 698 -50 651 L-50 651 Z M159 651 C159 604 195 577 236 577 C276 577 312 604 312 651 C312 698 276 724 236 724 C195 724 159 698 159 651 L159 651 Z M62 0 L202 0 L202 500 L62 500 L62 0 Z " />
<glyph glyph-name="eth" unicode="&#xf0;" horiz-adv-x="604" d="M335 705 L358 767 L249 808 L226 746 C185 756 141 761 93 761 L93 636 C125 636 155 633 182 629 L163 577 L272 537 L292 589 C340 561 377 519 401 466 C375 499 329 510 283 510 C162 510 32 415 32 250 C32 81 153 -10 297 -10 C440 -10 566 78 566 285 C566 464 487 624 335 705 L335 705 Z M299 110 C233 110 176 157 176 251 C176 344 233 390 299 390 C377 390 422 350 422 249 C422 156 365 110 299 110 L299 110 Z " />
<glyph glyph-name="ntilde" unicode="&#xf1;" horiz-adv-x="600" d="M233 637 C270 637 311 577 371 577 C432 577 484 612 484 732 L394 732 C394 698 380 679 356 679 C327 679 287 739 219 739 C158 739 106 704 106 583 L196 583 C196 622 208 637 233 637 L233 637 Z M359 510 C286 510 231 483 198 434 L198 500 L62 500 L62 0 L202 0 L202 297 C217 355 259 391 315 391 C369 391 403 362 403 295 L403 0 L543 0 L543 314 C543 431 484 510 359 510 L359 510 Z " />
<glyph glyph-name="ograve" unicode="&#xf2;" horiz-adv-x="598" d="M99 730 L99 715 L247 575 L364 575 L364 590 L245 730 L99 730 Z M566 252 C566 417 445 510 301 510 C158 510 32 415 32 250 C32 81 153 -10 297 -10 C440 -10 566 87 566 252 L566 252 Z M422 249 C422 156 365 110 299 110 C233 110 176 157 176 251 C176 344 233 390 299 390 C365 390 422 343 422 249 L422 249 Z " />
<glyph glyph-name="oacute" unicode="&#xf3;" horiz-adv-x="598" d="M498 730 L352 730 L233 590 L233 575 L350 575 L498 715 L498 730 Z M566 252 C566 417 445 510 301 510 C158 510 32 415 32 250 C32 81 153 -10 297 -10 C440 -10 566 87 566 252 L566 252 Z M422 249 C422 156 365 110 299 110 C233 110 176 157 176 251 C176 344 233 390 299 390 C365 390 422 343 422 249 L422 249 Z " />
<glyph glyph-name="ocircumflex" unicode="&#xf4;" horiz-adv-x="598" d="M302 642 L365 575 L479 575 L479 590 L354 730 L253 730 L128 590 L128 575 L238 575 L302 642 Z M301 510 C158 510 32 415 32 250 C32 81 153 -10 297 -10 C440 -10 566 87 566 252 C566 417 445 510 301 510 L301 510 Z M299 110 C233 110 176 157 176 251 C176 344 233 390 299 390 C365 390 422 343 422 249 C422 156 365 110 299 110 L299 110 Z " />
<glyph glyph-name="otilde" unicode="&#xf5;" horiz-adv-x="598" d="M108 583 L198 583 C198 622 210 637 235 637 C272 637 313 577 373 577 C434 577 486 612 486 732 L396 732 C396 698 382 679 358 679 C329 679 289 739 221 739 C160 739 108 704 108 583 L108 583 Z M566 252 C566 417 445 510 301 510 C158 510 32 415 32 250 C32 81 153 -10 297 -10 C440 -10 566 87 566 252 L566 252 Z M422 249 C422 156 365 110 299 110 C233 110 176 157 176 251 C176 344 233 390 299 390 C365 390 422 343 422 249 L422 249 Z " />
<glyph glyph-name="odieresis" unicode="&#xf6;" horiz-adv-x="598" d="M98 657 C98 608 135 580 178 580 C220 580 258 608 258 657 C258 707 220 735 178 735 C135 735 98 707 98 657 L98 657 Z M341 657 C341 608 378 580 421 580 C463 580 501 608 501 657 C501 707 463 735 421 735 C378 735 341 707 341 657 L341 657 Z M566 252 C566 417 445 510 301 510 C158 510 32 415 32 250 C32 81 153 -10 297 -10 C440 -10 566 87 566 252 L566 252 Z M422 249 C422 156 365 110 299 110 C233 110 176 157 176 251 C176 344 233 390 299 390 C365 390 422 343 422 249 L422 249 Z " />
<glyph glyph-name="divide" unicode="&#xf7;" horiz-adv-x="582" d="M207 439 C207 387 246 358 291 358 C336 358 375 387 375 439 C375 491 336 520 291 520 C246 520 207 491 207 439 L207 439 Z M28 306 L28 194 L554 194 L554 306 L28 306 Z M207 61 C207 9 246 -20 291 -20 C336 -20 375 9 375 61 C375 113 336 142 291 142 C246 142 207 113 207 61 L207 61 Z " />
<glyph glyph-name="oslash" unicode="&#xf8;" horiz-adv-x="622" d="M610 470 L531 549 L456 474 C415 498 365 510 313 510 C170 510 44 415 44 250 C44 191 59 142 84 102 L14 32 L93 -47 L166 26 C207 2 257 -10 309 -10 C452 -10 578 87 578 252 C578 310 563 359 538 398 L610 470 Z M188 251 C188 344 245 390 311 390 C329 390 346 387 362 380 L192 210 C189 223 188 236 188 251 L188 251 Z M434 249 C434 156 377 110 311 110 C293 110 276 113 260 120 L430 290 C433 277 434 264 434 249 L434 249 Z " />
<glyph glyph-name="ugrave" unicode="&#xf9;" horiz-adv-x="595" d="M351 575 L351 590 L232 730 L86 730 L86 715 L234 575 L351 575 Z M533 114 L533 500 L393 500 L393 199 C377 144 329 110 279 110 C227 110 197 136 197 197 L197 500 L57 500 L57 174 C57 59 119 -10 231 -10 C305 -10 363 20 397 71 C399 47 402 23 410 0 L547 0 L547 12 C537 41 533 83 533 114 L533 114 Z " />
<glyph glyph-name="uacute" unicode="&#xfa;" horiz-adv-x="595" d="M495 715 L495 730 L349 730 L230 590 L230 575 L347 575 L495 715 Z M533 114 L533 500 L393 500 L393 199 C377 144 329 110 279 110 C227 110 197 136 197 197 L197 500 L57 500 L57 174 C57 59 119 -10 231 -10 C305 -10 363 20 397 71 C399 47 402 23 410 0 L547 0 L547 12 C537 41 533 83 533 114 L533 114 Z " />
<glyph glyph-name="ucircumflex" unicode="&#xfb;" horiz-adv-x="595" d="M294 642 L357 575 L471 575 L471 590 L346 730 L245 730 L120 590 L120 575 L230 575 L294 642 Z M533 114 L533 500 L393 500 L393 199 C377 144 329 110 279 110 C227 110 197 136 197 197 L197 500 L57 500 L57 174 C57 59 119 -10 231 -10 C305 -10 363 20 397 71 C399 47 402 23 410 0 L547 0 L547 12 C537 41 533 83 533 114 L533 114 Z " />
<glyph glyph-name="udieresis" unicode="&#xfc;" horiz-adv-x="595" d="M175 580 C217 580 255 608 255 657 C255 707 217 735 175 735 C132 735 95 707 95 657 C95 608 132 580 175 580 L175 580 Z M418 580 C460 580 498 608 498 657 C498 707 460 735 418 735 C375 735 338 707 338 657 C338 608 375 580 418 580 L418 580 Z M533 114 L533 500 L393 500 L393 199 C377 144 329 110 279 110 C227 110 197 136 197 197 L197 500 L57 500 L57 174 C57 59 119 -10 231 -10 C305 -10 363 20 397 71 C399 47 402 23 410 0 L547 0 L547 12 C537 41 533 83 533 114 L533 114 Z " />
<glyph glyph-name="yacute" unicode="&#xfd;" horiz-adv-x="547" d="M473 715 L473 730 L327 730 L208 590 L208 575 L325 575 L473 715 Z M401 500 L323 265 C311 229 292 162 278 114 C265 161 246 229 233 265 L152 500 L0 500 L209 -22 L186 -70 C168 -109 136 -120 101 -120 C87 -120 65 -119 46 -115 L46 -219 C67 -222 97 -224 117 -224 C210 -224 264 -189 297 -115 L349 0 L547 500 L401 500 Z " />
<glyph glyph-name="thorn" unicode="&#xfe;" horiz-adv-x="615" d="M356 510 C290 510 236 484 202 438 L202 750 L62 750 L62 -214 L202 -214 L202 56 C236 13 289 -10 356 -10 C471 -10 581 65 581 249 C581 433 471 510 356 510 L356 510 Z M321 110 C268 110 218 144 202 191 L202 297 C216 355 268 390 321 390 C373 390 436 355 436 250 C436 145 373 110 321 110 L321 110 Z " />
<glyph glyph-name="ydieresis" unicode="&#xff;" horiz-adv-x="547" d="M153 580 C195 580 233 608 233 657 C233 707 195 735 153 735 C110 735 73 707 73 657 C73 608 110 580 153 580 L153 580 Z M396 580 C438 580 476 608 476 657 C476 707 438 735 396 735 C353 735 316 707 316 657 C316 608 353 580 396 580 L396 580 Z M401 500 L323 265 C311 229 292 162 278 114 C265 161 246 229 233 265 L152 500 L0 500 L209 -22 L186 -70 C168 -109 136 -120 101 -120 C87 -120 65 -119 46 -115 L46 -219 C67 -222 97 -224 117 -224 C210 -224 264 -189 297 -115 L349 0 L547 500 L401 500 Z " />
<glyph glyph-name="Amacron" unicode="&#x100;" horiz-adv-x="713" d="M527 863 L187 863 L187 763 L527 763 L527 863 Z M563 0 L717 0 L446 690 L267 690 L-4 0 L144 0 L205 167 L502 167 L563 0 Z M245 276 L309 451 C325 496 342 547 354 584 C366 547 383 496 399 451 L463 276 L245 276 Z " />
<glyph glyph-name="amacron" unicode="&#x101;" horiz-adv-x="548" d="M447 693 L107 693 L107 593 L447 593 L447 693 Z M490 110 L490 318 C490 432 418 510 273 510 C133 510 53 433 53 325 L188 325 C188 374 215 402 271 402 C328 402 350 373 350 321 L350 296 L191 272 C75 255 31 198 31 122 C31 48 88 -10 181 -10 C255 -10 319 21 355 67 C356 44 360 20 367 0 L504 0 L504 12 C495 40 490 76 490 110 L490 110 Z M219 85 C188 85 168 104 168 136 C168 167 188 188 231 195 L350 215 L350 180 C319 109 258 85 219 85 L219 85 Z " />
<glyph glyph-name="Abreve" unicode="&#x102;" horiz-adv-x="713" d="M357 744 C451 744 507 796 511 887 L406 887 C404 849 383 832 357 832 C331 832 310 849 308 887 L203 887 C207 796 263 744 357 744 L357 744 Z M563 0 L717 0 L446 690 L267 690 L-4 0 L144 0 L205 167 L502 167 L563 0 Z M245 276 L309 451 C325 496 342 547 354 584 C366 547 383 496 399 451 L463 276 L245 276 Z " />
<glyph glyph-name="abreve" unicode="&#x103;" horiz-adv-x="548" d="M277 569 C377 569 434 625 434 730 L331 730 C329 681 307 659 277 659 C247 659 225 681 223 730 L120 730 C120 625 178 569 277 569 L277 569 Z M490 110 L490 318 C490 432 418 510 273 510 C133 510 53 433 53 325 L188 325 C188 374 215 402 271 402 C328 402 350 373 350 321 L350 296 L191 272 C75 255 31 198 31 122 C31 48 88 -10 181 -10 C255 -10 319 21 355 67 C356 44 360 20 367 0 L504 0 L504 12 C495 40 490 76 490 110 L490 110 Z M219 85 C188 85 168 104 168 136 C168 167 188 188 231 195 L350 215 L350 180 C319 109 258 85 219 85 L219 85 Z " />
<glyph glyph-name="Aogonek" unicode="&#x104;" horiz-adv-x="713" d="M637 -106 C637 -69 670 -24 717 0 L446 690 L267 690 L-4 0 L144 0 L205 167 L502 167 L563 0 L600 0 C557 -38 537 -79 537 -120 C537 -196 583 -257 722 -224 L722 -150 C670 -168 637 -145 637 -106 L637 -106 Z M245 276 L309 451 C325 496 342 547 354 584 C366 547 383 496 399 451 L463 276 L245 276 Z " />
<glyph glyph-name="aogonek" unicode="&#x105;" horiz-adv-x="548" d="M424 -106 C424 -69 457 -24 504 0 L504 12 C495 40 490 76 490 110 L490 318 C490 432 418 510 273 510 C133 510 53 433 53 325 L188 325 C188 374 215 402 271 402 C328 402 350 373 350 321 L350 296 L191 272 C75 255 31 198 31 122 C31 48 88 -10 181 -10 C255 -10 319 21 355 67 C356 44 360 20 367 0 L387 0 C344 -38 324 -79 324 -120 C324 -196 370 -257 509 -224 L509 -150 C457 -168 424 -145 424 -106 L424 -106 Z M219 85 C188 85 168 104 168 136 C168 167 188 188 231 195 L350 215 L350 180 C319 109 258 85 219 85 L219 85 Z " />
<glyph glyph-name="Cacute" unicode="&#x106;" horiz-adv-x="726" d="M571 889 L425 889 L306 769 L306 754 L423 754 L571 874 L571 889 Z M698 252 L552 252 C540 161 470 112 377 112 C275 112 185 190 185 346 C185 501 275 578 377 578 C465 578 541 532 552 438 L697 438 C685 607 546 700 380 700 C198 700 37 571 37 345 C37 114 191 -10 375 -10 C539 -10 681 85 698 252 L698 252 Z " />
<glyph glyph-name="cacute" unicode="&#x107;" horiz-adv-x="563" d="M483 730 L337 730 L218 590 L218 575 L335 575 L483 715 L483 730 Z M292 -10 C433 -10 531 70 534 192 L397 192 C392 132 350 99 288 99 C223 99 176 148 176 253 C176 362 229 401 291 401 C351 401 389 368 395 308 L534 308 C530 428 430 510 292 510 C150 510 32 415 32 250 C32 85 141 -10 292 -10 L292 -10 Z " />
<glyph glyph-name="Ccircumflex" unicode="&#x108;" horiz-adv-x="726" d="M376 806 L431 754 L551 754 L551 769 L430 889 L321 889 L200 769 L200 754 L320 754 L376 806 Z M552 252 C540 161 470 112 377 112 C275 112 185 190 185 346 C185 501 275 578 377 578 C465 578 541 532 552 438 L697 438 C685 607 546 700 380 700 C198 700 37 571 37 345 C37 114 191 -10 375 -10 C539 -10 681 85 698 252 L552 252 Z " />
<glyph glyph-name="ccircumflex" unicode="&#x109;" horiz-adv-x="563" d="M292 642 L355 575 L469 575 L469 590 L344 730 L243 730 L118 590 L118 575 L228 575 L292 642 Z M288 99 C223 99 176 148 176 253 C176 362 229 401 291 401 C351 401 389 368 395 308 L534 308 C530 428 430 510 292 510 C150 510 32 415 32 250 C32 85 141 -10 292 -10 C433 -10 531 70 534 192 L397 192 C392 132 350 99 288 99 L288 99 Z " />
<glyph glyph-name="Cdotaccent" unicode="&#x10a;" horiz-adv-x="726" d="M292 825 C292 773 331 744 376 744 C421 744 460 773 460 825 C460 877 421 906 376 906 C331 906 292 877 292 825 L292 825 Z M698 252 L552 252 C540 161 470 112 377 112 C275 112 185 190 185 346 C185 501 275 578 377 578 C465 578 541 532 552 438 L697 438 C685 607 546 700 380 700 C198 700 37 571 37 345 C37 114 191 -10 375 -10 C539 -10 681 85 698 252 L698 252 Z " />
<glyph glyph-name="cdotaccent" unicode="&#x10b;" horiz-adv-x="563" d="M206 658 C206 606 245 577 290 577 C335 577 374 606 374 658 C374 710 335 739 290 739 C245 739 206 710 206 658 L206 658 Z M292 -10 C433 -10 531 70 534 192 L397 192 C392 132 350 99 288 99 C223 99 176 148 176 253 C176 362 229 401 291 401 C351 401 389 368 395 308 L534 308 C530 428 430 510 292 510 C150 510 32 415 32 250 C32 85 141 -10 292 -10 L292 -10 Z " />
<glyph glyph-name="Ccaron" unicode="&#x10c;" horiz-adv-x="726" d="M322 754 L431 754 L552 874 L552 889 L432 889 L377 837 L321 889 L201 889 L201 874 L322 754 Z M552 252 C540 161 470 112 377 112 C275 112 185 190 185 346 C185 501 275 578 377 578 C465 578 541 532 552 438 L697 438 C685 607 546 700 380 700 C198 700 37 571 37 345 C37 114 191 -10 375 -10 C539 -10 681 85 698 252 L552 252 Z " />
<glyph glyph-name="ccaron" unicode="&#x10d;" horiz-adv-x="563" d="M243 575 L344 575 L469 715 L469 730 L355 730 L292 663 L228 730 L118 730 L118 715 L243 575 Z M288 99 C223 99 176 148 176 253 C176 362 229 401 291 401 C351 401 389 368 395 308 L534 308 C530 428 430 510 292 510 C150 510 32 415 32 250 C32 85 141 -10 292 -10 C433 -10 531 70 534 192 L397 192 C392 132 350 99 288 99 L288 99 Z " />
<glyph glyph-name="Dcaron" unicode="&#x10e;" horiz-adv-x="726" d="M285 754 L394 754 L515 874 L515 889 L395 889 L340 837 L284 889 L164 889 L164 874 L285 754 Z M362 690 L72 690 L72 0 L356 0 C552 0 688 128 688 348 C688 567 558 690 362 690 L362 690 Z M355 120 L214 120 L214 570 L355 570 C470 570 540 495 540 344 C540 194 470 120 355 120 L355 120 Z " />
<glyph glyph-name="dcaron" unicode="&#x10f;" horiz-adv-x="632" d="M687 760 C646 760 611 733 611 686 C611 659 624 639 641 627 L601 522 L601 508 L674 508 L743 627 C756 649 764 668 764 686 C764 733 728 760 687 760 L687 760 Z M553 750 L413 750 L413 446 C379 488 324 510 261 510 C145 510 34 435 34 251 C34 67 143 -10 257 -10 C327 -10 384 19 418 70 C419 47 422 23 430 0 L567 0 L567 12 C557 41 553 83 553 114 L553 750 Z M294 110 C242 110 179 145 179 250 C179 355 242 390 294 390 C347 390 399 355 413 297 L413 203 C399 145 347 110 294 110 L294 110 Z " />
<glyph glyph-name="Dcroat" unicode="&#x110;" horiz-adv-x="735" d="M371 690 L81 690 L81 404 L22 404 L22 288 L81 288 L81 0 L365 0 C561 0 697 128 697 348 C697 567 567 690 371 690 L371 690 Z M364 120 L223 120 L223 288 L349 288 L349 404 L223 404 L223 570 L364 570 C479 570 549 495 549 344 C549 194 479 120 364 120 L364 120 Z " />
<glyph glyph-name="dcroat" unicode="&#x111;" horiz-adv-x="615" d="M623 560 L623 676 L553 676 L553 750 L413 750 L413 676 L279 676 L279 560 L413 560 L413 446 C379 488 324 510 261 510 C145 510 34 435 34 251 C34 67 143 -10 257 -10 C327 -10 384 19 418 70 C419 47 422 23 430 0 L567 0 L567 12 C557 41 553 83 553 114 L553 560 L623 560 Z M294 110 C242 110 179 145 179 250 C179 355 242 390 294 390 C347 390 399 355 413 297 L413 203 C399 145 347 110 294 110 L294 110 Z " />
<glyph glyph-name="Emacron" unicode="&#x112;" horiz-adv-x="617" d="M501 863 L161 863 L161 763 L501 763 L501 863 Z M214 119 L214 295 L536 295 L536 411 L214 411 L214 571 L570 571 L570 690 L72 690 L72 0 L576 0 L576 119 L214 119 Z " />
<glyph glyph-name="emacron" unicode="&#x113;" horiz-adv-x="571" d="M457 693 L117 693 L117 593 L457 593 L457 693 Z M537 249 C537 420 439 510 293 510 C154 510 32 417 32 250 C32 80 139 -10 291 -10 C439 -10 524 65 529 163 L391 163 C389 122 351 95 292 95 C228 95 177 139 177 208 L537 208 L537 249 Z M291 402 C347 402 385 372 391 301 L182 301 C191 369 233 402 291 402 L291 402 Z " />
<glyph glyph-name="Ebreve" unicode="&#x114;" horiz-adv-x="617" d="M331 744 C425 744 481 796 485 887 L380 887 C378 849 357 832 331 832 C305 832 284 849 282 887 L177 887 C181 796 237 744 331 744 L331 744 Z M214 119 L214 295 L536 295 L536 411 L214 411 L214 571 L570 571 L570 690 L72 690 L72 0 L576 0 L576 119 L214 119 Z " />
<glyph glyph-name="ebreve" unicode="&#x115;" horiz-adv-x="571" d="M285 569 C385 569 442 625 442 730 L339 730 C337 681 315 659 285 659 C255 659 233 681 231 730 L128 730 C128 625 186 569 285 569 L285 569 Z M537 249 C537 420 439 510 293 510 C154 510 32 417 32 250 C32 80 139 -10 291 -10 C439 -10 524 65 529 163 L391 163 C389 122 351 95 292 95 C228 95 177 139 177 208 L537 208 L537 249 Z M291 402 C347 402 385 372 391 301 L182 301 C191 369 233 402 291 402 L291 402 Z " />
<glyph glyph-name="Edotaccent" unicode="&#x116;" horiz-adv-x="617" d="M331 744 C376 744 415 773 415 825 C415 877 376 906 331 906 C286 906 247 877 247 825 C247 773 286 744 331 744 L331 744 Z M214 119 L214 295 L536 295 L536 411 L214 411 L214 571 L570 571 L570 690 L72 690 L72 0 L576 0 L576 119 L214 119 Z " />
<glyph glyph-name="edotaccent" unicode="&#x117;" horiz-adv-x="571" d="M294 577 C339 577 378 606 378 658 C378 710 339 739 294 739 C249 739 210 710 210 658 C210 606 249 577 294 577 L294 577 Z M537 249 C537 420 439 510 293 510 C154 510 32 417 32 250 C32 80 139 -10 291 -10 C439 -10 524 65 529 163 L391 163 C389 122 351 95 292 95 C228 95 177 139 177 208 L537 208 L537 249 Z M291 402 C347 402 385 372 391 301 L182 301 C191 369 233 402 291 402 L291 402 Z " />
<glyph glyph-name="Eogonek" unicode="&#x118;" horiz-adv-x="617" d="M496 -106 C496 -69 529 -24 576 0 L576 119 L214 119 L214 295 L536 295 L536 411 L214 411 L214 571 L570 571 L570 690 L72 690 L72 0 L459 0 C416 -38 396 -79 396 -120 C396 -196 442 -257 581 -224 L581 -150 C529 -168 496 -145 496 -106 L496 -106 Z " />
<glyph glyph-name="eogonek" unicode="&#x119;" horiz-adv-x="571" d="M537 249 C537 420 439 510 293 510 C154 510 32 417 32 250 C32 89 129 -1 268 -9 C239 -42 225 -76 225 -110 C225 -186 271 -247 410 -214 L410 -140 C358 -158 325 -135 325 -96 C325 -61 354 -20 396 5 C479 32 525 91 529 163 L391 163 C389 122 351 95 292 95 C228 95 177 139 177 208 L537 208 L537 249 Z M291 402 C347 402 385 372 391 301 L182 301 C191 369 233 402 291 402 L291 402 Z " />
<glyph glyph-name="Ecaron" unicode="&#x11a;" horiz-adv-x="617" d="M277 754 L386 754 L507 874 L507 889 L387 889 L332 837 L276 889 L156 889 L156 874 L277 754 Z M214 119 L214 295 L536 295 L536 411 L214 411 L214 571 L570 571 L570 690 L72 690 L72 0 L576 0 L576 119 L214 119 Z " />
<glyph glyph-name="ecaron" unicode="&#x11b;" horiz-adv-x="571" d="M235 575 L336 575 L461 715 L461 730 L347 730 L284 663 L220 730 L110 730 L110 715 L235 575 Z M537 249 C537 420 439 510 293 510 C154 510 32 417 32 250 C32 80 139 -10 291 -10 C439 -10 524 65 529 163 L391 163 C389 122 351 95 292 95 C228 95 177 139 177 208 L537 208 L537 249 Z M291 402 C347 402 385 372 391 301 L182 301 C191 369 233 402 291 402 L291 402 Z " />
<glyph glyph-name="Gcircumflex" unicode="&#x11c;" horiz-adv-x="737" d="M369 806 L424 754 L544 754 L544 769 L423 889 L314 889 L193 769 L193 754 L313 754 L369 806 Z M688 359 L409 359 L409 255 L545 255 L545 145 C495 119 440 110 386 110 C271 110 185 186 185 344 C185 501 274 580 375 580 C467 580 533 536 541 444 L687 444 C677 609 546 700 378 700 C197 700 37 569 37 343 C37 112 177 -10 396 -10 C495 -10 608 24 688 83 L688 359 Z " />
<glyph glyph-name="gcircumflex" unicode="&#x11d;" horiz-adv-x="558" d="M275 642 L338 575 L452 575 L452 590 L327 730 L226 730 L101 590 L101 575 L211 575 L275 642 Z M374 68 L257 79 C232 81 221 90 221 106 C221 117 225 126 235 135 C242 134 250 134 257 134 C381 134 489 206 489 315 C489 346 481 376 465 399 C491 394 517 390 537 388 L537 500 L339 500 C315 507 288 510 261 510 C137 510 29 443 29 322 C29 241 74 185 140 157 C122 137 109 111 109 79 C109 11 156 -20 224 -26 L332 -35 C377 -39 400 -49 400 -78 C400 -106 358 -130 266 -130 C179 -130 146 -97 146 -49 L5 -49 C5 -157 92 -226 263 -226 C445 -226 542 -166 542 -70 C542 17 484 58 374 68 L374 68 Z M259 408 C310 408 351 379 351 321 C351 265 310 236 259 236 C208 236 167 265 167 323 C167 379 208 408 259 408 L259 408 Z " />
<glyph glyph-name="Gbreve" unicode="&#x11e;" horiz-adv-x="737" d="M369 744 C463 744 519 796 523 887 L418 887 C416 849 395 832 369 832 C343 832 322 849 320 887 L215 887 C219 796 275 744 369 744 L369 744 Z M688 359 L409 359 L409 255 L545 255 L545 145 C495 119 440 110 386 110 C271 110 185 186 185 344 C185 501 274 580 375 580 C467 580 533 536 541 444 L687 444 C677 609 546 700 378 700 C197 700 37 569 37 343 C37 112 177 -10 396 -10 C495 -10 608 24 688 83 L688 359 Z " />
<glyph glyph-name="gbreve" unicode="&#x11f;" horiz-adv-x="558" d="M276 569 C376 569 433 625 433 730 L330 730 C328 681 306 659 276 659 C246 659 224 681 222 730 L119 730 C119 625 177 569 276 569 L276 569 Z M374 68 L257 79 C232 81 221 90 221 106 C221 117 225 126 235 135 C242 134 250 134 257 134 C381 134 489 206 489 315 C489 346 481 376 465 399 C491 394 517 390 537 388 L537 500 L339 500 C315 507 288 510 261 510 C137 510 29 443 29 322 C29 241 74 185 140 157 C122 137 109 111 109 79 C109 11 156 -20 224 -26 L332 -35 C377 -39 400 -49 400 -78 C400 -106 358 -130 266 -130 C179 -130 146 -97 146 -49 L5 -49 C5 -157 92 -226 263 -226 C445 -226 542 -166 542 -70 C542 17 484 58 374 68 L374 68 Z M259 408 C310 408 351 379 351 321 C351 265 310 236 259 236 C208 236 167 265 167 323 C167 379 208 408 259 408 L259 408 Z " />
<glyph glyph-name="Gdotaccent" unicode="&#x120;" horiz-adv-x="737" d="M380 744 C425 744 464 773 464 825 C464 877 425 906 380 906 C335 906 296 877 296 825 C296 773 335 744 380 744 L380 744 Z M688 359 L409 359 L409 255 L545 255 L545 145 C495 119 440 110 386 110 C271 110 185 186 185 344 C185 501 274 580 375 580 C467 580 533 536 541 444 L687 444 C677 609 546 700 378 700 C197 700 37 569 37 343 C37 112 177 -10 396 -10 C495 -10 608 24 688 83 L688 359 Z " />
<glyph glyph-name="gdotaccent" unicode="&#x121;" horiz-adv-x="558" d="M276 577 C321 577 360 606 360 658 C360 710 321 739 276 739 C231 739 192 710 192 658 C192 606 231 577 276 577 L276 577 Z M374 68 L257 79 C232 81 221 90 221 106 C221 117 225 126 235 135 C242 134 250 134 257 134 C381 134 489 206 489 315 C489 346 481 376 465 399 C491 394 517 390 537 388 L537 500 L339 500 C315 507 288 510 261 510 C137 510 29 443 29 322 C29 241 74 185 140 157 C122 137 109 111 109 79 C109 11 156 -20 224 -26 L332 -35 C377 -39 400 -49 400 -78 C400 -106 358 -130 266 -130 C179 -130 146 -97 146 -49 L5 -49 C5 -157 92 -226 263 -226 C445 -226 542 -166 542 -70 C542 17 484 58 374 68 L374 68 Z M259 408 C310 408 351 379 351 321 C351 265 310 236 259 236 C208 236 167 265 167 323 C167 379 208 408 259 408 L259 408 Z " />
<glyph glyph-name="uni0122" unicode="&#x122;" horiz-adv-x="737" d="M688 359 L409 359 L409 255 L545 255 L545 145 C495 119 440 110 386 110 C271 110 185 186 185 344 C185 501 274 580 375 580 C467 580 533 536 541 444 L687 444 C677 609 546 700 378 700 C197 700 37 569 37 343 C37 112 177 -10 396 -10 C495 -10 608 24 688 83 L688 359 Z M400 -45 C359 -45 323 -72 323 -119 C323 -146 335 -166 352 -178 L306 -271 L306 -285 L385 -285 L448 -187 C462 -165 476 -138 476 -115 C476 -74 441 -45 400 -45 L400 -45 Z " />
<glyph glyph-name="uni0123" unicode="&#x123;" horiz-adv-x="558" d="M264 575 C305 575 340 602 340 649 C340 676 327 696 310 708 L350 813 L350 827 L277 827 L208 708 C195 686 187 667 187 649 C187 602 223 575 264 575 L264 575 Z M374 68 L257 79 C232 81 221 90 221 106 C221 117 225 126 235 135 C242 134 250 134 257 134 C381 134 489 206 489 315 C489 346 481 376 465 399 C491 394 517 390 537 388 L537 500 L339 500 C315 507 288 510 261 510 C137 510 29 443 29 322 C29 241 74 185 140 157 C122 137 109 111 109 79 C109 11 156 -20 224 -26 L332 -35 C377 -39 400 -49 400 -78 C400 -106 358 -130 266 -130 C179 -130 146 -97 146 -49 L5 -49 C5 -157 92 -226 263 -226 C445 -226 542 -166 542 -70 C542 17 484 58 374 68 L374 68 Z M259 408 C310 408 351 379 351 321 C351 265 310 236 259 236 C208 236 167 265 167 323 C167 379 208 408 259 408 L259 408 Z " />
<glyph glyph-name="Hcircumflex" unicode="&#x124;" horiz-adv-x="757" d="M380 806 L435 754 L555 754 L555 769 L434 889 L325 889 L204 769 L204 754 L324 754 L380 806 Z M543 690 L543 414 L214 414 L214 690 L72 690 L72 0 L214 0 L214 294 L543 294 L543 0 L685 0 L685 690 L543 690 Z " />
<glyph glyph-name="hcircumflex" unicode="&#x125;" horiz-adv-x="592" d="M133 866 L188 814 L308 814 L308 829 L187 949 L78 949 L-43 829 L-43 814 L77 814 L133 866 Z M352 510 C287 510 235 485 202 440 L202 750 L62 750 L62 0 L202 0 L202 297 C216 355 254 390 305 390 C359 390 395 362 395 295 L395 0 L535 0 L535 313 C535 430 474 510 352 510 L352 510 Z " />
<glyph glyph-name="Hbar" unicode="&#x126;" horiz-adv-x="798" d="M776 607 L705 607 L705 690 L563 690 L563 607 L234 607 L234 690 L92 690 L92 607 L22 607 L22 491 L92 491 L92 0 L234 0 L234 294 L563 294 L563 0 L705 0 L705 491 L776 491 L776 607 Z M563 414 L234 414 L234 491 L563 491 L563 414 Z " />
<glyph glyph-name="hbar" unicode="&#x127;" horiz-adv-x="592" d="M352 510 C287 510 235 485 202 440 L202 561 L336 561 L336 677 L202 677 L202 750 L62 750 L62 677 L-8 677 L-8 561 L62 561 L62 0 L202 0 L202 297 C216 355 254 390 305 390 C359 390 395 362 395 295 L395 0 L535 0 L535 313 C535 430 474 510 352 510 L352 510 Z " />
<glyph glyph-name="Itilde" unicode="&#x128;" horiz-adv-x="286" d="M-20 754 L72 754 C72 783 81 792 100 792 C132 792 166 752 220 752 C276 752 314 788 314 888 L222 888 C222 857 211 850 193 850 C167 850 129 890 74 890 C18 890 -20 853 -20 754 L-20 754 Z M72 0 L214 0 L214 690 L72 690 L72 0 Z " />
<glyph glyph-name="itilde" unicode="&#x129;" horiz-adv-x="264" d="M-38 583 L54 583 C54 617 63 627 82 627 C114 627 148 581 202 581 C258 581 296 620 296 729 L204 729 C204 693 193 685 175 685 C149 685 111 731 56 731 C0 731 -38 691 -38 583 L-38 583 Z M62 0 L202 0 L202 500 L62 500 L62 0 Z " />
<glyph glyph-name="Imacron" unicode="&#x12a;" horiz-adv-x="286" d="M2 863 L2 763 L283 763 L283 863 L2 863 Z M72 0 L214 0 L214 690 L72 690 L72 0 Z " />
<glyph glyph-name="imacron" unicode="&#x12b;" horiz-adv-x="264" d="M0 693 L0 593 L262 593 L262 693 L0 693 Z M62 0 L202 0 L202 500 L62 500 L62 0 Z " />
<glyph glyph-name="Ibreve" unicode="&#x12c;" horiz-adv-x="286" d="M143 832 C117 832 100 849 98 887 L-7 887 C-3 796 53 744 143 744 C233 744 289 796 293 887 L188 887 C186 849 169 832 143 832 L143 832 Z M72 0 L214 0 L214 690 L72 690 L72 0 Z " />
<glyph glyph-name="ibreve" unicode="&#x12d;" horiz-adv-x="264" d="M132 659 C103 659 84 681 82 730 L-21 730 C-21 625 37 569 132 569 C228 569 285 625 285 730 L182 730 C180 681 161 659 132 659 L132 659 Z M62 0 L202 0 L202 500 L62 500 L62 0 Z " />
<glyph glyph-name="Iogonek" unicode="&#x12e;" horiz-adv-x="286" d="M134 -106 C134 -69 167 -24 214 0 L214 690 L72 690 L72 0 L97 0 C54 -38 34 -79 34 -120 C34 -196 80 -257 219 -224 L219 -150 C167 -168 134 -145 134 -106 L134 -106 Z " />
<glyph glyph-name="iogonek" unicode="&#x12f;" horiz-adv-x="264" d="M131 577 C176 577 215 606 215 658 C215 710 176 739 131 739 C86 739 47 710 47 658 C47 606 86 577 131 577 L131 577 Z M122 -106 C122 -69 155 -24 202 0 L202 500 L62 500 L62 0 L85 0 C42 -38 22 -79 22 -120 C22 -196 68 -257 207 -224 L207 -150 C155 -168 122 -145 122 -106 L122 -106 Z " />
<glyph glyph-name="Idotaccent" unicode="&#x130;" horiz-adv-x="286" d="M59 825 C59 773 98 744 143 744 C188 744 227 773 227 825 C227 877 188 906 143 906 C98 906 59 877 59 825 L59 825 Z M72 0 L214 0 L214 690 L72 690 L72 0 Z " />
<glyph glyph-name="dotlessi" unicode="&#x131;" horiz-adv-x="264" d="M62 0 L202 0 L202 500 L62 500 L62 0 Z " />
<glyph glyph-name="IJ" unicode="&#x132;" horiz-adv-x="909" d="M72 0 L214 0 L214 690 L72 690 L72 0 Z M702 690 L702 278 C702 159 659 112 580 112 C511 112 455 150 455 264 L314 264 C314 77 429 -10 580 -10 C722 -10 844 74 844 267 L844 690 L702 690 Z " />
<glyph glyph-name="ij" unicode="&#x133;" horiz-adv-x="540" d="M41 658 C41 606 80 577 132 577 C184 577 223 606 223 658 C223 710 184 739 132 739 C80 739 41 710 41 658 L41 658 Z M316 658 C316 606 355 577 407 577 C459 577 498 606 498 658 C498 710 459 739 407 739 C355 739 316 710 316 658 L316 658 Z M62 0 L202 0 L202 500 L62 500 L62 0 Z M478 -57 L478 500 L338 500 L338 -42 C338 -86 316 -104 282 -104 C263 -104 238 -102 222 -98 L222 -214 C248 -220 278 -224 306 -224 C411 -224 478 -176 478 -57 L478 -57 Z " />
<glyph glyph-name="Jcircumflex" unicode="&#x134;" horiz-adv-x="612" d="M532 889 L423 889 L302 769 L302 754 L422 754 L478 806 L533 754 L653 754 L653 769 L532 889 Z M405 278 C405 159 362 112 283 112 C214 112 158 150 158 264 L17 264 C17 77 132 -10 283 -10 C425 -10 547 74 547 267 L547 690 L405 690 L405 278 Z " />
<glyph glyph-name="jcircumflex" unicode="&#x135;" horiz-adv-x="272" d="M201 730 L80 730 L-13 590 L-13 575 L94 575 L141 645 L187 575 L294 575 L294 590 L201 730 Z M70 -42 C70 -86 48 -104 14 -104 C-5 -104 -30 -102 -46 -98 L-46 -214 C-20 -220 10 -224 38 -224 C143 -224 210 -176 210 -57 L210 500 L70 500 L70 -42 Z " />
<glyph glyph-name="uni0136" unicode="&#x136;" horiz-adv-x="695" d="M366 360 L698 690 L524 690 L214 374 L214 690 L72 690 L72 0 L214 0 L214 332 L523 0 L708 0 L366 360 Z M372 -45 C331 -45 295 -72 295 -119 C295 -146 307 -166 324 -178 L278 -271 L278 -285 L357 -285 L420 -187 C434 -165 448 -138 448 -115 C448 -74 413 -45 372 -45 L372 -45 Z " />
<glyph glyph-name="uni0137" unicode="&#x137;" horiz-adv-x="554" d="M348 270 L554 500 L384 500 L202 291 L202 750 L62 750 L62 0 L202 0 L202 242 L391 0 L562 0 L348 270 Z M283 -45 C242 -45 206 -72 206 -119 C206 -146 218 -166 235 -178 L189 -271 L189 -285 L268 -285 L331 -187 C345 -165 359 -138 359 -115 C359 -74 324 -45 283 -45 L283 -45 Z " />
<glyph glyph-name="kgreenlandic" unicode="&#x138;" horiz-adv-x="554" d="M562 0 L347 262 L554 500 L384 500 L202 283 L202 500 L62 500 L62 0 L202 0 L202 234 L391 0 L562 0 Z " />
<glyph glyph-name="Lacute" unicode="&#x139;" horiz-adv-x="576" d="M343 874 L343 889 L197 889 L78 769 L78 754 L195 754 L343 874 Z M214 120 L214 690 L72 690 L72 0 L564 0 L564 120 L214 120 Z " />
<glyph glyph-name="lacute" unicode="&#x13a;" horiz-adv-x="264" d="M337 949 L191 949 L72 829 L72 814 L189 814 L337 934 L337 949 Z M62 0 L202 0 L202 750 L62 750 L62 0 Z " />
<glyph glyph-name="uni013B" unicode="&#x13b;" horiz-adv-x="576" d="M214 120 L214 690 L72 690 L72 0 L564 0 L564 120 L214 120 Z M320 -45 C279 -45 243 -72 243 -119 C243 -146 255 -166 272 -178 L226 -271 L226 -285 L305 -285 L368 -187 C382 -165 396 -138 396 -115 C396 -74 361 -45 320 -45 L320 -45 Z " />
<glyph glyph-name="uni013C" unicode="&#x13c;" horiz-adv-x="264" d="M62 0 L202 0 L202 750 L62 750 L62 0 Z M208 -115 C208 -74 173 -45 132 -45 C91 -45 55 -72 55 -119 C55 -146 67 -166 84 -178 L38 -271 L38 -285 L117 -285 L180 -187 C194 -165 208 -138 208 -115 L208 -115 Z " />
<glyph glyph-name="Lcaron" unicode="&#x13d;" horiz-adv-x="577" d="M483 569 C496 591 504 610 504 628 C504 675 468 702 427 702 C386 702 351 675 351 628 C351 601 364 581 381 569 L341 464 L341 450 L414 450 L483 569 Z M214 120 L214 690 L72 690 L72 0 L564 0 L564 120 L214 120 Z " />
<glyph glyph-name="lcaron" unicode="&#x13e;" horiz-adv-x="280" d="M413 686 C413 733 377 760 336 760 C295 760 260 733 260 686 C260 659 273 639 290 627 L250 522 L250 508 L323 508 L392 627 C405 649 413 668 413 686 L413 686 Z M62 0 L202 0 L202 750 L62 750 L62 0 Z " />
<glyph glyph-name="Ldot" unicode="&#x13f;" horiz-adv-x="576" d="M214 120 L214 690 L72 690 L72 0 L564 0 L564 120 L214 120 Z M428 309 C473 309 512 338 512 390 C512 442 473 471 428 471 C383 471 344 442 344 390 C344 338 383 309 428 309 L428 309 Z " />
<glyph glyph-name="ldot" unicode="&#x140;" horiz-adv-x="390" d="M62 0 L202 0 L202 750 L62 750 L62 0 Z M243 353 C243 301 282 272 327 272 C372 272 411 301 411 353 C411 405 372 434 327 434 C282 434 243 405 243 353 L243 353 Z " />
<glyph glyph-name="Lslash" unicode="&#x141;" horiz-adv-x="630" d="M268 120 L268 331 L398 393 L351 493 L268 453 L268 690 L126 690 L126 385 L29 339 L76 239 L126 263 L126 0 L618 0 L618 120 L268 120 Z " />
<glyph glyph-name="lslash" unicode="&#x142;" horiz-adv-x="352" d="M339 392 L292 492 L247 471 L247 750 L107 750 L107 404 L17 361 L64 261 L107 281 L107 0 L247 0 L247 348 L339 392 Z " />
<glyph glyph-name="Nacute" unicode="&#x143;" horiz-adv-x="760" d="M582 889 L436 889 L317 769 L317 754 L434 754 L582 874 L582 889 Z M554 690 L558 287 C558 252 561 199 565 153 C542 194 516 241 496 275 L246 690 L72 690 L72 0 L206 0 L202 401 C202 443 200 493 197 536 C218 497 242 452 262 420 L515 0 L688 0 L688 690 L554 690 Z " />
<glyph glyph-name="nacute" unicode="&#x144;" horiz-adv-x="600" d="M496 715 L496 730 L350 730 L231 590 L231 575 L348 575 L496 715 Z M359 510 C286 510 231 483 198 434 L198 500 L62 500 L62 0 L202 0 L202 297 C217 355 259 391 315 391 C369 391 403 362 403 295 L403 0 L543 0 L543 314 C543 431 484 510 359 510 L359 510 Z " />
<glyph glyph-name="uni0145" unicode="&#x145;" horiz-adv-x="760" d="M554 690 L558 287 C558 252 561 199 565 153 C542 194 516 241 496 275 L246 690 L72 690 L72 0 L206 0 L202 401 C202 443 200 493 197 536 C218 497 242 452 262 420 L515 0 L688 0 L688 690 L554 690 Z M453 -115 C453 -74 418 -45 377 -45 C336 -45 300 -72 300 -119 C300 -146 312 -166 329 -178 L283 -271 L283 -285 L362 -285 L425 -187 C439 -165 453 -138 453 -115 L453 -115 Z " />
<glyph glyph-name="uni0146" unicode="&#x146;" horiz-adv-x="600" d="M359 510 C286 510 231 483 198 434 L198 500 L62 500 L62 0 L202 0 L202 297 C217 355 259 391 315 391 C369 391 403 362 403 295 L403 0 L543 0 L543 314 C543 431 484 510 359 510 L359 510 Z M297 -45 C256 -45 220 -72 220 -119 C220 -146 232 -166 249 -178 L203 -271 L203 -285 L282 -285 L345 -187 C359 -165 373 -138 373 -115 C373 -74 338 -45 297 -45 L297 -45 Z " />
<glyph glyph-name="Ncaron" unicode="&#x147;" horiz-adv-x="760" d="M323 754 L432 754 L553 874 L553 889 L433 889 L378 837 L322 889 L202 889 L202 874 L323 754 Z M554 690 L558 287 C558 252 561 199 565 153 C542 194 516 241 496 275 L246 690 L72 690 L72 0 L206 0 L202 401 C202 443 200 493 197 536 C218 497 242 452 262 420 L515 0 L688 0 L688 690 L554 690 Z " />
<glyph glyph-name="ncaron" unicode="&#x148;" horiz-adv-x="600" d="M255 575 L356 575 L481 715 L481 730 L367 730 L304 663 L240 730 L130 730 L130 715 L255 575 Z M359 510 C286 510 231 483 198 434 L198 500 L62 500 L62 0 L202 0 L202 297 C217 355 259 391 315 391 C369 391 403 362 403 295 L403 0 L543 0 L543 314 C543 431 484 510 359 510 L359 510 Z " />
<glyph glyph-name="napostrophe" unicode="&#x149;" horiz-adv-x="675" d="M178 686 C178 733 142 760 101 760 C60 760 25 733 25 686 C25 659 38 639 55 627 L15 522 L15 508 L88 508 L157 627 C170 649 178 668 178 686 L178 686 Z M434 510 C361 510 306 483 273 434 L273 500 L137 500 L137 0 L277 0 L277 297 C292 355 334 391 390 391 C444 391 478 362 478 295 L478 0 L618 0 L618 314 C618 431 559 510 434 510 L434 510 Z " />
<glyph glyph-name="Eng" unicode="&#x14a;" horiz-adv-x="760" d="M554 690 L558 287 C558 252 561 199 565 153 C542 194 516 241 496 275 L246 690 L72 690 L72 0 L206 0 L202 401 C202 443 200 493 197 536 C218 497 242 452 262 420 L515 0 L548 0 L548 -42 C548 -86 526 -104 492 -104 C473 -104 448 -102 432 -98 L432 -214 C458 -220 488 -224 516 -224 C621 -224 688 -176 688 -57 L688 690 L554 690 Z " />
<glyph glyph-name="eng" unicode="&#x14b;" horiz-adv-x="600" d="M359 510 C286 510 231 483 198 434 L198 500 L62 500 L62 0 L202 0 L202 297 C217 355 259 391 315 391 C369 391 403 362 403 295 L403 -42 C403 -86 381 -104 347 -104 C328 -104 303 -102 287 -98 L287 -214 C313 -220 343 -224 371 -224 C476 -224 543 -176 543 -57 L543 314 C543 431 484 510 359 510 L359 510 Z " />
<glyph glyph-name="Omacron" unicode="&#x14c;" horiz-adv-x="781" d="M221 863 L221 763 L561 763 L561 863 L221 863 Z M745 348 C745 573 590 700 393 700 C198 700 36 571 36 345 C36 114 191 -10 388 -10 C584 -10 745 122 745 348 L745 348 Z M597 344 C597 189 504 112 391 112 C278 112 184 190 184 346 C184 501 278 578 391 578 C504 578 597 500 597 344 L597 344 Z " />
<glyph glyph-name="omacron" unicode="&#x14d;" horiz-adv-x="598" d="M131 693 L131 593 L471 593 L471 693 L131 693 Z M566 252 C566 417 445 510 301 510 C158 510 32 415 32 250 C32 81 153 -10 297 -10 C440 -10 566 87 566 252 L566 252 Z M422 249 C422 156 365 110 299 110 C233 110 176 157 176 251 C176 344 233 390 299 390 C365 390 422 343 422 249 L422 249 Z " />
<glyph glyph-name="Obreve" unicode="&#x14e;" horiz-adv-x="781" d="M392 832 C418 832 439 849 441 887 L546 887 C542 796 486 744 392 744 C298 744 242 796 238 887 L343 887 C345 849 366 832 392 832 L392 832 Z M745 348 C745 573 590 700 393 700 C198 700 36 571 36 345 C36 114 191 -10 388 -10 C584 -10 745 122 745 348 L745 348 Z M597 344 C597 189 504 112 391 112 C278 112 184 190 184 346 C184 501 278 578 391 578 C504 578 597 500 597 344 L597 344 Z " />
<glyph glyph-name="obreve" unicode="&#x14f;" horiz-adv-x="598" d="M303 659 C333 659 355 681 357 730 L460 730 C460 625 403 569 303 569 C204 569 146 625 146 730 L249 730 C251 681 273 659 303 659 L303 659 Z M566 252 C566 417 445 510 301 510 C158 510 32 415 32 250 C32 81 153 -10 297 -10 C440 -10 566 87 566 252 L566 252 Z M422 249 C422 156 365 110 299 110 C233 110 176 157 176 251 C176 344 233 390 299 390 C365 390 422 343 422 249 L422 249 Z " />
<glyph glyph-name="Ohungarumlaut" unicode="&#x150;" horiz-adv-x="781" d="M473 895 L365 895 L256 769 L256 754 L338 754 L473 880 L473 895 Z M647 895 L538 895 L429 769 L429 754 L512 754 L647 880 L647 895 Z M745 348 C745 573 590 700 393 700 C198 700 36 571 36 345 C36 114 191 -10 388 -10 C584 -10 745 122 745 348 L745 348 Z M597 344 C597 189 504 112 391 112 C278 112 184 190 184 346 C184 501 278 578 391 578 C504 578 597 500 597 344 L597 344 Z " />
<glyph glyph-name="ohungarumlaut" unicode="&#x151;" horiz-adv-x="598" d="M391 742 L283 742 L174 590 L174 575 L256 575 L391 727 L391 742 Z M565 742 L456 742 L347 590 L347 575 L430 575 L565 727 L565 742 Z M566 252 C566 417 445 510 301 510 C158 510 32 415 32 250 C32 81 153 -10 297 -10 C440 -10 566 87 566 252 L566 252 Z M422 249 C422 156 365 110 299 110 C233 110 176 157 176 251 C176 344 233 390 299 390 C365 390 422 343 422 249 L422 249 Z " />
<glyph glyph-name="OE" unicode="&#x152;" horiz-adv-x="1127" d="M724 119 L724 295 L1046 295 L1046 411 L724 411 L724 571 L1080 571 L1080 690 L582 690 L582 630 C533 675 468 700 386 700 C195 700 37 571 37 345 C37 114 188 -10 381 -10 C464 -10 532 17 582 65 L582 0 L1086 0 L1086 119 L724 119 Z M384 112 C275 112 185 190 185 346 C185 501 275 578 384 578 C493 578 582 510 582 344 C582 179 493 112 384 112 L384 112 Z " />
<glyph glyph-name="oe" unicode="&#x153;" horiz-adv-x="963" d="M928 256 C928 420 833 510 686 510 C605 510 537 477 493 420 C448 477 379 510 301 510 C158 510 32 415 32 250 C32 81 153 -10 297 -10 C373 -10 443 21 489 78 C532 20 601 -10 688 -10 C835 -10 919 65 924 163 L785 163 C783 122 743 95 681 95 C618 95 567 139 567 208 L928 208 L928 256 Z M681 402 C737 402 775 372 781 301 L572 301 C581 369 623 402 681 402 L681 402 Z M299 110 C233 110 176 157 176 251 C176 344 233 390 299 390 C365 390 422 343 422 249 C422 156 365 110 299 110 L299 110 Z " />
<glyph glyph-name="Racute" unicode="&#x154;" horiz-adv-x="698" d="M553 874 L553 889 L407 889 L288 769 L288 754 L405 754 L553 874 Z M632 121 L613 200 C599 257 571 298 525 320 C598 352 646 414 646 489 C646 616 555 690 381 690 L72 690 L72 0 L214 0 L214 264 L342 264 C432 264 457 230 469 184 L496 81 C502 58 513 27 530 0 L672 0 L672 12 C656 42 639 90 632 121 L632 121 Z M214 378 L214 572 L369 572 C450 572 499 550 499 479 C499 406 447 378 359 378 L214 378 Z " />
<glyph glyph-name="racute" unicode="&#x155;" horiz-adv-x="380" d="M245 730 L126 590 L126 575 L243 575 L391 715 L391 730 L245 730 Z M198 429 L198 500 L62 500 L62 0 L202 0 L202 273 C220 344 262 377 311 377 C328 377 347 376 365 373 L365 508 C355 510 341 510 331 510 C276 510 229 481 198 429 L198 429 Z " />
<glyph glyph-name="uni0156" unicode="&#x156;" horiz-adv-x="698" d="M632 121 L613 200 C599 257 571 298 525 320 C598 352 646 414 646 489 C646 616 555 690 381 690 L72 690 L72 0 L214 0 L214 264 L342 264 C432 264 457 230 469 184 L496 81 C502 58 513 27 530 0 L672 0 L672 12 C656 42 639 90 632 121 L632 121 Z M214 378 L214 572 L369 572 C450 572 499 550 499 479 C499 406 447 378 359 378 L214 378 Z M378 -45 C337 -45 301 -72 301 -119 C301 -146 313 -166 330 -178 L284 -271 L284 -285 L363 -285 L426 -187 C440 -165 454 -138 454 -115 C454 -74 419 -45 378 -45 L378 -45 Z " />
<glyph glyph-name="uni0157" unicode="&#x157;" horiz-adv-x="380" d="M331 510 C276 510 229 481 198 429 L198 500 L62 500 L62 0 L202 0 L202 273 C220 344 262 377 311 377 C328 377 347 376 365 373 L365 508 C355 510 341 510 331 510 L331 510 Z M132 -45 C91 -45 55 -72 55 -119 C55 -146 67 -166 84 -178 L38 -271 L38 -285 L117 -285 L180 -187 C194 -165 208 -138 208 -115 C208 -74 173 -45 132 -45 L132 -45 Z " />
<glyph glyph-name="Rcaron" unicode="&#x158;" horiz-adv-x="698" d="M294 754 L403 754 L524 874 L524 889 L404 889 L349 837 L293 889 L173 889 L173 874 L294 754 Z M632 121 L613 200 C599 257 571 298 525 320 C598 352 646 414 646 489 C646 616 555 690 381 690 L72 690 L72 0 L214 0 L214 264 L342 264 C432 264 457 230 469 184 L496 81 C502 58 513 27 530 0 L672 0 L672 12 C656 42 639 90 632 121 L632 121 Z M214 378 L214 572 L369 572 C450 572 499 550 499 479 C499 406 447 378 359 378 L214 378 Z " />
<glyph glyph-name="rcaron" unicode="&#x159;" horiz-adv-x="380" d="M268 730 L215 656 L161 730 L51 730 L51 715 L169 575 L254 575 L368 715 L368 730 L268 730 Z M198 429 L198 500 L62 500 L62 0 L202 0 L202 273 C220 344 262 377 311 377 C328 377 347 376 365 373 L365 508 C355 510 341 510 331 510 C276 510 229 481 198 429 L198 429 Z " />
<glyph glyph-name="Sacute" unicode="&#x15a;" horiz-adv-x="672" d="M538 889 L392 889 L273 769 L273 754 L390 754 L538 874 L538 889 Z M419 405 L306 422 C238 432 195 452 195 501 C195 546 231 583 330 584 C421 585 478 545 478 476 L619 476 C619 612 523 700 328 700 C135 700 49 609 49 495 C49 387 120 312 272 291 L383 275 C441 267 490 252 490 192 C490 142 442 107 333 106 C228 105 172 150 172 216 L28 216 C28 76 128 -10 337 -10 C542 -10 637 78 637 202 C637 333 554 385 419 405 L419 405 Z " />
<glyph glyph-name="sacute" unicode="&#x15b;" horiz-adv-x="525" d="M456 730 L310 730 L191 590 L191 575 L308 575 L456 715 L456 730 Z M331 300 L237 314 C193 321 177 333 177 357 C177 386 200 408 258 409 C315 410 346 380 346 334 L481 334 C481 435 413 510 260 510 C110 510 44 436 44 354 C44 269 96 215 201 201 L294 189 C335 184 355 168 355 141 C355 110 325 92 263 91 C196 90 166 124 166 167 L28 167 C28 63 97 -10 264 -10 C420 -10 493 64 493 152 C493 234 444 283 331 300 L331 300 Z " />
<glyph glyph-name="Scircumflex" unicode="&#x15c;" horiz-adv-x="672" d="M334 806 L389 754 L509 754 L509 769 L388 889 L279 889 L158 769 L158 754 L278 754 L334 806 Z M419 405 L306 422 C238 432 195 452 195 501 C195 546 231 583 330 584 C421 585 478 545 478 476 L619 476 C619 612 523 700 328 700 C135 700 49 609 49 495 C49 387 120 312 272 291 L383 275 C441 267 490 252 490 192 C490 142 442 107 333 106 C228 105 172 150 172 216 L28 216 C28 76 128 -10 337 -10 C542 -10 637 78 637 202 C637 333 554 385 419 405 L419 405 Z " />
<glyph glyph-name="scircumflex" unicode="&#x15d;" horiz-adv-x="525" d="M255 642 L318 575 L432 575 L432 590 L307 730 L206 730 L81 590 L81 575 L191 575 L255 642 Z M331 300 L237 314 C193 321 177 333 177 357 C177 386 200 408 258 409 C315 410 346 380 346 334 L481 334 C481 435 413 510 260 510 C110 510 44 436 44 354 C44 269 96 215 201 201 L294 189 C335 184 355 168 355 141 C355 110 325 92 263 91 C196 90 166 124 166 167 L28 167 C28 63 97 -10 264 -10 C420 -10 493 64 493 152 C493 234 444 283 331 300 L331 300 Z " />
<glyph glyph-name="Scedilla" unicode="&#x15e;" horiz-adv-x="672" d="M637 202 C637 333 554 385 419 405 L306 422 C238 432 195 452 195 501 C195 546 231 583 330 584 C421 585 478 545 478 476 L619 476 C619 612 523 700 328 700 C135 700 49 609 49 495 C49 387 120 312 272 291 L383 275 C441 267 490 252 490 192 C490 142 442 107 333 106 C228 105 172 150 172 216 L28 216 C28 85 115 2 297 -9 L274 -72 L333 -104 C338 -102 345 -101 352 -101 C374 -101 387 -112 387 -131 C387 -153 367 -161 345 -161 C323 -161 304 -151 304 -136 L217 -136 C217 -177 246 -224 344 -224 C436 -224 474 -186 474 -126 C474 -72 430 -44 380 -40 L391 -8 C559 7 637 89 637 202 L637 202 Z " />
<glyph glyph-name="scedilla" unicode="&#x15f;" horiz-adv-x="525" d="M493 152 C493 234 444 283 331 300 L237 314 C193 321 177 333 177 357 C177 386 200 408 258 409 C315 410 346 380 346 334 L481 334 C481 435 413 510 260 510 C110 510 44 436 44 354 C44 269 96 215 201 201 L294 189 C335 184 355 168 355 141 C355 110 325 92 263 91 C196 90 166 124 166 167 L28 167 C28 76 81 8 207 -7 L183 -72 L242 -104 C247 -102 254 -101 261 -101 C283 -101 296 -112 296 -131 C296 -153 276 -161 254 -161 C232 -161 213 -151 213 -136 L126 -136 C126 -177 155 -224 253 -224 C345 -224 383 -186 383 -126 C383 -72 339 -44 289 -40 L300 -9 C431 2 493 71 493 152 L493 152 Z " />
<glyph glyph-name="Scaron" unicode="&#x160;" horiz-adv-x="672" d="M279 754 L388 754 L509 874 L509 889 L389 889 L334 837 L278 889 L158 889 L158 874 L279 754 Z M419 405 L306 422 C238 432 195 452 195 501 C195 546 231 583 330 584 C421 585 478 545 478 476 L619 476 C619 612 523 700 328 700 C135 700 49 609 49 495 C49 387 120 312 272 291 L383 275 C441 267 490 252 490 192 C490 142 442 107 333 106 C228 105 172 150 172 216 L28 216 C28 76 128 -10 337 -10 C542 -10 637 78 637 202 C637 333 554 385 419 405 L419 405 Z " />
<glyph glyph-name="scaron" unicode="&#x161;" horiz-adv-x="525" d="M206 575 L307 575 L432 715 L432 730 L318 730 L255 663 L191 730 L81 730 L81 715 L206 575 Z M331 300 L237 314 C193 321 177 333 177 357 C177 386 200 408 258 409 C315 410 346 380 346 334 L481 334 C481 435 413 510 260 510 C110 510 44 436 44 354 C44 269 96 215 201 201 L294 189 C335 184 355 168 355 141 C355 110 325 92 263 91 C196 90 166 124 166 167 L28 167 C28 63 97 -10 264 -10 C420 -10 493 64 493 152 C493 234 444 283 331 300 L331 300 Z " />
<glyph glyph-name="uni0162" unicode="&#x162;" horiz-adv-x="635" d="M389 0 L389 570 L625 570 L625 690 L10 690 L10 570 L246 570 L246 0 L270 0 L243 -72 L302 -104 C307 -102 314 -101 321 -101 C343 -101 356 -112 356 -131 C356 -153 336 -161 314 -161 C292 -161 273 -151 273 -136 L186 -136 C186 -177 215 -224 313 -224 C405 -224 443 -186 443 -126 C443 -72 399 -44 349 -40 L363 0 L389 0 Z " />
<glyph glyph-name="uni0163" unicode="&#x163;" horiz-adv-x="392" d="M372 1 L372 117 C351 112 323 110 293 110 C255 110 230 131 230 182 L230 384 L366 384 L366 500 L230 500 L230 648 L90 648 L90 500 L23 500 L23 384 L90 384 L90 175 C90 75 130 23 189 1 L162 -72 L221 -104 C226 -102 233 -101 240 -101 C262 -101 275 -112 275 -131 C275 -153 255 -161 233 -161 C211 -161 192 -151 192 -136 L105 -136 C105 -177 134 -224 232 -224 C324 -224 362 -186 362 -126 C362 -72 318 -44 268 -40 L278 -10 C316 -9 345 -5 372 1 L372 1 Z " />
<glyph glyph-name="Tcaron" unicode="&#x164;" horiz-adv-x="635" d="M263 754 L372 754 L493 874 L493 889 L373 889 L318 837 L262 889 L142 889 L142 874 L263 754 Z M625 690 L10 690 L10 570 L246 570 L246 0 L389 0 L389 570 L625 570 L625 690 Z " />
<glyph glyph-name="tcaron" unicode="&#x165;" horiz-adv-x="392" d="M378 787 C337 787 302 760 302 713 C302 686 315 666 332 654 L292 549 L292 535 L365 535 L434 654 C447 676 455 695 455 713 C455 760 419 787 378 787 L378 787 Z M230 182 L230 384 L366 384 L366 500 L230 500 L230 648 L90 648 L90 500 L23 500 L23 384 L90 384 L90 175 C90 38 166 -10 261 -10 C308 -10 341 -6 372 1 L372 117 C351 112 323 110 293 110 C255 110 230 131 230 182 L230 182 Z " />
<glyph glyph-name="Tbar" unicode="&#x166;" horiz-adv-x="635" d="M625 570 L625 690 L10 690 L10 570 L246 570 L246 404 L99 404 L99 288 L246 288 L246 0 L389 0 L389 288 L536 288 L536 404 L389 404 L389 570 L625 570 Z " />
<glyph glyph-name="tbar" unicode="&#x167;" horiz-adv-x="392" d="M293 110 C255 110 230 131 230 182 L230 204 L362 204 L362 314 L230 314 L230 384 L366 384 L366 500 L230 500 L230 648 L90 648 L90 500 L23 500 L23 384 L90 384 L90 314 L28 314 L28 204 L90 204 L90 175 C90 38 166 -10 261 -10 C308 -10 341 -6 372 1 L372 117 C351 112 323 110 293 110 L293 110 Z " />
<glyph glyph-name="Utilde" unicode="&#x168;" horiz-adv-x="734" d="M175 754 L267 754 C267 785 281 802 306 802 C347 802 386 750 450 750 C511 750 567 782 567 888 L475 888 C475 855 459 840 435 840 C402 840 363 892 292 892 C231 892 175 859 175 754 L175 754 Z M670 295 L670 690 L528 690 L528 305 C528 160 452 112 367 112 C282 112 206 161 206 307 L206 690 L64 690 L64 292 C64 76 201 -10 364 -10 C527 -10 670 84 670 295 L670 295 Z " />
<glyph glyph-name="utilde" unicode="&#x169;" horiz-adv-x="595" d="M232 637 C269 637 310 577 370 577 C431 577 483 612 483 732 L393 732 C393 698 379 679 355 679 C326 679 286 739 218 739 C157 739 105 704 105 583 L195 583 C195 622 207 637 232 637 L232 637 Z M533 114 L533 500 L393 500 L393 199 C377 144 329 110 279 110 C227 110 197 136 197 197 L197 500 L57 500 L57 174 C57 59 119 -10 231 -10 C305 -10 363 20 397 71 C399 47 402 23 410 0 L547 0 L547 12 C537 41 533 83 533 114 L533 114 Z " />
<glyph glyph-name="Umacron" unicode="&#x16a;" horiz-adv-x="734" d="M197 863 L197 763 L537 763 L537 863 L197 863 Z M670 295 L670 690 L528 690 L528 305 C528 160 452 112 367 112 C282 112 206 161 206 307 L206 690 L64 690 L64 292 C64 76 201 -10 364 -10 C527 -10 670 84 670 295 L670 295 Z " />
<glyph glyph-name="umacron" unicode="&#x16b;" horiz-adv-x="595" d="M466 693 L126 693 L126 593 L466 593 L466 693 Z M533 114 L533 500 L393 500 L393 199 C377 144 329 110 279 110 C227 110 197 136 197 197 L197 500 L57 500 L57 174 C57 59 119 -10 231 -10 C305 -10 363 20 397 71 C399 47 402 23 410 0 L547 0 L547 12 C537 41 533 83 533 114 L533 114 Z " />
<glyph glyph-name="Ubreve" unicode="&#x16c;" horiz-adv-x="734" d="M367 832 C393 832 414 849 416 887 L521 887 C517 796 461 744 367 744 C273 744 217 796 213 887 L318 887 C320 849 341 832 367 832 L367 832 Z M670 295 L670 690 L528 690 L528 305 C528 160 452 112 367 112 C282 112 206 161 206 307 L206 690 L64 690 L64 292 C64 76 201 -10 364 -10 C527 -10 670 84 670 295 L670 295 Z " />
<glyph glyph-name="ubreve" unicode="&#x16d;" horiz-adv-x="595" d="M296 569 C396 569 453 625 453 730 L350 730 C348 681 326 659 296 659 C266 659 244 681 242 730 L139 730 C139 625 197 569 296 569 L296 569 Z M533 114 L533 500 L393 500 L393 199 C377 144 329 110 279 110 C227 110 197 136 197 197 L197 500 L57 500 L57 174 C57 59 119 -10 231 -10 C305 -10 363 20 397 71 C399 47 402 23 410 0 L547 0 L547 12 C537 41 533 83 533 114 L533 114 Z " />
<glyph glyph-name="Uring" unicode="&#x16e;" horiz-adv-x="734" d="M368 734 C455 734 503 787 503 860 C503 933 455 985 368 985 C280 985 232 933 232 860 C232 787 280 734 368 734 L368 734 Z M368 813 C340 813 324 833 324 860 C324 887 340 906 368 906 C395 906 411 887 411 860 C411 833 395 813 368 813 L368 813 Z M670 295 L670 690 L528 690 L528 305 C528 160 452 112 367 112 C282 112 206 161 206 307 L206 690 L64 690 L64 292 C64 76 201 -10 364 -10 C527 -10 670 84 670 295 L670 295 Z " />
<glyph glyph-name="uring" unicode="&#x16f;" horiz-adv-x="595" d="M296 548 C383 548 431 601 431 674 C431 747 383 799 296 799 C208 799 160 747 160 674 C160 601 208 548 296 548 L296 548 Z M296 720 C323 720 339 701 339 674 C339 647 323 627 296 627 C268 627 252 647 252 674 C252 701 268 720 296 720 L296 720 Z M533 114 L533 500 L393 500 L393 199 C377 144 329 110 279 110 C227 110 197 136 197 197 L197 500 L57 500 L57 174 C57 59 119 -10 231 -10 C305 -10 363 20 397 71 C399 47 402 23 410 0 L547 0 L547 12 C537 41 533 83 533 114 L533 114 Z " />
<glyph glyph-name="Uhungarumlaut" unicode="&#x170;" horiz-adv-x="734" d="M449 895 L341 895 L232 769 L232 754 L314 754 L449 880 L449 895 Z M623 895 L514 895 L405 769 L405 754 L488 754 L623 880 L623 895 Z M670 295 L670 690 L528 690 L528 305 C528 160 452 112 367 112 C282 112 206 161 206 307 L206 690 L64 690 L64 292 C64 76 201 -10 364 -10 C527 -10 670 84 670 295 L670 295 Z " />
<glyph glyph-name="uhungarumlaut" unicode="&#x171;" horiz-adv-x="595" d="M388 727 L388 742 L280 742 L171 590 L171 575 L253 575 L388 727 Z M453 742 L344 590 L344 575 L427 575 L562 727 L562 742 L453 742 Z M533 500 L393 500 L393 199 C377 144 329 110 279 110 C227 110 197 136 197 197 L197 500 L57 500 L57 174 C57 59 119 -10 231 -10 C305 -10 363 20 397 71 C399 47 402 23 410 0 L547 0 L547 12 C537 41 533 83 533 114 L533 500 Z " />
<glyph glyph-name="Uogonek" unicode="&#x172;" horiz-adv-x="734" d="M528 690 L528 305 C528 160 452 112 367 112 C282 112 206 161 206 307 L206 690 L64 690 L64 292 C64 83 192 -4 348 -10 C319 -42 305 -76 305 -110 C305 -186 351 -247 490 -214 L490 -140 C438 -158 405 -135 405 -96 C405 -60 437 -16 482 9 C590 45 670 138 670 295 L670 690 L528 690 Z " />
<glyph glyph-name="uogonek" unicode="&#x173;" horiz-adv-x="595" d="M467 -106 C467 -69 500 -24 547 0 L547 12 C537 41 533 83 533 114 L533 500 L393 500 L393 199 C377 144 329 110 279 110 C227 110 197 136 197 197 L197 500 L57 500 L57 174 C57 59 119 -10 231 -10 C305 -10 363 20 397 71 C399 47 402 23 410 0 L430 0 C387 -38 367 -79 367 -120 C367 -196 413 -257 552 -224 L552 -150 C500 -168 467 -145 467 -106 L467 -106 Z " />
<glyph glyph-name="Wcircumflex" unicode="&#x174;" horiz-adv-x="1007" d="M504 806 L559 754 L679 754 L679 769 L558 889 L449 889 L328 769 L328 754 L448 754 L504 806 Z M865 690 L763 280 C747 218 736 156 729 112 C721 156 708 218 693 279 L591 690 L418 690 L320 280 C305 220 294 160 286 117 C278 160 266 220 251 280 L150 690 L3 690 L198 0 L374 0 L473 405 C489 471 499 527 504 559 C509 527 518 471 534 407 L636 0 L814 0 L1000 690 L865 690 Z " />
<glyph glyph-name="wcircumflex" unicode="&#x175;" horiz-adv-x="835" d="M417 642 L480 575 L594 575 L594 590 L469 730 L368 730 L243 590 L243 575 L353 575 L417 642 Z M696 500 L626 226 C616 184 605 132 600 104 C595 132 586 184 576 226 L512 500 L327 500 L266 226 C257 184 247 132 242 104 C237 132 226 186 215 226 L145 500 L6 500 L155 0 L325 0 L397 312 C405 349 412 383 416 407 C421 383 428 349 437 312 L513 0 L678 0 L831 500 L696 500 Z " />
<glyph glyph-name="Ycircumflex" unicode="&#x176;" horiz-adv-x="666" d="M335 806 L390 754 L510 754 L510 769 L389 889 L280 889 L159 769 L159 754 L279 754 L335 806 Z M671 690 L507 690 L391 500 C368 462 348 423 337 399 C327 423 308 462 285 500 L169 690 L-5 690 L262 268 L262 0 L405 0 L405 271 L671 690 Z " />
<glyph glyph-name="ycircumflex" unicode="&#x177;" horiz-adv-x="547" d="M272 642 L335 575 L449 575 L449 590 L324 730 L223 730 L98 590 L98 575 L208 575 L272 642 Z M401 500 L323 265 C311 229 292 162 278 114 C265 161 246 229 233 265 L152 500 L0 500 L209 -22 L186 -70 C168 -109 136 -120 101 -120 C87 -120 65 -119 46 -115 L46 -219 C67 -222 97 -224 117 -224 C210 -224 264 -189 297 -115 L349 0 L547 500 L401 500 Z " />
<glyph glyph-name="Ydieresis" unicode="&#x178;" horiz-adv-x="666" d="M213 743 C255 743 293 771 293 820 C293 870 255 898 213 898 C170 898 133 870 133 820 C133 771 170 743 213 743 L213 743 Z M456 743 C498 743 536 771 536 820 C536 870 498 898 456 898 C413 898 376 870 376 820 C376 771 413 743 456 743 L456 743 Z M671 690 L507 690 L391 500 C368 462 348 423 337 399 C327 423 308 462 285 500 L169 690 L-5 690 L262 268 L262 0 L405 0 L405 271 L671 690 Z " />
<glyph glyph-name="Zacute" unicode="&#x179;" horiz-adv-x="647" d="M529 889 L383 889 L264 769 L264 754 L381 754 L529 874 L529 889 Z M291 199 L610 583 L610 690 L42 690 L42 571 L302 571 C343 571 391 572 424 573 C400 547 366 509 343 481 L32 107 L32 0 L615 0 L615 119 L336 119 C303 119 255 117 218 115 C241 140 270 173 291 199 L291 199 Z " />
<glyph glyph-name="zacute" unicode="&#x17a;" horiz-adv-x="510" d="M451 730 L305 730 L186 590 L186 575 L303 575 L451 715 L451 730 Z M286 191 L470 397 L470 500 L43 500 L43 389 L172 389 C208 389 257 391 291 392 C268 369 236 335 212 308 L33 103 L33 0 L477 0 L477 111 L320 111 C284 111 236 109 206 108 C228 130 262 165 286 191 L286 191 Z " />
<glyph glyph-name="Zdotaccent" unicode="&#x17b;" horiz-adv-x="647" d="M240 825 C240 773 279 744 324 744 C369 744 408 773 408 825 C408 877 369 906 324 906 C279 906 240 877 240 825 L240 825 Z M291 199 L610 583 L610 690 L42 690 L42 571 L302 571 C343 571 391 572 424 573 C400 547 366 509 343 481 L32 107 L32 0 L615 0 L615 119 L336 119 C303 119 255 117 218 115 C241 140 270 173 291 199 L291 199 Z " />
<glyph glyph-name="zdotaccent" unicode="&#x17c;" horiz-adv-x="510" d="M168 658 C168 606 207 577 252 577 C297 577 336 606 336 658 C336 710 297 739 252 739 C207 739 168 710 168 658 L168 658 Z M286 191 L470 397 L470 500 L43 500 L43 389 L172 389 C208 389 257 391 291 392 C268 369 236 335 212 308 L33 103 L33 0 L477 0 L477 111 L320 111 C284 111 236 109 206 108 C228 130 262 165 286 191 L286 191 Z " />
<glyph glyph-name="Zcaron" unicode="&#x17d;" horiz-adv-x="647" d="M270 754 L379 754 L500 874 L500 889 L380 889 L325 837 L269 889 L149 889 L149 874 L270 754 Z M336 119 C303 119 255 117 218 115 C241 140 270 173 291 199 L610 583 L610 690 L42 690 L42 571 L302 571 C343 571 391 572 424 573 C400 547 366 509 343 481 L32 107 L32 0 L615 0 L615 119 L336 119 Z " />
<glyph glyph-name="zcaron" unicode="&#x17e;" horiz-adv-x="510" d="M201 575 L302 575 L427 715 L427 730 L313 730 L250 663 L186 730 L76 730 L76 715 L201 575 Z M320 111 C284 111 236 109 206 108 C228 130 262 165 286 191 L470 397 L470 500 L43 500 L43 389 L172 389 C208 389 257 391 291 392 C268 369 236 335 212 308 L33 103 L33 0 L477 0 L477 111 L320 111 Z " />
<glyph glyph-name="florin" unicode="&#x192;" horiz-adv-x="644" d="M508 640 C540 640 580 635 606 627 L626 743 C593 753 543 760 502 760 C391 760 303 694 279 558 L269 500 L163 500 L143 386 L249 386 L178 -15 C168 -75 136 -104 96 -104 C75 -104 58 -102 39 -98 L19 -214 C47 -221 72 -224 118 -224 C224 -224 293 -158 313 -44 L389 386 L531 386 L551 500 L409 500 L418 551 C428 611 463 640 508 640 L508 640 Z " />
<glyph glyph-name="uni019D" unicode="&#x19d;" horiz-adv-x="760" d="M554 690 L558 287 C558 252 561 199 565 153 C542 194 516 241 496 275 L246 690 L72 690 L72 -42 C72 -86 48 -104 10 -104 C-9 -104 -34 -102 -50 -98 L-50 -214 C-24 -220 6 -224 34 -224 C138 -224 205 -176 205 -57 L202 401 C202 443 200 493 197 536 C218 497 242 452 262 420 L515 0 L688 0 L688 690 L554 690 Z " />
<glyph glyph-name="Gcaron" unicode="&#x1e6;" horiz-adv-x="737" d="M314 754 L423 754 L544 874 L544 889 L424 889 L369 837 L313 889 L193 889 L193 874 L314 754 Z M688 359 L409 359 L409 255 L545 255 L545 145 C495 119 440 110 386 110 C271 110 185 186 185 344 C185 501 274 580 375 580 C467 580 533 536 541 444 L687 444 C677 609 546 700 378 700 C197 700 37 569 37 343 C37 112 177 -10 396 -10 C495 -10 608 24 688 83 L688 359 Z " />
<glyph glyph-name="gcaron" unicode="&#x1e7;" horiz-adv-x="558" d="M226 575 L327 575 L452 715 L452 730 L338 730 L275 663 L211 730 L101 730 L101 715 L226 575 Z M374 68 L257 79 C232 81 221 90 221 106 C221 117 225 126 235 135 C242 134 250 134 257 134 C381 134 489 206 489 315 C489 346 481 376 465 399 C491 394 517 390 537 388 L537 500 L339 500 C315 507 288 510 261 510 C137 510 29 443 29 322 C29 241 74 185 140 157 C122 137 109 111 109 79 C109 11 156 -20 224 -26 L332 -35 C377 -39 400 -49 400 -78 C400 -106 358 -130 266 -130 C179 -130 146 -97 146 -49 L5 -49 C5 -157 92 -226 263 -226 C445 -226 542 -166 542 -70 C542 17 484 58 374 68 L374 68 Z M259 408 C310 408 351 379 351 321 C351 265 310 236 259 236 C208 236 167 265 167 323 C167 379 208 408 259 408 L259 408 Z " />
<glyph glyph-name="uni01EA" unicode="&#x1ea;" horiz-adv-x="781" d="M497 5 C640 45 745 166 745 348 C745 573 590 700 393 700 C198 700 36 571 36 345 C36 121 182 -2 370 -10 C341 -42 327 -76 327 -110 C327 -186 373 -247 512 -214 L512 -140 C460 -158 427 -135 427 -96 C427 -62 456 -20 497 5 L497 5 Z M184 346 C184 501 278 578 391 578 C504 578 597 500 597 344 C597 189 504 112 391 112 C278 112 184 190 184 346 L184 346 Z " />
<glyph glyph-name="uni01EB" unicode="&#x1eb;" horiz-adv-x="598" d="M380 1 C485 31 566 120 566 252 C566 417 445 510 301 510 C158 510 32 415 32 250 C32 92 137 3 268 -9 C250 -35 241 -62 241 -89 C241 -165 287 -226 426 -193 L426 -119 C374 -137 341 -114 341 -75 C341 -50 356 -22 380 1 L380 1 Z M176 251 C176 344 233 390 299 390 C365 390 422 343 422 249 C422 156 365 110 299 110 C233 110 176 157 176 251 L176 251 Z " />
<glyph glyph-name="AEacute" unicode="&#x1fc;" horiz-adv-x="1092" d="M817 874 L817 889 L671 889 L552 769 L552 754 L669 754 L817 874 Z M689 119 L689 295 L1011 295 L1011 411 L689 411 L689 571 L1045 571 L1045 690 L460 690 L-14 0 L146 0 L286 204 L547 204 L547 0 L1051 0 L1051 119 L689 119 Z M359 311 L439 428 C471 475 513 538 547 590 L547 311 L359 311 Z " />
<glyph glyph-name="aeacute" unicode="&#x1fd;" horiz-adv-x="885" d="M636 715 L636 730 L490 730 L371 590 L371 575 L488 575 L636 715 Z M850 256 C850 420 755 510 608 510 C541 510 480 489 434 450 C398 487 343 510 271 510 C132 510 54 433 54 325 L189 325 C189 374 215 402 270 402 C326 402 349 372 349 320 L349 296 L192 272 C76 254 30 195 30 119 C30 43 87 -10 189 -10 C285 -10 356 29 396 80 C438 21 508 -10 597 -10 C744 -10 841 65 846 163 L707 163 C705 122 661 95 599 95 C536 95 489 139 489 208 L850 208 L850 256 Z M603 402 C659 402 697 372 703 297 L494 297 C503 369 545 402 603 402 L603 402 Z M218 85 C187 85 167 102 167 134 C167 165 187 184 230 191 L349 211 L349 159 C322 108 268 85 218 85 L218 85 Z " />
<glyph glyph-name="Oslashacute" unicode="&#x1fe;" horiz-adv-x="793" d="M602 874 L602 889 L456 889 L337 769 L337 754 L454 754 L602 874 Z M769 645 L697 717 L616 636 C556 678 481 700 399 700 C204 700 42 571 42 345 C42 255 65 182 105 125 L25 45 L97 -27 L178 54 C237 12 312 -10 394 -10 C590 -10 751 122 751 348 C751 435 728 508 688 564 L769 645 Z M190 346 C190 501 284 578 397 578 C443 578 485 565 520 540 L211 231 C198 263 190 301 190 346 L190 346 Z M603 344 C603 189 510 112 397 112 C351 112 309 125 274 150 L582 458 C595 426 603 388 603 344 L603 344 Z " />
<glyph glyph-name="oslashacute" unicode="&#x1ff;" horiz-adv-x="622" d="M513 715 L513 730 L367 730 L248 590 L248 575 L365 575 L513 715 Z M610 470 L531 549 L456 474 C415 498 365 510 313 510 C170 510 44 415 44 250 C44 191 59 142 84 102 L14 32 L93 -47 L166 26 C207 2 257 -10 309 -10 C452 -10 578 87 578 252 C578 310 563 359 538 398 L610 470 Z M188 251 C188 344 245 390 311 390 C329 390 346 387 362 380 L192 210 C189 223 188 236 188 251 L188 251 Z M434 249 C434 156 377 110 311 110 C293 110 276 113 260 120 L430 290 C433 277 434 264 434 249 L434 249 Z " />
<glyph glyph-name="uni0218" unicode="&#x218;" horiz-adv-x="672" d="M419 405 L306 422 C238 432 195 452 195 501 C195 546 231 583 330 584 C421 585 478 545 478 476 L619 476 C619 612 523 700 328 700 C135 700 49 609 49 495 C49 387 120 312 272 291 L383 275 C441 267 490 252 490 192 C490 142 442 107 333 106 C228 105 172 150 172 216 L28 216 C28 76 128 -10 337 -10 C542 -10 637 78 637 202 C637 333 554 385 419 405 L419 405 Z M409 -115 C409 -74 374 -45 333 -45 C292 -45 256 -72 256 -119 C256 -146 268 -166 285 -178 L239 -271 L239 -285 L318 -285 L381 -187 C395 -165 409 -138 409 -115 L409 -115 Z " />
<glyph glyph-name="uni0219" unicode="&#x219;" horiz-adv-x="525" d="M331 300 L237 314 C193 321 177 333 177 357 C177 386 200 408 258 409 C315 410 346 380 346 334 L481 334 C481 435 413 510 260 510 C110 510 44 436 44 354 C44 269 96 215 201 201 L294 189 C335 184 355 168 355 141 C355 110 325 92 263 91 C196 90 166 124 166 167 L28 167 C28 63 97 -10 264 -10 C420 -10 493 64 493 152 C493 234 444 283 331 300 L331 300 Z M345 -115 C345 -74 310 -45 269 -45 C228 -45 192 -72 192 -119 C192 -146 204 -166 221 -178 L175 -271 L175 -285 L254 -285 L317 -187 C331 -165 345 -138 345 -115 L345 -115 Z " />
<glyph glyph-name="uni021A" unicode="&#x21a;" horiz-adv-x="635" d="M625 690 L10 690 L10 570 L246 570 L246 0 L389 0 L389 570 L625 570 L625 690 Z M317 -45 C276 -45 240 -72 240 -119 C240 -146 252 -166 269 -178 L223 -271 L223 -285 L302 -285 L365 -187 C379 -165 393 -138 393 -115 C393 -74 358 -45 317 -45 L317 -45 Z " />
<glyph glyph-name="uni021B" unicode="&#x21b;" horiz-adv-x="392" d="M293 110 C255 110 230 131 230 182 L230 384 L366 384 L366 500 L230 500 L230 648 L90 648 L90 500 L23 500 L23 384 L90 384 L90 175 C90 38 166 -10 261 -10 C308 -10 341 -6 372 1 L372 117 C351 112 323 110 293 110 L293 110 Z M241 -45 C200 -45 164 -72 164 -119 C164 -146 176 -166 193 -178 L147 -271 L147 -285 L226 -285 L289 -187 C303 -165 317 -138 317 -115 C317 -74 282 -45 241 -45 L241 -45 Z " />
<glyph glyph-name="uni0232" unicode="&#x232;" horiz-adv-x="666" d="M504 863 L164 863 L164 763 L504 763 L504 863 Z M671 690 L507 690 L391 500 C368 462 348 423 337 399 C327 423 308 462 285 500 L169 690 L-5 690 L262 268 L262 0 L405 0 L405 271 L671 690 Z " />
<glyph glyph-name="uni0233" unicode="&#x233;" horiz-adv-x="547" d="M444 693 L104 693 L104 593 L444 593 L444 693 Z M401 500 L323 265 C311 229 292 162 278 114 C265 161 246 229 233 265 L152 500 L0 500 L209 -22 L186 -70 C168 -109 136 -120 101 -120 C87 -120 65 -119 46 -115 L46 -219 C67 -222 97 -224 117 -224 C210 -224 264 -189 297 -115 L349 0 L547 500 L401 500 Z " />
<glyph glyph-name="uni0237" unicode="&#x237;" horiz-adv-x="272" d="M210 -57 L210 500 L70 500 L70 -42 C70 -86 48 -104 14 -104 C-5 -104 -30 -102 -46 -98 L-46 -214 C-20 -220 10 -224 38 -224 C143 -224 210 -176 210 -57 L210 -57 Z " />
<glyph glyph-name="uni0272" unicode="&#x272;" horiz-adv-x="600" d="M359 510 C286 510 231 483 198 434 L198 500 L62 500 L62 -42 C62 -86 40 -104 6 -104 C-13 -104 -38 -102 -54 -98 L-54 -214 C-28 -220 2 -224 30 -224 C135 -224 202 -176 202 -57 L202 297 C217 355 259 391 315 391 C369 391 403 362 403 295 L403 0 L543 0 L543 314 C543 431 484 510 359 510 L359 510 Z " />
<glyph glyph-name="circumflex" unicode="&#x2c6;" horiz-adv-x="600" d="M288 730 L187 730 L62 590 L62 575 L172 575 L236 642 L299 575 L413 575 L413 590 L288 730 Z " />
<glyph glyph-name="caron" unicode="&#x2c7;" horiz-adv-x="600" d="M299 730 L236 663 L172 730 L62 730 L62 715 L187 575 L288 575 L413 715 L413 730 L299 730 Z " />
<glyph glyph-name="breve" unicode="&#x2d8;" horiz-adv-x="600" d="M204 659 C234 659 256 681 258 730 L361 730 C361 625 304 569 204 569 C105 569 47 625 47 730 L150 730 C152 681 174 659 204 659 L204 659 Z " />
<glyph glyph-name="dotaccent" unicode="&#x2d9;" horiz-adv-x="600" d="M50 658 C50 606 89 577 134 577 C179 577 218 606 218 658 C218 710 179 739 134 739 C89 739 50 710 50 658 L50 658 Z " />
<glyph glyph-name="ring" unicode="&#x2da;" horiz-adv-x="600" d="M155 548 C242 548 290 601 290 674 C290 747 242 799 155 799 C67 799 19 747 19 674 C19 601 67 548 155 548 L155 548 Z M155 627 C127 627 111 647 111 674 C111 701 127 720 155 720 C182 720 198 701 198 674 C198 647 182 627 155 627 L155 627 Z " />
<glyph glyph-name="ogonek" unicode="&#x2db;" horiz-adv-x="600" d="M217 0 L165 44 C77 -4 37 -62 37 -120 C37 -196 83 -257 222 -224 L222 -150 C170 -168 137 -145 137 -106 C137 -69 170 -24 217 0 L217 0 Z " />
<glyph glyph-name="tilde" unicode="&#x2dc;" horiz-adv-x="600" d="M99 583 L189 583 C189 622 201 637 226 637 C263 637 304 577 364 577 C425 577 477 612 477 732 L387 732 C387 698 373 679 349 679 C320 679 280 739 212 739 C151 739 99 704 99 583 L99 583 Z " />
<glyph glyph-name="hungarumlaut" unicode="&#x2dd;" horiz-adv-x="600" d="M267 742 L159 742 L50 590 L50 575 L132 575 L267 727 L267 742 Z M441 742 L332 742 L223 590 L223 575 L306 575 L441 727 L441 742 Z " />
<glyph glyph-name="gravecomb" unicode="&#x300;" d="M-315 730 L-315 715 L-167 575 L-50 575 L-50 590 L-169 730 L-315 730 Z " />
<glyph glyph-name="acutecomb" unicode="&#x301;" d="M-50 730 L-196 730 L-315 590 L-315 575 L-198 575 L-50 715 L-50 730 Z " />
<glyph glyph-name="uni0302" unicode="&#x302;" d="M-187 730 L-288 730 L-413 590 L-413 575 L-303 575 L-239 642 L-176 575 L-62 575 L-62 590 L-187 730 Z " />
<glyph glyph-name="tildecomb" unicode="&#x303;" d="M-477 583 L-387 583 C-387 622 -375 637 -350 637 C-313 637 -272 577 -212 577 C-151 577 -99 612 -99 732 L-189 732 C-189 698 -203 679 -227 679 C-256 679 -296 739 -364 739 C-425 739 -477 704 -477 583 L-477 583 Z " />
<glyph glyph-name="uni0304" unicode="&#x304;" d="M-390 693 L-390 593 L-50 593 L-50 693 L-390 693 Z " />
<glyph glyph-name="uni0306" unicode="&#x306;" d="M-204 659 C-174 659 -152 681 -150 730 L-47 730 C-47 625 -104 569 -204 569 C-303 569 -361 625 -361 730 L-258 730 C-256 681 -234 659 -204 659 L-204 659 Z " />
<glyph glyph-name="uni0307" unicode="&#x307;" d="M-218 658 C-218 606 -179 577 -134 577 C-89 577 -50 606 -50 658 C-50 710 -89 739 -134 739 C-179 739 -218 710 -218 658 L-218 658 Z " />
<glyph glyph-name="uni0308" unicode="&#x308;" d="M-420 657 C-420 608 -383 580 -340 580 C-298 580 -260 608 -260 657 C-260 707 -298 735 -340 735 C-383 735 -420 707 -420 657 L-420 657 Z M-177 657 C-177 608 -140 580 -97 580 C-55 580 -17 608 -17 657 C-17 707 -55 735 -97 735 C-140 735 -177 707 -177 657 L-177 657 Z " />
<glyph glyph-name="uni030A" unicode="&#x30a;" d="M-154 548 C-67 548 -19 601 -19 674 C-19 747 -67 799 -154 799 C-242 799 -290 747 -290 674 C-290 601 -242 548 -154 548 L-154 548 Z M-154 627 C-182 627 -198 647 -198 674 C-198 701 -182 720 -154 720 C-127 720 -111 701 -111 674 C-111 647 -127 627 -154 627 L-154 627 Z " />
<glyph glyph-name="uni030B" unicode="&#x30b;" d="M-224 742 L-332 742 L-441 590 L-441 575 L-359 575 L-224 727 L-224 742 Z M-50 742 L-159 742 L-268 590 L-268 575 L-185 575 L-50 727 L-50 742 Z " />
<glyph glyph-name="uni030C" unicode="&#x30c;" d="M-176 730 L-239 663 L-303 730 L-413 730 L-413 715 L-288 575 L-187 575 L-62 715 L-62 730 L-176 730 Z " />
<glyph glyph-name="dotbelowcomb" unicode="&#x323;" d="M-203 -152 C-203 -200 -168 -226 -127 -226 C-86 -226 -50 -200 -50 -152 C-50 -105 -86 -79 -127 -79 C-168 -79 -203 -105 -203 -152 L-203 -152 Z " />
<glyph glyph-name="uni0326" unicode="&#x326;" d="M-53 -115 C-53 -74 -88 -45 -129 -45 C-170 -45 -206 -72 -206 -119 C-206 -146 -194 -166 -177 -178 L-223 -271 L-223 -285 L-144 -285 L-81 -187 C-67 -165 -53 -138 -53 -115 L-53 -115 Z " />
<glyph glyph-name="uni0327" unicode="&#x327;" d="M-134 -40 L-116 12 L-209 12 L-240 -72 L-181 -104 C-176 -102 -169 -101 -162 -101 C-140 -101 -127 -112 -127 -131 C-127 -153 -147 -161 -169 -161 C-191 -161 -210 -151 -210 -136 L-297 -136 C-297 -177 -268 -224 -170 -224 C-78 -224 -40 -186 -40 -126 C-40 -72 -84 -44 -134 -40 L-134 -40 Z " />
<glyph glyph-name="uni0328" unicode="&#x328;" d="M-160 0 L-212 44 C-300 -4 -340 -62 -340 -120 C-340 -196 -294 -257 -155 -224 L-155 -150 C-207 -168 -240 -145 -240 -106 C-240 -69 -207 -24 -160 0 L-160 0 Z " />
<glyph glyph-name="uni0335" unicode="&#x335;" d="M-388 338 L-388 222 L-44 222 L-44 338 L-388 338 Z " />
<glyph glyph-name="uni0336" unicode="&#x336;" d="M-798 338 L-798 222 L-44 222 L-44 338 L-798 338 Z " />
<glyph glyph-name="uni0337" unicode="&#x337;" d="M-418 351 L-371 251 L-96 382 L-143 482 L-418 351 Z " />
<glyph glyph-name="uni0338" unicode="&#x338;" d="M-446 157 L-367 78 L150 595 L71 674 L-446 157 Z " />
<glyph glyph-name="uni03BC" unicode="&#x3bc;" horiz-adv-x="602" d="M539 114 L539 500 L399 500 L399 199 C383 144 335 110 285 110 C233 110 203 136 203 197 L203 500 L63 500 L63 192 L54 -49 C53 -81 42 -95 21 -95 C5 -95 -12 -93 -25 -90 L-25 -192 C-8 -195 18 -197 42 -197 C121 -197 158 -163 162 -64 L165 14 C187 -1 216 -10 248 -10 C315 -10 370 20 404 70 C405 47 408 23 416 0 L553 0 L553 12 C543 41 539 83 539 114 L539 114 Z " />
<glyph glyph-name="Wgrave" unicode="&#x1e80;" horiz-adv-x="1007" d="M563 769 L444 889 L298 889 L298 874 L446 754 L563 754 L563 769 Z M693 279 L591 690 L418 690 L320 280 C305 220 294 160 286 117 C278 160 266 220 251 280 L150 690 L3 690 L198 0 L374 0 L473 405 C489 471 499 527 504 559 C509 527 518 471 534 407 L636 0 L814 0 L1000 690 L865 690 L763 280 C747 218 736 156 729 112 C721 156 708 218 693 279 L693 279 Z " />
<glyph glyph-name="wgrave" unicode="&#x1e81;" horiz-adv-x="835" d="M209 730 L209 715 L357 575 L474 575 L474 590 L355 730 L209 730 Z M576 226 L512 500 L327 500 L266 226 C257 184 247 132 242 104 C237 132 226 186 215 226 L145 500 L6 500 L155 0 L325 0 L397 312 C405 349 412 383 416 407 C421 383 428 349 437 312 L513 0 L678 0 L831 500 L696 500 L626 226 C616 184 605 132 600 104 C595 132 586 184 576 226 L576 226 Z " />
<glyph glyph-name="Wacute" unicode="&#x1e82;" horiz-adv-x="1007" d="M708 889 L562 889 L443 769 L443 754 L560 754 L708 874 L708 889 Z M693 279 L591 690 L418 690 L320 280 C305 220 294 160 286 117 C278 160 266 220 251 280 L150 690 L3 690 L198 0 L374 0 L473 405 C489 471 499 527 504 559 C509 527 518 471 534 407 L636 0 L814 0 L1000 690 L865 690 L763 280 C747 218 736 156 729 112 C721 156 708 218 693 279 L693 279 Z " />
<glyph glyph-name="wacute" unicode="&#x1e83;" horiz-adv-x="835" d="M618 730 L472 730 L353 590 L353 575 L470 575 L618 715 L618 730 Z M576 226 L512 500 L327 500 L266 226 C257 184 247 132 242 104 C237 132 226 186 215 226 L145 500 L6 500 L155 0 L325 0 L397 312 C405 349 412 383 416 407 C421 383 428 349 437 312 L513 0 L678 0 L831 500 L696 500 L626 226 C616 184 605 132 600 104 C595 132 586 184 576 226 L576 226 Z " />
<glyph glyph-name="Wdieresis" unicode="&#x1e84;" horiz-adv-x="1007" d="M302 820 C302 771 339 743 382 743 C424 743 462 771 462 820 C462 870 424 898 382 898 C339 898 302 870 302 820 L302 820 Z M545 820 C545 771 582 743 625 743 C667 743 705 771 705 820 C705 870 667 898 625 898 C582 898 545 870 545 820 L545 820 Z M693 279 L591 690 L418 690 L320 280 C305 220 294 160 286 117 C278 160 266 220 251 280 L150 690 L3 690 L198 0 L374 0 L473 405 C489 471 499 527 504 559 C509 527 518 471 534 407 L636 0 L814 0 L1000 690 L865 690 L763 280 C747 218 736 156 729 112 C721 156 708 218 693 279 L693 279 Z " />
<glyph glyph-name="wdieresis" unicode="&#x1e85;" horiz-adv-x="835" d="M218 657 C218 608 255 580 298 580 C340 580 378 608 378 657 C378 707 340 735 298 735 C255 735 218 707 218 657 L218 657 Z M461 657 C461 608 498 580 541 580 C583 580 621 608 621 657 C621 707 583 735 541 735 C498 735 461 707 461 657 L461 657 Z M576 226 L512 500 L327 500 L266 226 C257 184 247 132 242 104 C237 132 226 186 215 226 L145 500 L6 500 L155 0 L325 0 L397 312 C405 349 412 383 416 407 C421 383 428 349 437 312 L513 0 L678 0 L831 500 L696 500 L626 226 C616 184 605 132 600 104 C595 132 586 184 576 226 L576 226 Z " />
<glyph glyph-name="uni1E9E" unicode="&#x1e9e;" horiz-adv-x="758" d="M527 433 L643 611 L643 690 L332 690 C157 690 66 607 66 443 L66 0 L196 0 L196 461 C196 533 236 571 309 571 L469 571 L355 396 L375 353 C491 336 592 300 592 198 C592 121 541 94 489 94 C435 94 390 121 390 179 L263 179 C263 63 331 -10 487 -10 C634 -10 726 76 726 200 C726 353 622 407 527 433 L527 433 Z " />
<glyph glyph-name="uni1EBC" unicode="&#x1ebc;" horiz-adv-x="617" d="M261 802 C302 802 341 750 405 750 C466 750 522 782 522 888 L430 888 C430 855 414 840 390 840 C357 840 318 892 247 892 C186 892 130 859 130 754 L222 754 C222 785 236 802 261 802 L261 802 Z M214 119 L214 295 L536 295 L536 411 L214 411 L214 571 L570 571 L570 690 L72 690 L72 0 L576 0 L576 119 L214 119 Z " />
<glyph glyph-name="uni1EBD" unicode="&#x1ebd;" horiz-adv-x="571" d="M236 637 C273 637 314 577 374 577 C435 577 487 612 487 732 L397 732 C397 698 383 679 359 679 C330 679 290 739 222 739 C161 739 109 704 109 583 L199 583 C199 622 211 637 236 637 L236 637 Z M537 249 C537 420 439 510 293 510 C154 510 32 417 32 250 C32 80 139 -10 291 -10 C439 -10 524 65 529 163 L391 163 C389 122 351 95 292 95 C228 95 177 139 177 208 L537 208 L537 249 Z M291 402 C347 402 385 372 391 301 L182 301 C191 369 233 402 291 402 L291 402 Z " />
<glyph glyph-name="Ygrave" unicode="&#x1ef2;" horiz-adv-x="666" d="M394 754 L394 769 L275 889 L129 889 L129 874 L277 754 L394 754 Z M671 690 L507 690 L391 500 C368 462 348 423 337 399 C327 423 308 462 285 500 L169 690 L-5 690 L262 268 L262 0 L405 0 L405 271 L671 690 Z " />
<glyph glyph-name="ygrave" unicode="&#x1ef3;" horiz-adv-x="547" d="M329 575 L329 590 L210 730 L64 730 L64 715 L212 575 L329 575 Z M401 500 L323 265 C311 229 292 162 278 114 C265 161 246 229 233 265 L152 500 L0 500 L209 -22 L186 -70 C168 -109 136 -120 101 -120 C87 -120 65 -119 46 -115 L46 -219 C67 -222 97 -224 117 -224 C210 -224 264 -189 297 -115 L349 0 L547 500 L401 500 Z " />
<glyph glyph-name="uni1EF8" unicode="&#x1ef8;" horiz-adv-x="666" d="M273 802 C314 802 353 750 417 750 C478 750 534 782 534 888 L442 888 C442 855 426 840 402 840 C369 840 330 892 259 892 C198 892 142 859 142 754 L234 754 C234 785 248 802 273 802 L273 802 Z M671 690 L507 690 L391 500 C368 462 348 423 337 399 C327 423 308 462 285 500 L169 690 L-5 690 L262 268 L262 0 L405 0 L405 271 L671 690 Z " />
<glyph glyph-name="uni1EF9" unicode="&#x1ef9;" horiz-adv-x="547" d="M210 637 C247 637 288 577 348 577 C409 577 461 612 461 732 L371 732 C371 698 357 679 333 679 C304 679 264 739 196 739 C135 739 83 704 83 583 L173 583 C173 622 185 637 210 637 L210 637 Z M401 500 L323 265 C311 229 292 162 278 114 C265 161 246 229 233 265 L152 500 L0 500 L209 -22 L186 -70 C168 -109 136 -120 101 -120 C87 -120 65 -119 46 -115 L46 -219 C67 -222 97 -224 117 -224 C210 -224 264 -189 297 -115 L349 0 L547 500 L401 500 Z " />
<glyph glyph-name="endash" unicode="&#x2013;" horiz-adv-x="594" d="M53 338 L53 222 L541 222 L541 338 L53 338 Z " />
<glyph glyph-name="emdash" unicode="&#x2014;" horiz-adv-x="930" d="M53 338 L53 222 L877 222 L877 338 L53 338 Z " />
<glyph glyph-name="quoteleft" unicode="&#x2018;" horiz-adv-x="235" d="M27 529 C27 477 66 448 111 448 C156 448 195 477 195 529 C195 559 179 583 161 594 L195 735 L195 750 L116 750 L44 593 C36 576 27 549 27 529 L27 529 Z " />
<glyph glyph-name="quoteright" unicode="&#x2019;" horiz-adv-x="236" d="M213 679 C213 731 174 760 129 760 C84 760 45 731 45 679 C45 649 61 625 79 614 L45 473 L45 458 L124 458 L196 615 C204 632 213 659 213 679 L213 679 Z " />
<glyph glyph-name="quotesinglbase" unicode="&#x201a;" horiz-adv-x="244" d="M206 71 C206 123 167 152 122 152 C77 152 38 123 38 71 C38 41 54 17 72 6 L38 -135 L38 -150 L117 -150 L189 7 C197 24 206 51 206 71 L206 71 Z " />
<glyph glyph-name="quotedblleft" unicode="&#x201c;" horiz-adv-x="465" d="M27 529 C27 477 66 448 111 448 C156 448 195 477 195 529 C195 559 179 583 161 594 L195 735 L195 750 L116 750 L44 593 C36 576 27 549 27 529 L27 529 Z M257 529 C257 477 296 448 341 448 C386 448 425 477 425 529 C425 559 409 583 391 594 L425 735 L425 750 L346 750 L274 593 C266 576 257 549 257 529 L257 529 Z " />
<glyph glyph-name="quotedblright" unicode="&#x201d;" horiz-adv-x="466" d="M213 679 C213 731 174 760 129 760 C84 760 45 731 45 679 C45 649 61 625 79 614 L45 473 L45 458 L124 458 L196 615 C204 632 213 659 213 679 L213 679 Z M443 679 C443 731 404 760 359 760 C314 760 275 731 275 679 C275 649 291 625 309 614 L275 473 L275 458 L354 458 L426 615 C434 632 443 659 443 679 L443 679 Z " />
<glyph glyph-name="quotedblbase" unicode="&#x201e;" horiz-adv-x="481" d="M206 71 C206 123 167 152 122 152 C77 152 38 123 38 71 C38 41 54 17 72 6 L38 -135 L38 -150 L117 -150 L189 7 C197 24 206 51 206 71 L206 71 Z M443 71 C443 123 404 152 359 152 C314 152 275 123 275 71 C275 41 291 17 309 6 L275 -135 L275 -150 L354 -150 L426 7 C434 24 443 51 443 71 L443 71 Z " />
<glyph glyph-name="dagger" unicode="&#x2020;" horiz-adv-x="460" d="M434 500 L294 500 L294 690 L166 690 L166 500 L26 500 L26 382 L166 382 L166 0 L294 0 L294 382 L434 382 L434 500 Z " />
<glyph glyph-name="daggerdbl" unicode="&#x2021;" horiz-adv-x="476" d="M442 382 L442 500 L302 500 L302 690 L174 690 L174 500 L34 500 L34 382 L174 382 L174 240 L34 240 L34 122 L174 122 L174 -80 L302 -80 L302 122 L442 122 L442 240 L302 240 L302 382 L442 382 Z " />
<glyph glyph-name="bullet" unicode="&#x2022;" horiz-adv-x="364" d="M62 313 C62 239 118 197 182 197 C246 197 302 239 302 313 C302 388 246 429 182 429 C118 429 62 388 62 313 L62 313 Z " />
<glyph glyph-name="ellipsis" unicode="&#x2026;" horiz-adv-x="762" d="M36 71 C36 19 75 -10 120 -10 C165 -10 204 19 204 71 C204 123 165 152 120 152 C75 152 36 123 36 71 L36 71 Z M297 71 C297 19 336 -10 381 -10 C426 -10 465 19 465 71 C465 123 426 152 381 152 C336 152 297 123 297 71 L297 71 Z M558 71 C558 19 597 -10 642 -10 C687 -10 726 19 726 71 C726 123 687 152 642 152 C597 152 558 123 558 71 L558 71 Z " />
<glyph glyph-name="perthousand" unicode="&#x2030;" horiz-adv-x="1406" d="M215 -10 L346 -10 L766 700 L635 700 L215 -10 Z M401 485 C401 620 323 696 215 696 C109 696 27 619 27 483 C27 344 105 270 214 270 C319 270 401 349 401 485 L401 485 Z M273 482 C273 411 254 371 214 371 C175 371 155 409 155 484 C155 556 175 595 214 595 C254 595 273 555 273 482 L273 482 Z M955 209 C955 344 877 420 769 420 C663 420 581 343 581 207 C581 68 659 -6 768 -6 C873 -6 955 73 955 209 L955 209 Z M1379 209 C1379 344 1301 420 1193 420 C1087 420 1005 343 1005 207 C1005 68 1083 -6 1192 -6 C1297 -6 1379 73 1379 209 L1379 209 Z M827 206 C827 135 808 95 768 95 C729 95 709 133 709 208 C709 280 729 319 768 319 C808 319 827 279 827 206 L827 206 Z M1251 206 C1251 135 1232 95 1192 95 C1153 95 1133 133 1133 208 C1133 280 1153 319 1192 319 C1232 319 1251 279 1251 206 L1251 206 Z " />
<glyph glyph-name="guilsinglleft" unicode="&#x2039;" horiz-adv-x="332" d="M304 456 L151 456 L36 298 L36 206 L151 48 L304 48 L161 252 L304 456 Z " />
<glyph glyph-name="guilsinglright" unicode="&#x203a;" horiz-adv-x="332" d="M181 456 L28 456 L171 252 L28 48 L181 48 L296 206 L296 298 L181 456 Z " />
<glyph glyph-name="fraction" unicode="&#x2044;" horiz-adv-x="260" d="M-145 -10 L-14 -10 L406 700 L275 700 L-145 -10 Z " />
<glyph glyph-name="Euro" unicode="&#x20ac;" horiz-adv-x="625" d="M415 112 C349 112 289 141 259 221 L499 221 L519 313 L241 313 C240 324 240 335 240 346 C240 358 240 368 241 379 L499 379 L519 471 L259 471 C289 550 350 578 418 578 C479 578 522 571 562 556 L596 669 C548 691 487 700 417 700 C275 700 153 618 109 471 L48 471 L28 379 L93 379 C92 368 92 357 92 345 C92 334 92 323 93 313 L48 313 L28 221 L108 221 C149 70 267 -10 409 -10 C479 -10 534 -1 585 18 L558 133 C512 117 469 112 415 112 L415 112 Z " />
<glyph glyph-name="trademark" unicode="&#x2122;" horiz-adv-x="978" d="M398 690 L27 690 L27 596 L154 596 L154 276 L271 276 L271 596 L398 596 L398 690 Z M754 690 L694 466 C690 447 685 429 681 410 C676 432 671 454 667 467 L604 690 L435 690 L435 276 L547 276 L542 515 C541 544 542 571 542 589 C547 571 556 541 561 522 L625 276 L722 276 L791 522 C797 543 803 564 807 580 C806 562 805 540 805 517 L800 276 L911 276 L911 690 L754 690 Z " />
<glyph glyph-name="oneeighth" unicode="&#x215b;" horiz-adv-x="920" d="M540 700 L120 -10 L251 -10 L671 700 L540 700 Z M236 276 L236 690 L145 690 C105 662 65 635 26 615 L26 505 C55 516 84 531 113 551 L113 276 L236 276 Z M810 212 C851 231 879 263 879 306 C879 374 813 420 708 420 C605 420 539 374 539 307 C539 265 566 232 608 214 C551 198 527 159 527 116 C527 41 598 -6 709 -6 C818 -6 890 41 890 115 C890 155 868 196 810 212 L810 212 Z M709 333 C745 333 763 314 763 289 C763 263 745 244 709 244 C673 244 655 263 655 289 C655 314 673 333 709 333 L709 333 Z M709 82 C674 82 653 98 653 126 C653 155 674 171 709 171 C744 171 765 155 765 126 C765 98 744 82 709 82 L709 82 Z " />
<glyph glyph-name="threeeighths" unicode="&#x215c;" horiz-adv-x="1036" d="M664 700 L244 -10 L375 -10 L795 700 L664 700 Z M394 392 C394 439 371 477 316 491 C356 509 382 540 382 582 C382 646 322 696 217 696 C105 696 41 645 41 554 L165 554 C165 579 178 601 214 601 C248 601 261 581 261 561 C261 539 246 522 212 522 L161 522 L161 448 L212 448 C246 448 266 435 266 408 C266 381 243 366 210 366 C176 366 152 382 152 414 L27 414 C27 322 93 270 210 270 C323 270 394 321 394 392 L394 392 Z M927 212 C968 231 996 263 996 306 C996 374 930 420 825 420 C722 420 656 374 656 307 C656 265 683 232 725 214 C668 198 644 159 644 116 C644 41 715 -6 826 -6 C935 -6 1007 41 1007 115 C1007 155 985 196 927 212 L927 212 Z M826 333 C862 333 880 314 880 289 C880 263 862 244 826 244 C790 244 772 263 772 289 C772 314 790 333 826 333 L826 333 Z M826 82 C791 82 770 98 770 126 C770 155 791 171 826 171 C861 171 882 155 882 126 C882 98 861 82 826 82 L826 82 Z " />
<glyph glyph-name="fiveeighths" unicode="&#x215d;" horiz-adv-x="1020" d="M642 700 L222 -10 L353 -10 L773 700 L642 700 Z M373 419 C373 505 320 555 243 555 C207 555 178 547 156 532 L161 601 L350 601 L350 690 L51 690 L36 447 L143 447 C157 460 174 470 201 470 C231 470 250 449 250 418 C250 386 233 363 200 363 C168 363 159 380 157 397 L31 397 C31 316 93 270 201 270 C311 270 373 328 373 419 L373 419 Z M912 212 C953 231 981 263 981 306 C981 374 915 420 810 420 C707 420 641 374 641 307 C641 265 668 232 710 214 C653 198 629 159 629 116 C629 41 700 -6 811 -6 C920 -6 992 41 992 115 C992 155 970 196 912 212 L912 212 Z M811 333 C847 333 865 314 865 289 C865 263 847 244 811 244 C775 244 757 263 757 289 C757 314 775 333 811 333 L811 333 Z M811 82 C776 82 755 98 755 126 C755 155 776 171 811 171 C846 171 867 155 867 126 C867 98 846 82 811 82 L811 82 Z " />
<glyph glyph-name="seveneighths" unicode="&#x215e;" horiz-adv-x="932" d="M129 -10 L260 -10 L680 700 L549 700 L129 -10 Z M78 276 L203 276 L345 606 L346 690 L25 690 L25 591 L145 591 C172 591 198 592 218 592 C208 572 197 546 187 524 L78 276 Z M719 420 C824 420 890 374 890 306 C890 263 862 231 821 212 C879 196 901 155 901 115 C901 41 829 -6 720 -6 C609 -6 538 41 538 116 C538 159 562 198 619 214 C577 232 550 265 550 307 C550 374 616 420 719 420 L719 420 Z M720 244 C756 244 774 263 774 289 C774 314 756 333 720 333 C684 333 666 314 666 289 C666 263 684 244 720 244 L720 244 Z M720 82 C755 82 776 98 776 126 C776 155 755 171 720 171 C685 171 664 155 664 126 C664 98 685 82 720 82 L720 82 Z " />
<glyph glyph-name="arrowleft" unicode="&#x2190;" horiz-adv-x="794" d="M757 410 L263 410 L458 603 L367 694 L19 345 L367 -4 L458 87 L263 280 L757 280 L757 410 Z " />
<glyph glyph-name="arrowup" unicode="&#x2191;" horiz-adv-x="732" d="M715 366 L366 714 L17 366 L108 275 L301 470 L301 -24 L431 -24 L431 470 L624 275 L715 366 Z " />
<glyph glyph-name="arrowright" unicode="&#x2192;" horiz-adv-x="794" d="M427 694 L336 603 L531 410 L37 410 L37 280 L531 280 L336 87 L427 -4 L775 345 L427 694 Z " />
<glyph glyph-name="arrowdown" unicode="&#x2193;" horiz-adv-x="736" d="M626 415 L433 220 L433 714 L303 714 L303 220 L110 415 L19 324 L368 -24 L717 324 L626 415 Z " />
<glyph glyph-name="arrowboth" unicode="&#x2194;" horiz-adv-x="1186" d="M1167 345 L819 694 L728 603 L923 410 L263 410 L458 603 L367 694 L19 345 L367 -4 L458 87 L263 280 L923 280 L728 87 L819 -4 L1167 345 Z " />
<glyph glyph-name="arrowupdn" unicode="&#x2195;" horiz-adv-x="742" d="M371 -299 L720 49 L629 140 L436 -55 L436 605 L629 410 L720 501 L371 849 L22 501 L113 410 L306 605 L306 -55 L113 140 L22 49 L371 -299 Z " />
<glyph glyph-name="uni2196" unicode="&#x2196;" horiz-adv-x="671" d="M647 130 L298 479 L572 477 L572 606 L79 605 L79 113 L207 113 L206 387 L555 38 L647 130 Z " />
<glyph glyph-name="uni2197" unicode="&#x2197;" horiz-adv-x="670" d="M592 113 L591 606 L99 606 L99 478 L373 479 L24 130 L116 38 L465 387 L463 113 L592 113 Z " />
<glyph glyph-name="uni2198" unicode="&#x2198;" horiz-adv-x="673" d="M466 577 L467 303 L118 652 L26 560 L375 211 L101 213 L101 84 L594 85 L594 577 L466 577 Z " />
<glyph glyph-name="uni2199" unicode="&#x2199;" horiz-adv-x="673" d="M647 560 L555 652 L206 303 L208 577 L79 577 L80 84 L572 84 L572 212 L298 211 L647 560 Z " />
<glyph glyph-name="minus" unicode="&#x2212;" horiz-adv-x="594" d="M56 309 L56 193 L538 193 L538 309 L56 309 Z " />
<glyph glyph-name="approxequal" unicode="&#x2248;" horiz-adv-x="598" d="M53 316 L167 316 C167 358 182 378 214 378 C271 378 335 316 411 316 C486 316 549 363 549 498 L435 498 C435 457 417 437 387 437 C338 437 275 498 191 498 C116 498 53 451 53 316 L53 316 Z M53 80 L167 80 C167 122 182 142 214 142 C271 142 335 80 411 80 C486 80 549 127 549 262 L435 262 C435 221 417 201 387 201 C338 201 275 262 191 262 C116 262 53 215 53 80 L53 80 Z " />
<glyph glyph-name="notequal" unicode="&#x2260;" horiz-adv-x="576" d="M519 335 L519 447 L405 447 L445 553 L341 553 L301 447 L57 447 L57 335 L258 335 L214 218 L57 218 L57 106 L171 106 L131 0 L235 0 L275 106 L519 106 L519 218 L318 218 L362 335 L519 335 Z " />
<glyph glyph-name="uniF8FF" unicode="&#xf8ff;" horiz-adv-x="1137" d="M249 573 C249 559 240 551 227 551 L119 551 L119 697 C119 711 128 722 144 722 C159 722 169 711 169 697 L169 595 L227 595 C240 595 249 586 249 573 L249 573 Z M265 636 C265 685 305 722 358 722 C411 722 450 687 450 636 C450 585 411 548 358 548 C305 548 265 586 265 636 L265 636 Z M566 600 C566 624 484 606 484 668 C484 700 508 722 554 722 C584 722 614 712 614 688 C614 677 606 669 594 669 C579 669 568 680 549 680 C537 680 533 676 533 670 C533 650 615 667 615 602 C615 569 587 548 544 548 C504 548 478 561 478 583 C478 595 486 603 500 603 C516 603 522 591 546 591 C560 591 566 594 566 600 L566 600 Z M398 636 C398 660 382 677 358 677 C333 677 316 660 316 636 C316 613 333 594 358 594 C382 594 398 611 398 636 L398 636 Z M454 285 L373 370 L373 307 C373 293 362 281 347 281 C332 281 322 293 322 307 L322 453 L354 453 L435 368 L435 431 C435 445 445 456 460 456 C475 456 486 445 486 431 L486 285 L454 285 Z M987 334 C987 357 905 339 905 402 C905 435 929 456 976 456 C1007 456 1036 445 1036 421 C1036 410 1028 402 1016 402 C1001 402 989 413 971 413 C959 413 955 409 955 404 C955 383 1037 400 1037 335 C1037 302 1009 281 965 281 C927 281 900 294 900 316 C900 328 907 337 922 337 C937 337 943 324 967 324 C981 324 987 327 987 334 L987 334 Z M261 281 C249 281 240 286 236 296 L231 309 L161 309 L156 296 C152 286 143 281 131 281 C113 281 101 298 110 317 L176 453 L216 453 L281 317 C289 298 279 281 261 281 L261 281 Z M700 369 C700 318 664 285 609 285 L534 285 L534 453 L609 453 C664 453 700 420 700 369 L700 369 Z M861 369 C861 357 853 349 839 349 L791 349 L791 326 L849 326 C862 326 870 318 870 305 C870 293 862 285 849 285 L740 285 L740 453 L849 453 C862 453 870 444 870 432 C870 420 862 410 849 410 L791 410 L791 390 L839 390 C853 390 861 380 861 369 L861 369 Z M649 368 C649 392 634 408 608 408 L585 408 L585 328 L608 328 C634 328 649 345 649 368 L649 368 Z M217 343 L196 394 L175 343 L217 343 Z M158 22 L158 126 L122 126 C108 126 100 137 100 148 C100 160 108 170 122 170 L244 170 C258 170 268 161 268 148 C268 136 258 126 244 126 L209 126 L209 22 C209 7 197 -3 183 -3 C169 -3 158 7 158 22 L158 22 Z M455 169 L392 69 L392 22 C392 7 381 -3 367 -3 C353 -3 341 7 341 22 L341 69 L279 169 L337 169 L368 110 L398 169 L455 169 Z M555 42 L532 42 L532 22 C532 7 522 -3 508 -3 C493 -3 481 7 481 22 L481 169 L555 169 C599 169 624 141 624 106 C624 70 599 42 555 42 L555 42 Z M780 85 C780 73 772 65 758 65 L710 65 L710 43 L768 43 C782 43 790 34 790 21 C790 9 782 0 768 0 L659 0 L659 169 L768 169 C782 169 790 160 790 148 C790 136 782 126 768 126 L710 126 L710 106 L758 106 C772 106 780 96 780 85 L780 85 Z M551 84 C568 84 576 92 576 106 C576 118 568 128 551 128 L532 128 L532 84 L551 84 Z " />
<glyph glyph-name="fi" unicode="&#xfb01;" horiz-adv-x="640" d="M578 500 L236 500 L236 551 C236 611 265 640 310 640 C334 640 357 638 378 634 L378 750 C347 757 317 760 283 760 C172 760 96 694 96 558 L96 500 L29 500 L29 386 L96 386 L96 0 L236 0 L236 386 L438 386 L438 0 L578 0 L578 500 Z M508 577 C560 577 599 606 599 658 C599 710 560 739 508 739 C456 739 417 710 417 658 C417 606 456 577 508 577 L508 577 Z " />
<glyph glyph-name="fl" unicode="&#xfb02;" horiz-adv-x="650" d="M96 558 L96 500 L29 500 L29 384 L96 384 L96 0 L236 0 L236 384 L368 384 L368 500 L236 500 L236 551 C236 611 265 640 310 640 C334 640 357 638 378 634 L378 750 C347 757 317 760 283 760 C172 760 96 694 96 558 L96 558 Z M448 750 L448 0 L588 0 L588 750 L448 750 Z " />
</font>
</svg>
