<?xml version="1.0" encoding="UTF-8"?>
<svg xmlns="http://www.w3.org/2000/svg" xmlns:xlink="http://www.w3.org/1999/xlink" version="1.2" >
<font id="Neogrotesk Pro UltLight">
<font-face  font-family="Neogrotesk Pro" units-per-em="1000" ascent="750" descent="-250" font-style="normal" font-weight="100" font-stretch="normal" cap-height="690" x-height="500" underline-position="-75" underline-thickness="50" />
<missing-glyph  horiz-adv-x="556" d="M100 690 L100 0 L456 0 L456 690 L100 690 Z M364 630 L162 122 L162 630 L364 630 Z M194 60 L393 559 L393 60 L194 60 Z " />
<glyph glyph-name="NULL" d="" />
<glyph glyph-name="CR" unicode="&#xd;" horiz-adv-x="250" d="" />
<glyph glyph-name="space" unicode="&#x20;" horiz-adv-x="237" d="" />
<glyph glyph-name="exclam" unicode="&#x21;" horiz-adv-x="251" d="M153 188 L157 690 L94 690 L99 188 L153 188 Z M84 30 C84 5 105 -10 126 -10 C146 -10 167 5 167 30 C167 56 146 70 126 70 C105 70 84 56 84 30 L84 30 Z " />
<glyph glyph-name="quotedbl" unicode="&#x22;" horiz-adv-x="319" d="M67 625 L67 690 L124 690 L124 625 L112 453 L79 453 L67 625 Z M196 625 L196 690 L253 690 L253 625 L241 453 L208 453 L196 625 Z " />
<glyph glyph-name="numbersign" unicode="&#x23;" horiz-adv-x="715" d="M669 456 L684 509 L560 509 L612 700 L555 700 L503 509 L286 509 L338 700 L283 700 L231 509 L109 509 L94 456 L216 456 L169 284 L48 284 L33 231 L155 231 L89 -10 L144 -10 L210 231 L427 231 L361 -10 L418 -10 L484 231 L608 231 L623 284 L498 284 L545 456 L669 456 Z M441 284 L224 284 L271 456 L488 456 L441 284 Z " />
<glyph glyph-name="dollar" unicode="&#x24;" horiz-adv-x="587" d="M547 177 C547 283 493 343 354 370 L270 386 C188 402 127 428 127 519 C127 600 186 641 290 644 C409 647 474 584 474 472 L532 472 C532 595 464 686 327 699 L327 800 L266 800 L266 699 C131 689 64 609 64 512 C64 395 145 349 242 331 L326 316 C421 298 485 264 485 177 C485 96 418 45 293 45 C157 45 93 110 93 212 L35 212 C35 87 111 -2 266 -10 L266 -112 L327 -112 L327 -10 C470 1 547 78 547 177 L547 177 Z " />
<glyph glyph-name="percent" unicode="&#x25;" horiz-adv-x="944" d="M231 -10 L290 -10 L703 700 L644 700 L231 -10 Z M373 485 C373 619 307 696 207 696 C105 696 35 619 35 483 C35 344 101 270 201 270 C303 270 373 350 373 485 L373 485 Z M315 482 C315 374 272 321 204 321 C137 321 94 374 94 484 C94 593 137 645 204 645 C272 645 315 591 315 482 L315 482 Z M909 209 C909 343 843 420 742 420 C641 420 571 343 571 207 C571 68 637 -6 736 -6 C839 -6 909 74 909 209 L909 209 Z M850 206 C850 98 807 45 740 45 C672 45 629 98 629 208 C629 317 672 369 740 369 C807 369 850 315 850 206 L850 206 Z " />
<glyph glyph-name="ampersand" unicode="&#x26;" horiz-adv-x="723" d="M588 108 C634 163 662 231 673 302 L606 302 C596 246 574 193 539 150 L313 345 C407 397 498 451 498 538 C498 626 430 700 303 700 C190 700 110 635 110 531 C110 447 164 391 211 352 C123 302 44 243 44 149 C44 51 125 -16 290 -16 C399 -16 482 15 544 65 L618 0 L706 0 L706 6 L588 108 Z M174 531 C174 596 225 643 308 643 C407 643 434 578 434 534 C434 472 355 430 268 383 C220 424 174 469 174 531 L174 531 Z M288 44 C184 44 111 79 111 152 C111 221 179 269 258 314 L495 107 C445 68 377 44 288 44 L288 44 Z " />
<glyph glyph-name="quotesingle" unicode="&#x27;" horiz-adv-x="190" d="M67 625 L67 690 L124 690 L124 625 L112 453 L79 453 L67 625 Z " />
<glyph glyph-name="parenleft" unicode="&#x28;" horiz-adv-x="342" d="M321 -180 L321 -122 C195 -117 115 10 115 285 C115 561 195 687 321 692 L321 750 C163 750 53 580 53 284 C53 -19 153 -180 321 -180 L321 -180 Z " />
<glyph glyph-name="parenright" unicode="&#x29;" horiz-adv-x="343" d="M21 -180 C189 -180 289 -19 289 284 C289 580 180 750 21 750 L21 692 C147 687 227 561 227 285 C227 10 147 -117 21 -122 L21 -180 Z " />
<glyph glyph-name="asterisk" unicode="&#x2a;" horiz-adv-x="466" d="M428 531 L408 585 L258 529 L261 690 L204 690 L207 529 L57 585 L38 531 L191 480 L101 346 L148 316 L233 451 L318 316 L365 346 L275 480 L428 531 Z " />
<glyph glyph-name="plus" unicode="&#x2b;" horiz-adv-x="438" d="M397 314 L247 314 L247 466 L192 466 L192 314 L41 314 L41 260 L192 260 L192 110 L247 110 L247 260 L397 260 L397 314 Z " />
<glyph glyph-name="comma" unicode="&#x2c;" horiz-adv-x="220" d="M156 33 C156 61 135 75 110 75 C85 75 64 61 64 33 C64 15 72 0 88 -7 L64 -101 L64 -110 L95 -110 L147 2 C151 12 156 22 156 33 L156 33 Z " />
<glyph glyph-name="hyphen" unicode="&#x2d;" horiz-adv-x="452" d="M70 308 L70 254 L383 254 L383 308 L70 308 Z " />
<glyph glyph-name="period" unicode="&#x2e;" horiz-adv-x="216" d="M62 33 C62 5 83 -10 108 -10 C133 -10 154 5 154 33 C154 61 133 75 108 75 C83 75 62 61 62 33 L62 33 Z " />
<glyph glyph-name="slash" unicode="&#x2f;" horiz-adv-x="431" d="M30 -10 L88 -10 L401 700 L343 700 L30 -10 Z " />
<glyph glyph-name="zero" unicode="0" horiz-adv-x="666" d="M607 348 C607 573 504 700 338 700 C169 700 60 571 60 345 C60 114 162 -10 327 -10 C497 -10 607 122 607 348 L607 348 Z M548 344 C548 139 463 45 332 45 C203 45 119 142 119 346 C119 551 203 645 332 645 C463 645 548 548 548 344 L548 344 Z " />
<glyph glyph-name="one" unicode="1" horiz-adv-x="365" d="M225 690 C157 630 95 588 26 565 L26 510 C91 531 150 561 205 602 L205 0 L263 0 L263 690 L225 690 Z " />
<glyph glyph-name="two" unicode="2" horiz-adv-x="572" d="M331 307 L50 56 L50 0 L524 0 L524 55 L287 55 C215 55 157 55 123 53 C142 72 173 99 201 123 L383 277 C446 332 509 407 506 502 C502 613 426 700 294 700 C153 700 57 610 57 463 L116 463 C116 576 180 645 286 645 C397 645 446 583 446 499 C446 409 385 355 331 307 L331 307 Z " />
<glyph glyph-name="three" unicode="3" horiz-adv-x="583" d="M406 360 C461 388 500 442 500 510 C500 620 425 700 292 700 C159 700 63 609 63 472 L122 472 C122 576 184 644 288 644 C390 644 441 588 441 509 C441 429 375 385 311 385 L187 385 L187 328 L313 328 C392 328 468 280 468 191 C468 102 399 46 283 46 C172 46 114 112 114 218 L54 218 C54 78 141 -10 284 -10 C424 -10 527 73 527 186 C527 272 474 340 406 360 L406 360 Z " />
<glyph glyph-name="four" unicode="4" horiz-adv-x="586" d="M553 235 L444 235 L444 690 L375 690 L25 232 L26 181 L386 181 L386 0 L444 0 L444 181 L553 181 L553 235 Z M196 235 C162 235 109 233 80 232 C95 250 123 283 143 308 L310 521 C335 553 372 601 390 627 C388 592 386 524 386 486 L386 235 L196 235 Z " />
<glyph glyph-name="five" unicode="5" horiz-adv-x="561" d="M299 442 C240 442 174 422 131 372 L149 628 L473 628 L473 690 L95 690 L67 282 L124 282 C142 341 218 385 291 385 C384 385 454 322 454 220 C454 104 365 46 280 46 C190 46 123 95 122 192 L61 192 C61 63 151 -10 277 -10 C403 -10 513 71 513 220 C513 361 417 442 299 442 L299 442 Z " />
<glyph glyph-name="six" unicode="6" horiz-adv-x="620" d="M341 423 C246 423 159 372 118 289 C121 513 174 645 316 645 C415 645 490 595 489 475 L549 475 C550 618 454 700 321 700 C162 700 60 563 60 334 C60 109 152 -10 318 -10 C458 -10 560 72 560 209 C560 350 459 423 341 423 L341 423 Z M320 45 C222 45 154 113 133 218 C169 313 251 367 340 367 C444 362 500 298 500 211 C500 116 431 45 320 45 L320 45 Z " />
<glyph glyph-name="seven" unicode="7" horiz-adv-x="493" d="M17 690 L17 631 L231 631 C293 631 356 633 396 635 C262 454 178 247 169 0 L227 0 C227 236 324 458 471 637 L471 690 L17 690 Z " />
<glyph glyph-name="eight" unicode="8" horiz-adv-x="621" d="M313 700 C461 700 539 619 539 524 C539 453 492 397 427 367 C507 345 565 275 565 186 C565 70 459 -10 308 -10 C160 -10 56 70 56 184 C56 272 115 342 194 364 C129 393 82 450 82 522 C82 619 162 700 313 700 L313 700 Z M311 390 C407 390 479 437 479 521 C479 590 424 645 311 645 C197 645 143 590 143 521 C143 437 215 390 311 390 L311 390 Z M311 45 C435 45 506 99 506 191 C506 283 420 332 310 332 C201 332 115 283 115 191 C115 99 186 45 311 45 L311 45 Z " />
<glyph glyph-name="nine" unicode="9" horiz-adv-x="619" d="M301 700 C161 700 59 618 59 481 C59 340 160 267 277 267 C372 267 460 318 501 401 C498 177 444 45 303 45 C204 45 129 95 129 215 L69 215 C68 72 164 -10 298 -10 C457 -10 559 127 559 356 C559 581 466 700 301 700 L301 700 Z M278 323 C175 328 118 392 118 479 C118 574 187 645 299 645 C398 645 465 577 486 471 C449 377 367 323 278 323 L278 323 Z " />
<glyph glyph-name="colon" unicode="&#x3a;" horiz-adv-x="231" d="M70 467 C70 439 91 425 115 425 C140 425 161 439 161 467 C161 495 140 510 115 510 C91 510 70 495 70 467 L70 467 Z M70 33 C70 5 91 -10 115 -10 C140 -10 161 5 161 33 C161 61 140 75 115 75 C91 75 70 61 70 33 L70 33 Z " />
<glyph glyph-name="semicolon" unicode="&#x3b;" horiz-adv-x="236" d="M72 467 C72 439 93 425 118 425 C142 425 163 439 163 467 C163 495 142 510 118 510 C93 510 72 495 72 467 L72 467 Z M163 33 C163 61 142 75 118 75 C93 75 72 61 72 33 C72 15 80 0 95 -7 L72 -101 L72 -110 L103 -110 L155 2 C159 12 163 22 163 33 L163 33 Z " />
<glyph glyph-name="less" unicode="&#x3c;" horiz-adv-x="517" d="M463 510 L31 276 L31 224 L463 -10 L463 56 L93 250 L463 444 L463 510 Z " />
<glyph glyph-name="equal" unicode="&#x3d;" horiz-adv-x="551" d="M74 416 L74 361 L477 361 L477 416 L74 416 Z M74 196 L74 142 L477 142 L477 196 L74 196 Z " />
<glyph glyph-name="greater" unicode="&#x3e;" horiz-adv-x="517" d="M54 510 L54 444 L424 250 L54 56 L54 -10 L486 224 L486 276 L54 510 Z " />
<glyph glyph-name="question" unicode="&#x3f;" horiz-adv-x="551" d="M451 509 C451 437 412 399 362 365 C277 308 246 254 246 143 L309 142 C309 230 331 272 377 302 C442 348 512 400 512 501 C512 610 438 700 283 700 C120 700 32 607 32 474 L91 474 C91 582 158 645 282 642 C390 639 451 591 451 509 L451 509 Z M233 33 C233 5 254 -10 277 -10 C300 -10 321 5 321 33 C321 61 300 75 277 75 C254 75 233 61 233 33 L233 33 Z " />
<glyph glyph-name="at" unicode="&#x40;" horiz-adv-x="940" d="M518 681 C256 681 47 480 47 188 C47 -36 210 -171 400 -171 C466 -171 530 -163 586 -145 L586 -93 C545 -111 471 -122 407 -122 C245 -122 100 -16 100 189 C100 435 271 632 512 632 C688 632 834 525 834 332 C834 213 787 66 682 66 C655 66 639 80 639 111 C639 120 640 128 642 139 L701 469 L651 469 L640 398 C616 448 563 478 487 478 C354 478 252 363 252 216 C252 108 313 32 420 32 C482 32 545 62 587 112 C586 108 586 104 586 102 C588 49 618 13 675 13 C819 13 888 174 888 335 C888 545 720 681 518 681 L518 681 Z M429 80 C356 80 308 129 308 220 C308 329 378 429 487 429 C566 429 610 381 622 311 L604 205 C574 131 499 80 429 80 L429 80 Z " />
<glyph glyph-name="A" unicode="A" horiz-adv-x="682" d="M606 0 L670 0 L374 690 L302 690 L18 0 L79 0 L165 208 L518 208 L606 0 Z M188 265 L253 422 L340 639 C356 596 393 504 428 421 L494 265 L188 265 Z " />
<glyph glyph-name="B" unicode="B" horiz-adv-x="703" d="M523 371 C575 395 608 449 608 518 C608 629 528 690 385 690 L100 690 L100 0 L409 0 C566 0 654 74 654 200 C654 287 605 349 523 371 L523 371 Z M377 634 C487 634 548 597 548 517 C548 429 483 392 410 392 L158 392 L158 634 L377 634 Z M405 56 L158 56 L158 335 L430 335 C521 335 594 289 594 193 C594 100 526 56 405 56 L405 56 Z " />
<glyph glyph-name="C" unicode="C" horiz-adv-x="713" d="M667 232 L610 232 C595 103 493 45 373 45 C239 45 112 142 112 346 C112 551 238 645 371 645 C490 645 596 584 610 458 L667 458 C657 613 529 700 375 700 C203 700 53 571 53 345 C53 114 202 -10 370 -10 C527 -10 655 78 667 232 L667 232 Z " />
<glyph glyph-name="D" unicode="D" horiz-adv-x="745" d="M374 690 L100 690 L100 0 L366 0 C544 0 692 122 692 346 C692 571 551 690 374 690 L374 690 Z M366 55 L158 55 L158 635 L366 635 C506 635 632 548 632 346 C632 141 506 55 366 55 L366 55 Z " />
<glyph glyph-name="E" unicode="E" horiz-adv-x="641" d="M158 55 L158 333 L535 333 L535 388 L158 388 L158 635 L587 635 L587 690 L100 690 L100 0 L590 0 L590 55 L158 55 Z " />
<glyph glyph-name="F" unicode="F" horiz-adv-x="598" d="M567 635 L567 690 L100 690 L100 0 L158 0 L158 320 L533 320 L533 376 L158 376 L158 635 L567 635 Z " />
<glyph glyph-name="G" unicode="G" horiz-adv-x="743" d="M677 352 L419 352 L419 293 L619 293 L619 100 C561 68 491 45 402 45 C240 45 112 143 112 346 C112 551 246 645 386 645 C505 645 609 585 618 461 L675 461 C669 615 546 700 391 700 C213 700 53 571 53 345 C53 114 201 -10 394 -10 C515 -10 609 24 677 71 L677 352 Z " />
<glyph glyph-name="H" unicode="H" horiz-adv-x="757" d="M599 690 L599 388 L158 388 L158 690 L100 690 L100 0 L158 0 L158 332 L599 332 L599 0 L657 0 L657 690 L599 690 Z " />
<glyph glyph-name="I" unicode="I" horiz-adv-x="257" d="M100 0 L158 0 L158 690 L100 690 L100 0 Z " />
<glyph glyph-name="J" unicode="J" horiz-adv-x="572" d="M422 690 L422 246 C422 80 337 45 248 45 C161 45 86 97 86 223 L29 223 C29 67 122 -10 246 -10 C373 -10 480 48 480 238 L480 690 L422 690 Z " />
<glyph glyph-name="K" unicode="K" horiz-adv-x="630" d="M628 0 L235 356 L619 690 L535 690 L158 362 L158 690 L100 690 L100 0 L158 0 L158 348 L540 0 L628 0 Z " />
<glyph glyph-name="L" unicode="L" horiz-adv-x="594" d="M158 55 L158 690 L100 690 L100 0 L574 0 L574 55 L158 55 Z " />
<glyph glyph-name="M" unicode="M" horiz-adv-x="902" d="M193 524 L418 0 L482 0 L711 524 C722 548 737 585 748 616 C747 584 745 546 745 511 L745 0 L803 0 L803 690 L726 690 L500 169 C479 121 461 70 451 42 C442 68 424 120 404 168 L177 690 L100 690 L100 0 L155 0 L155 511 C155 549 153 596 151 631 C164 595 180 551 193 524 L193 524 Z " />
<glyph glyph-name="N" unicode="N" horiz-adv-x="772" d="M613 690 L612 228 C612 162 616 95 619 53 C600 87 568 140 533 187 L168 690 L100 690 L100 0 L159 0 L160 479 C160 528 156 594 154 636 C174 601 206 548 238 504 L604 0 L672 0 L672 690 L613 690 Z " />
<glyph glyph-name="O" unicode="O" horiz-adv-x="787" d="M734 348 C734 573 580 700 398 700 C212 700 53 571 53 345 C53 114 205 -10 387 -10 C573 -10 734 122 734 348 L734 348 Z M675 344 C675 139 540 45 392 45 C246 45 112 142 112 346 C112 551 246 645 392 645 C540 645 675 548 675 344 L675 344 Z " />
<glyph glyph-name="P" unicode="P" horiz-adv-x="673" d="M397 690 L100 690 L100 0 L158 0 L158 301 L391 301 C551 301 641 371 641 498 C641 624 556 690 397 690 L397 690 Z M387 356 L158 356 L158 635 L387 635 C514 635 582 591 582 494 C582 398 514 356 387 356 L387 356 Z " />
<glyph glyph-name="Q" unicode="Q" horiz-adv-x="786" d="M542 29 C682 93 734 210 734 348 C734 573 580 700 397 700 C213 700 53 571 53 345 C53 114 206 -10 386 -10 L742 -33 L742 25 C671 35 598 33 542 29 L542 29 Z M112 346 C112 551 246 645 391 645 C539 645 675 548 675 344 C675 156 554 45 391 45 C246 45 112 143 112 346 L112 346 Z " />
<glyph glyph-name="R" unicode="R" horiz-adv-x="705" d="M630 90 L602 195 C579 285 541 322 501 336 C576 363 630 421 630 505 C630 628 560 690 401 690 L100 690 L100 0 L158 0 L158 311 L379 311 C450 311 517 296 540 203 L569 85 C575 60 586 26 606 0 L667 0 L667 6 C651 30 639 54 630 90 L630 90 Z M158 367 L158 634 L393 634 C520 634 571 596 571 502 C571 408 502 367 406 367 L158 367 Z " />
<glyph glyph-name="S" unicode="S" horiz-adv-x="662" d="M405 368 L290 387 C188 404 131 432 131 517 C131 599 202 641 325 644 C467 647 542 583 542 472 L600 472 C600 605 511 700 332 700 C155 700 72 617 72 513 C72 397 150 352 265 333 L377 315 C485 297 552 259 552 176 C552 90 478 45 332 45 C174 45 100 110 100 212 L42 212 C42 77 136 -11 329 -11 C517 -11 613 64 613 176 C613 275 559 342 405 368 L405 368 Z " />
<glyph glyph-name="T" unicode="T" horiz-adv-x="648" d="M629 690 L20 690 L20 635 L295 635 L295 0 L353 0 L353 635 L629 635 L629 690 Z " />
<glyph glyph-name="U" unicode="U" horiz-adv-x="740" d="M650 284 L650 690 L592 690 L592 291 C592 104 487 47 369 47 C253 47 148 106 148 293 L148 690 L90 690 L90 286 C90 69 215 -10 365 -10 C521 -10 650 74 650 284 L650 284 Z " />
<glyph glyph-name="V" unicode="V" horiz-adv-x="665" d="M299 0 L370 0 L645 690 L584 690 L416 259 C387 183 353 92 336 50 C320 92 285 183 253 261 L78 690 L14 690 L299 0 Z " />
<glyph glyph-name="W" unicode="W" horiz-adv-x="983" d="M669 209 L536 690 L454 690 L322 210 L282 51 C270 95 248 167 234 210 L82 690 L19 690 L242 0 L321 0 L453 479 C465 525 482 598 492 638 C503 598 522 526 535 480 L670 0 L746 0 L960 690 L899 690 L755 209 C741 165 722 96 710 53 C699 96 682 164 669 209 L669 209 Z " />
<glyph glyph-name="X" unicode="X" horiz-adv-x="632" d="M354 354 L608 690 L539 690 L405 512 C367 462 329 408 317 392 C302 414 266 463 230 511 L98 690 L24 690 L278 355 L8 0 L78 0 L228 200 C267 252 301 299 315 318 C329 297 362 252 400 202 L550 0 L624 0 L354 354 Z " />
<glyph glyph-name="Y" unicode="Y" horiz-adv-x="644" d="M623 690 L555 690 L426 510 C386 452 341 388 321 358 C302 388 259 452 220 507 L92 690 L20 690 L293 312 L293 0 L351 0 L351 312 L623 690 Z " />
<glyph glyph-name="Z" unicode="Z" horiz-adv-x="624" d="M197 168 L580 629 L580 690 L48 690 L48 635 L367 635 C428 635 481 636 519 638 C497 614 460 571 420 523 L38 64 L38 0 L591 0 L591 55 L236 55 C183 55 131 55 99 53 C121 78 156 118 197 168 L197 168 Z " />
<glyph glyph-name="bracketleft" unicode="&#x5b;" horiz-adv-x="395" d="M158 -121 L158 691 L371 691 L371 750 L98 750 L98 -180 L375 -180 L375 -121 L158 -121 Z " />
<glyph glyph-name="backslash" unicode="&#x5c;" horiz-adv-x="431" d="M401 -10 L88 700 L30 700 L343 -10 L401 -10 Z " />
<glyph glyph-name="bracketright" unicode="&#x5d;" horiz-adv-x="395" d="M298 750 L24 750 L24 691 L237 691 L237 -121 L20 -121 L20 -180 L298 -180 L298 750 Z " />
<glyph glyph-name="asciicircum" unicode="&#x5e;" horiz-adv-x="462" d="M257 710 L205 710 L46 399 L46 390 L105 390 L231 648 L356 390 L416 390 L416 399 L257 710 Z " />
<glyph glyph-name="underscore" unicode="&#x5f;" horiz-adv-x="451" d="M0 -49 L0 -104 L451 -104 L451 -49 L0 -49 Z " />
<glyph glyph-name="grave" unicode="&#x60;" horiz-adv-x="600" d="M50 730 L50 721 L203 575 L250 575 L250 584 L125 730 L50 730 Z " />
<glyph glyph-name="a" unicode="a" horiz-adv-x="544" d="M464 106 L461 318 C460 434 400 510 274 510 C141 510 72 434 72 318 L132 318 C132 402 169 454 273 454 C369 454 404 395 405 314 L405 290 L190 258 C106 245 53 202 53 122 C53 40 111 -10 205 -10 C287 -10 367 29 409 88 C411 59 414 29 425 0 L476 0 L476 6 C469 35 464 71 464 106 L464 106 Z M206 44 C145 44 114 80 114 123 C114 162 136 194 205 205 L406 235 L407 178 C386 95 298 44 206 44 L206 44 Z " />
<glyph glyph-name="b" unicode="b" horiz-adv-x="605" d="M336 510 C255 510 184 476 144 420 L144 750 L88 750 L88 0 L143 0 L143 77 C180 22 246 -10 320 -10 C458 -10 556 92 556 249 C556 405 466 510 336 510 L336 510 Z M320 45 C234 45 165 101 144 186 L144 312 C165 397 237 455 322 455 C419 455 496 389 496 249 C496 109 416 45 320 45 L320 45 Z " />
<glyph glyph-name="c" unicode="c" horiz-adv-x="546" d="M282 -10 C399 -10 488 56 502 180 L441 180 C429 85 361 47 284 47 C194 47 110 114 110 249 C110 385 189 453 284 453 C358 453 431 417 442 320 L502 320 C490 450 396 510 286 510 C155 510 50 413 50 249 C50 81 153 -10 282 -10 L282 -10 Z " />
<glyph glyph-name="d" unicode="d" horiz-adv-x="607" d="M517 96 L517 750 L461 750 L461 421 C423 477 356 510 275 510 C145 510 50 405 50 249 C50 92 139 -12 270 -12 C352 -12 423 22 463 79 C465 50 470 21 477 0 L530 0 L530 6 C522 34 517 67 517 96 L517 96 Z M282 43 C183 43 109 109 109 249 C109 389 184 455 283 455 C369 455 440 397 461 312 L461 186 C440 101 368 43 282 43 L282 43 Z " />
<glyph glyph-name="e" unicode="e" horiz-adv-x="554" d="M505 243 C505 416 413 510 285 510 C155 510 50 411 50 250 C50 82 155 -10 278 -10 C391 -10 482 48 499 161 L439 161 C421 80 355 48 278 48 C198 48 121 107 111 232 L505 232 L505 243 Z M283 452 C369 452 431 400 440 290 L112 290 C121 399 201 452 283 452 L283 452 Z " />
<glyph glyph-name="f" unicode="f" horiz-adv-x="332" d="M255 706 C279 706 304 704 325 700 L325 754 C305 758 276 760 257 760 C156 760 112 707 112 624 L112 500 L27 500 L27 446 L112 446 L112 0 L168 0 L168 446 L318 446 L318 500 L168 500 L168 613 C168 675 193 706 255 706 L255 706 Z " />
<glyph glyph-name="g" unicode="g" horiz-adv-x="517" d="M485 500 L318 500 C297 506 275 510 251 510 C143 510 47 445 47 327 C47 244 90 189 151 163 C132 141 120 115 120 87 C120 35 160 5 232 -2 L340 -12 C397 -17 423 -43 423 -83 C423 -135 368 -168 259 -168 C144 -168 91 -123 91 -54 L31 -54 C31 -158 105 -224 255 -224 C404 -224 482 -173 482 -83 C482 -8 434 36 342 45 L264 53 C203 58 181 71 181 98 C181 116 190 131 206 147 C220 145 233 144 247 144 C356 144 452 208 452 329 C452 382 432 421 399 451 C429 449 462 447 485 447 L485 500 Z M249 200 C174 200 105 236 105 327 C105 417 174 455 249 454 C326 452 394 414 394 326 C394 236 326 200 249 200 L249 200 Z " />
<glyph glyph-name="h" unicode="h" horiz-adv-x="594" d="M326 510 C247 510 182 474 144 417 L144 750 L88 750 L88 0 L144 0 L144 312 C165 397 236 455 319 455 C418 455 457 400 457 302 L457 0 L513 0 L513 302 C513 428 454 510 326 510 L326 510 Z " />
<glyph glyph-name="i" unicode="i" horiz-adv-x="233" d="M72 658 C72 630 93 615 116 615 C140 615 161 630 161 658 C161 686 140 701 116 701 C93 701 72 686 72 658 L72 658 Z M88 0 L144 0 L144 500 L88 500 L88 0 Z " />
<glyph glyph-name="j" unicode="j" horiz-adv-x="241" d="M80 658 C80 630 101 615 125 615 C148 615 169 630 169 658 C169 686 148 701 125 701 C101 701 80 686 80 658 L80 658 Z M152 -106 L152 500 L96 500 L96 -97 C96 -144 73 -170 27 -170 C12 -170 -4 -168 -16 -165 L-16 -220 C-6 -222 15 -224 27 -224 C113 -224 152 -175 152 -106 L152 -106 Z " />
<glyph glyph-name="k" unicode="k" horiz-adv-x="516" d="M88 0 L144 0 L144 750 L88 750 L88 0 Z M239 267 L501 500 L420 500 L159 267 L429 0 L509 0 L239 267 Z " />
<glyph glyph-name="l" unicode="l" horiz-adv-x="233" d="M88 0 L144 0 L144 750 L88 750 L88 0 Z " />
<glyph glyph-name="m" unicode="m" horiz-adv-x="872" d="M627 510 C549 510 486 466 456 400 C434 465 385 510 303 510 C233 510 176 476 142 422 L142 500 L88 500 L88 0 L144 0 L144 318 C168 399 221 455 293 455 C375 455 413 406 413 317 L413 0 L469 0 L469 317 C493 396 546 455 617 455 C698 455 735 406 735 317 L735 0 L791 0 L791 317 C791 433 739 510 627 510 L627 510 Z " />
<glyph glyph-name="n" unicode="n" horiz-adv-x="593" d="M324 510 C245 510 179 473 142 415 L142 500 L88 500 L88 0 L144 0 L144 312 C165 397 230 455 313 455 C411 455 456 400 456 307 L456 0 L512 0 L512 307 C512 427 452 510 324 510 L324 510 Z " />
<glyph glyph-name="o" unicode="o" horiz-adv-x="584" d="M535 252 C535 417 427 510 296 510 C163 510 49 415 49 250 C49 81 157 -10 287 -10 C421 -10 535 87 535 252 L535 252 Z M475 249 C475 110 387 45 292 45 C197 45 109 113 109 251 C109 390 197 455 292 455 C387 455 475 387 475 249 L475 249 Z " />
<glyph glyph-name="p" unicode="p" horiz-adv-x="605" d="M338 510 C253 510 181 475 143 416 L143 500 L88 500 L88 -214 L144 -214 L144 76 C182 22 248 -10 326 -10 C457 -10 556 95 556 251 C556 408 464 510 338 510 L338 510 Z M320 45 C234 45 165 104 144 191 L144 314 C165 399 237 455 322 455 C419 455 496 391 496 251 C496 111 419 45 320 45 L320 45 Z " />
<glyph glyph-name="q" unicode="q" horiz-adv-x="605" d="M463 500 L463 424 C426 479 362 512 282 512 C151 512 50 408 50 251 C50 95 138 -10 266 -10 C349 -10 420 24 461 80 L461 -214 L517 -214 L517 500 L463 500 Z M281 45 C182 45 109 111 109 251 C109 391 190 457 289 457 C375 457 440 399 461 314 L461 188 C440 103 366 45 281 45 L281 45 Z " />
<glyph glyph-name="r" unicode="r" horiz-adv-x="343" d="M294 510 C228 510 174 476 142 415 L142 500 L88 500 L88 0 L144 0 L144 298 C160 397 218 451 279 451 C294 451 312 450 324 449 L324 509 C317 510 304 510 294 510 L294 510 Z " />
<glyph glyph-name="s" unicode="s" horiz-adv-x="506" d="M302 277 L233 285 C155 295 119 320 119 369 C119 418 156 451 242 453 C340 456 388 409 388 327 L447 327 C447 431 384 510 249 510 C118 510 58 444 58 362 C58 291 103 240 208 230 L284 220 C354 213 396 187 396 133 C396 79 347 46 251 47 C150 47 102 99 102 172 L44 172 C44 67 111 -10 247 -10 C392 -10 457 53 457 133 C457 211 410 265 302 277 L302 277 Z " />
<glyph glyph-name="t" unicode="t" horiz-adv-x="338" d="M245 43 C182 43 162 72 162 133 L162 446 L312 446 L312 500 L162 500 L162 648 L106 648 L106 500 L21 500 L21 446 L106 446 L106 121 C106 40 138 -10 236 -10 C259 -10 299 -6 320 3 L320 55 C299 46 268 43 245 43 L245 43 Z " />
<glyph glyph-name="u" unicode="u" horiz-adv-x="589" d="M499 96 L499 500 L443 500 L443 188 C423 103 360 45 278 45 C180 45 137 100 137 195 L137 500 L81 500 L81 196 C81 75 138 -10 267 -10 C345 -10 409 26 445 84 C447 53 451 23 459 0 L512 0 L512 6 C505 34 499 67 499 96 L499 96 Z " />
<glyph glyph-name="v" unicode="v" horiz-adv-x="511" d="M17 500 L223 0 L289 0 L493 500 L434 500 L318 215 C300 170 271 94 257 54 C241 94 213 170 196 212 L81 500 L17 500 Z " />
<glyph glyph-name="w" unicode="w" horiz-adv-x="789" d="M523 196 L424 500 L365 500 L267 198 C253 156 236 98 225 58 C214 98 196 156 183 196 L80 500 L18 500 L193 0 L258 0 L366 330 C376 361 388 405 396 433 C402 405 414 361 424 330 L531 0 L596 0 L771 500 L712 500 L609 198 C593 154 576 96 565 58 C554 97 537 154 523 196 L523 196 Z " />
<glyph glyph-name="x" unicode="x" horiz-adv-x="515" d="M295 262 L486 500 L415 500 L311 363 C284 330 267 306 259 296 C251 308 231 335 208 363 L102 500 L28 500 L218 262 L14 0 L85 0 L192 142 C219 177 245 214 253 226 C260 217 288 179 319 140 L426 0 L500 0 L295 262 Z " />
<glyph glyph-name="y" unicode="y" horiz-adv-x="509" d="M433 500 L316 210 C294 157 269 91 256 56 C242 91 217 156 197 207 L80 500 L17 500 L226 5 L172 -111 C151 -156 129 -172 83 -172 C67 -172 51 -169 39 -167 L39 -219 C50 -222 68 -224 82 -224 C169 -224 188 -197 223 -126 L282 0 L492 500 L433 500 Z " />
<glyph glyph-name="z" unicode="z" horiz-adv-x="474" d="M185 141 L427 457 L427 500 L47 500 L47 445 L226 445 C258 445 323 447 358 448 C336 423 295 373 276 348 L41 43 L41 0 L436 0 L436 55 L229 55 C201 55 147 53 116 52 C134 76 168 118 185 141 L185 141 Z " />
<glyph glyph-name="braceleft" unicode="&#x7b;" horiz-adv-x="377" d="M185 -56 L185 190 C185 234 166 273 128 285 C166 298 185 337 185 381 L185 628 C185 668 201 693 243 693 L354 693 L354 750 L247 750 C160 750 125 696 125 622 L125 383 C125 329 93 313 52 313 L23 313 L23 258 L52 258 C93 258 125 242 125 188 L125 -52 C125 -126 160 -180 247 -180 L354 -180 L354 -121 L243 -121 C201 -121 185 -96 185 -56 L185 -56 Z " />
<glyph glyph-name="bar" unicode="&#x7c;" horiz-adv-x="251" d="M98 -286 L153 -286 L153 780 L98 780 L98 -286 Z " />
<glyph glyph-name="braceright" unicode="&#x7d;" horiz-adv-x="377" d="M192 -56 C192 -96 176 -121 134 -121 L23 -121 L23 -180 L130 -180 C217 -180 252 -126 252 -52 L252 188 C252 242 284 258 325 258 L354 258 L354 313 L325 313 C284 313 252 329 252 383 L252 622 C252 696 217 750 130 750 L23 750 L23 693 L134 693 C176 693 192 668 192 628 L192 381 C192 337 211 298 249 285 C211 273 192 234 192 190 L192 -56 Z " />
<glyph glyph-name="asciitilde" unicode="&#x7e;" horiz-adv-x="576" d="M76 228 L133 228 C133 273 154 299 200 299 C260 299 294 225 376 225 C441 225 502 271 502 353 L445 353 C445 304 413 282 378 282 C319 282 284 356 204 356 C126 356 76 310 76 228 L76 228 Z " />
<glyph glyph-name="exclamdown" unicode="&#xa1;" horiz-adv-x="251" d="M84 660 C84 634 105 620 126 620 C146 620 167 634 167 660 C167 685 146 700 126 700 C105 700 84 685 84 660 L84 660 Z M94 0 L157 0 L153 502 L99 502 L94 0 Z " />
<glyph glyph-name="cent" unicode="&#xa2;" horiz-adv-x="539" d="M278 143 C188 143 108 209 108 344 C108 480 188 547 282 547 C355 547 427 513 439 415 L499 415 C487 535 409 595 310 604 L310 711 L252 711 L252 603 C136 588 47 494 47 344 C47 185 136 96 252 86 L252 -21 L310 -21 L310 87 C407 100 486 164 499 275 L439 275 C425 180 353 143 278 143 L278 143 Z " />
<glyph glyph-name="sterling" unicode="&#xa3;" horiz-adv-x="589" d="M222 55 C176 55 141 53 141 53 C141 53 171 72 171 126 L171 333 L411 333 L411 387 L171 387 L171 457 C171 591 235 645 327 645 C421 645 478 589 478 493 L538 493 C538 625 453 700 328 700 C199 700 113 616 113 455 L113 387 L53 387 L53 333 L113 333 L113 129 C113 87 95 59 66 59 L54 59 L54 0 L540 0 L540 55 L222 55 Z " />
<glyph glyph-name="currency" unicode="&#xa4;" horiz-adv-x="579" d="M500 333 C500 382 484 427 457 462 L515 520 L477 557 L420 500 C384 528 339 544 289 544 C239 544 194 528 159 501 L103 557 L65 520 L121 464 C94 428 78 383 78 333 C78 283 94 238 121 202 L65 146 L103 109 L158 164 C194 137 239 121 289 121 C339 121 385 137 420 165 L477 109 L515 146 L458 203 C484 239 500 284 500 333 L500 333 Z M130 333 C130 423 197 493 289 493 C381 493 448 423 448 333 C448 242 381 172 289 172 C197 172 130 242 130 333 L130 333 Z " />
<glyph glyph-name="yen" unicode="&#xa5;" horiz-adv-x="588" d="M556 690 L488 690 L336 455 C320 431 304 405 293 387 L251 455 L103 690 L31 690 L238 376 L86 376 L86 318 L265 318 L265 202 L86 202 L86 144 L265 144 L265 0 L323 0 L323 144 L501 144 L501 202 L323 202 L323 318 L501 318 L501 376 L347 376 L556 690 Z " />
<glyph glyph-name="brokenbar" unicode="&#xa6;" horiz-adv-x="251" d="M98 370 L153 370 L153 780 L98 780 L98 370 Z M98 -286 L153 -286 L153 160 L98 160 L98 -286 Z " />
<glyph glyph-name="section" unicode="&#xa7;" horiz-adv-x="606" d="M450 110 C503 137 539 185 539 240 C539 339 482 394 345 413 L291 420 C178 436 139 465 139 530 C139 605 204 644 292 644 C405 644 464 583 464 487 L521 487 C521 609 443 700 298 700 C159 700 79 625 79 524 C79 464 104 421 171 393 C99 368 57 308 57 238 C57 146 131 93 255 83 L336 76 C433 68 493 38 493 -45 C493 -131 408 -168 301 -168 C163 -168 92 -97 92 -2 L35 -2 C35 -133 124 -224 298 -224 C451 -224 554 -157 554 -46 C554 29 520 83 450 110 L450 110 Z M273 138 C159 149 117 185 117 241 C117 305 170 354 252 369 L293 363 L326 358 C427 345 480 312 480 244 C480 180 431 144 371 128 L273 138 Z " />
<glyph glyph-name="dieresis" unicode="&#xa8;" horiz-adv-x="600" d="M58 658 C58 627 82 611 107 611 C132 611 156 627 156 658 C156 689 132 705 107 705 C82 705 58 689 58 658 L58 658 Z M247 658 C247 627 271 611 296 611 C321 611 345 627 345 658 C345 689 321 705 296 705 C271 705 247 689 247 658 L247 658 Z " />
<glyph glyph-name="copyright" unicode="&#xa9;" horiz-adv-x="798" d="M747 348 C747 573 589 700 404 700 C217 700 53 571 53 345 C53 114 210 -10 394 -10 C582 -10 747 122 747 348 L747 348 Z M690 344 C690 139 548 45 396 45 C245 45 109 142 109 346 C109 551 250 645 401 645 C553 645 690 548 690 344 L690 344 Z M554 282 L497 282 C492 228 448 203 394 203 C331 203 272 249 272 346 C272 442 325 487 389 487 C449 487 488 459 497 408 L555 408 C548 488 482 537 391 537 C295 537 216 468 216 345 C216 220 298 153 392 153 C478 153 549 199 554 282 L554 282 Z " />
<glyph glyph-name="ordfeminine" unicode="&#xaa;" horiz-adv-x="462" d="M386 376 L385 543 C384 632 339 698 234 698 C128 698 71 637 71 545 L123 545 C123 609 155 646 232 646 C303 646 333 603 333 540 L333 524 L165 499 C96 489 53 451 53 388 C53 323 99 282 175 282 C240 282 303 312 336 359 C338 336 341 311 348 290 L397 290 L397 295 C390 318 386 350 386 376 L386 376 Z M179 330 C133 330 109 357 109 389 C109 420 127 445 179 453 L333 477 L334 432 C318 370 249 330 179 330 L179 330 Z " />
<glyph glyph-name="guillemotleft" unicode="&#xab;" horiz-adv-x="512" d="M177 449 L49 274 L49 230 L177 54 L245 55 L104 254 L245 449 L177 449 Z M460 449 L392 449 L264 274 L264 230 L392 54 L460 55 L319 254 L460 449 Z " />
<glyph glyph-name="logicalnot" unicode="&#xac;" horiz-adv-x="543" d="M466 414 L52 414 L52 359 L407 359 L407 120 L466 120 L466 414 Z " />
<glyph glyph-name="uni00AD" unicode="&#xad;" horiz-adv-x="452" d="M70 308 L70 254 L383 254 L383 308 L70 308 Z " />
<glyph glyph-name="registered" unicode="&#xae;" horiz-adv-x="798" d="M404 700 C217 700 53 571 53 345 C53 114 210 -10 394 -10 C582 -10 747 122 747 348 C747 573 589 700 404 700 L404 700 Z M396 45 C245 45 109 142 109 346 C109 551 250 645 401 645 C553 645 690 548 690 344 C690 139 548 45 396 45 L396 45 Z M541 245 C523 301 500 322 477 328 C519 342 549 372 549 419 C549 493 505 527 415 527 L256 527 L256 157 L313 157 L313 307 L389 307 C440 307 466 301 481 251 L494 204 C498 191 503 172 515 157 L573 157 L573 160 C564 174 558 189 552 209 L541 245 Z M313 358 L313 476 L402 476 C464 476 492 458 492 415 C492 372 462 358 416 358 L313 358 Z " />
<glyph glyph-name="macron" unicode="&#xaf;" horiz-adv-x="600" d="M50 669 L50 615 L321 615 L321 669 L50 669 Z " />
<glyph glyph-name="degree" unicode="&#xb0;" horiz-adv-x="417" d="M209 382 C297 382 368 448 368 541 C368 635 297 699 209 699 C119 699 48 635 48 541 C48 447 119 382 209 382 L209 382 Z M209 443 C156 443 112 480 112 541 C112 602 156 638 209 638 C260 638 304 602 304 541 C304 480 260 443 209 443 L209 443 Z " />
<glyph glyph-name="plusminus" unicode="&#xb1;" horiz-adv-x="490" d="M273 378 L273 530 L218 530 L218 378 L67 378 L67 324 L218 324 L218 174 L273 174 L273 324 L423 324 L423 378 L273 378 Z M67 57 L423 57 L423 111 L67 111 L67 57 Z " />
<glyph glyph-name="acute" unicode="&#xb4;" horiz-adv-x="600" d="M250 730 L175 730 L50 584 L50 575 L97 575 L250 721 L250 730 Z " />
<glyph glyph-name="paragraph" unicode="&#xb6;" horiz-adv-x="628" d="M518 690 L265 690 C113 690 30 626 30 502 C30 378 116 310 271 310 L323 310 L323 -214 L379 -214 L379 637 L461 637 L461 -214 L518 -214 L518 690 Z " />
<glyph glyph-name="periodcentered" unicode="&#xb7;" horiz-adv-x="235" d="M72 327 C72 299 93 285 118 285 C142 285 163 299 163 327 C163 355 142 370 118 370 C93 370 72 355 72 327 L72 327 Z " />
<glyph glyph-name="cedilla" unicode="&#xb8;" horiz-adv-x="600" d="M167 -41 L184 13 L132 12 L107 -62 L137 -87 C142 -86 151 -85 159 -85 C189 -85 210 -102 210 -131 C210 -164 184 -177 156 -177 C124 -177 105 -161 105 -140 L52 -140 C52 -182 86 -224 155 -224 C222 -224 261 -184 261 -128 C261 -72 217 -40 167 -41 L167 -41 Z " />
<glyph glyph-name="ordmasculine" unicode="&#xba;" horiz-adv-x="490" d="M442 492 C442 623 357 698 250 698 C139 698 49 622 49 490 C49 355 134 282 243 282 C352 282 442 360 442 492 L442 492 Z M387 489 C387 383 321 334 246 334 C170 334 104 385 104 491 C104 597 170 646 246 646 C321 646 387 595 387 489 L387 489 Z " />
<glyph glyph-name="guillemotright" unicode="&#xbb;" horiz-adv-x="512" d="M52 449 L193 254 L52 55 L120 54 L248 230 L248 274 L120 449 L52 449 Z M335 449 L267 449 L408 254 L267 55 L335 54 L463 230 L463 274 L335 449 Z " />
<glyph glyph-name="onequarter" unicode="&#xbc;" horiz-adv-x="763" d="M540 700 L127 -10 L186 -10 L599 700 L540 700 Z M133 276 L189 276 L189 690 L150 690 C109 655 72 630 32 615 L32 564 C68 577 102 594 133 617 L133 276 Z M666 146 L666 414 L599 414 L395 144 L395 95 L612 95 L612 0 L666 0 L666 95 L727 95 L727 146 L666 146 Z M612 281 L612 146 L520 146 C502 146 476 145 457 145 C468 158 482 178 493 192 L572 296 L614 354 C613 330 612 298 612 281 L612 281 Z " />
<glyph glyph-name="onehalf" unicode="&#xbd;" horiz-adv-x="817" d="M536 700 L123 -10 L182 -10 L595 700 L536 700 Z M133 276 L189 276 L189 690 L150 690 C109 655 72 630 32 615 L32 564 C68 577 102 594 133 617 L133 276 Z M628 50 C599 50 576 49 559 48 C696 164 764 208 764 300 C764 368 710 420 628 420 C542 420 482 363 482 275 L540 275 C540 333 571 369 626 369 C677 369 706 338 706 295 C706 252 679 222 643 191 L476 46 L476 0 L777 0 L777 50 L628 50 Z " />
<glyph glyph-name="threequarters" unicode="&#xbe;" horiz-adv-x="865" d="M644 700 L231 -10 L290 -10 L703 700 L644 700 Z M341 391 C341 440 315 477 270 490 C304 507 326 544 326 582 C326 644 275 696 193 696 C105 696 47 643 47 558 L103 558 C103 614 134 645 190 645 C243 645 269 616 269 574 C269 535 238 510 200 510 L131 510 L131 461 L201 461 C245 461 283 439 283 392 C283 349 248 320 190 320 C129 320 96 353 96 408 L39 408 C39 324 95 270 190 270 C281 270 341 319 341 391 L341 391 Z M770 146 L770 414 L703 414 L499 144 L499 95 L716 95 L716 0 L770 0 L770 95 L831 95 L831 146 L770 146 Z M716 281 L716 146 L623 146 C605 146 580 145 560 145 C572 158 586 178 597 192 L675 296 C687 311 704 335 718 354 C717 330 716 298 716 281 L716 281 Z " />
<glyph glyph-name="questiondown" unicode="&#xbf;" horiz-adv-x="551" d="M318 657 C318 685 297 700 274 700 C250 700 229 685 229 657 C229 629 250 615 274 615 C297 615 318 629 318 657 L318 657 Z M100 181 C100 253 139 291 189 325 C274 382 304 436 304 547 L242 548 C242 460 220 418 174 388 C109 342 38 290 38 189 C38 80 113 -10 268 -10 C431 -10 518 83 518 216 L460 216 C460 108 393 45 269 48 C161 51 100 99 100 181 L100 181 Z " />
<glyph glyph-name="Agrave" unicode="&#xc0;" horiz-adv-x="682" d="M369 754 L369 763 L244 889 L169 889 L169 880 L322 754 L369 754 Z M606 0 L670 0 L374 690 L302 690 L18 0 L79 0 L165 208 L518 208 L606 0 Z M188 265 L253 422 L340 639 C356 596 393 504 428 421 L494 265 L188 265 Z " />
<glyph glyph-name="Aacute" unicode="&#xc1;" horiz-adv-x="682" d="M522 880 L522 889 L447 889 L322 763 L322 754 L370 754 L522 880 Z M606 0 L670 0 L374 690 L302 690 L18 0 L79 0 L165 208 L518 208 L606 0 Z M188 265 L253 422 L340 639 C356 596 393 504 428 421 L494 265 L188 265 Z " />
<glyph glyph-name="Acircumflex" unicode="&#xc2;" horiz-adv-x="682" d="M344 838 L427 754 L481 754 L481 763 L371 889 L316 889 L206 763 L206 754 L260 754 L344 838 Z M606 0 L670 0 L374 690 L302 690 L18 0 L79 0 L165 208 L518 208 L606 0 Z M188 265 L253 422 L340 639 C356 596 393 504 428 421 L494 265 L188 265 Z " />
<glyph glyph-name="Atilde" unicode="&#xc3;" horiz-adv-x="682" d="M282 819 C318 819 344 768 412 768 C469 768 501 806 501 877 L447 877 C447 842 435 827 403 827 C367 827 340 878 272 878 C216 878 184 840 184 768 L238 768 C238 804 251 819 282 819 L282 819 Z M606 0 L670 0 L374 690 L302 690 L18 0 L79 0 L165 208 L518 208 L606 0 Z M188 265 L253 422 L340 639 C356 596 393 504 428 421 L494 265 L188 265 Z " />
<glyph glyph-name="Adieresis" unicode="&#xc4;" horiz-adv-x="682" d="M249 774 C274 774 298 790 298 821 C298 852 274 868 249 868 C224 868 200 852 200 821 C200 790 224 774 249 774 L249 774 Z M438 774 C463 774 487 790 487 821 C487 852 463 868 438 868 C413 868 389 852 389 821 C389 790 413 774 438 774 L438 774 Z M606 0 L670 0 L374 690 L302 690 L18 0 L79 0 L165 208 L518 208 L606 0 Z M188 265 L253 422 L340 639 C356 596 393 504 428 421 L494 265 L188 265 Z " />
<glyph glyph-name="Aring" unicode="&#xc5;" horiz-adv-x="682" d="M606 0 L670 0 L382 672 C426 686 456 727 456 778 C456 842 408 888 344 888 C278 888 230 842 230 778 C230 730 256 692 296 675 L18 0 L79 0 L165 208 L518 208 L606 0 Z M278 778 C278 815 305 840 344 840 C381 840 408 815 408 778 C408 741 381 714 344 714 C305 714 278 741 278 778 L278 778 Z M188 265 L253 422 L340 639 C356 596 393 504 428 421 L494 265 L188 265 Z " />
<glyph glyph-name="AE" unicode="&#xc6;" horiz-adv-x="1039" d="M556 55 L556 333 L933 333 L933 388 L556 388 L556 635 L985 635 L985 690 L496 690 L-10 0 L60 0 L232 235 L498 235 L498 0 L989 0 L989 55 L556 55 Z M274 293 L468 558 L498 601 L498 293 L274 293 Z " />
<glyph glyph-name="Ccedilla" unicode="&#xc7;" horiz-adv-x="713" d="M374 45 C239 45 112 142 112 346 C112 551 238 645 371 645 C490 645 596 584 610 458 L667 458 C658 613 529 700 375 700 C203 700 53 571 53 345 C53 120 195 -4 358 -10 L340 -62 L370 -87 C375 -86 385 -85 393 -85 C422 -85 443 -102 443 -131 C443 -164 417 -177 389 -177 C358 -177 339 -161 339 -140 L285 -140 C285 -182 319 -224 388 -224 C455 -224 494 -184 494 -128 C494 -72 450 -40 400 -41 L410 -8 C548 6 656 91 667 232 L610 232 C595 103 493 45 374 45 L374 45 Z " />
<glyph glyph-name="Egrave" unicode="&#xc8;" horiz-adv-x="641" d="M366 754 L366 763 L241 889 L166 889 L166 880 L318 754 L366 754 Z M158 55 L158 333 L535 333 L535 388 L158 388 L158 635 L587 635 L587 690 L100 690 L100 0 L590 0 L590 55 L158 55 Z " />
<glyph glyph-name="Eacute" unicode="&#xc9;" horiz-adv-x="641" d="M519 880 L519 889 L444 889 L319 763 L319 754 L366 754 L519 880 Z M158 55 L158 333 L535 333 L535 388 L158 388 L158 635 L587 635 L587 690 L100 690 L100 0 L590 0 L590 55 L158 55 Z " />
<glyph glyph-name="Ecircumflex" unicode="&#xca;" horiz-adv-x="641" d="M341 838 L424 754 L478 754 L478 763 L368 889 L313 889 L203 763 L203 754 L257 754 L341 838 Z M158 55 L158 333 L535 333 L535 388 L158 388 L158 635 L587 635 L587 690 L100 690 L100 0 L590 0 L590 55 L158 55 Z " />
<glyph glyph-name="Edieresis" unicode="&#xcb;" horiz-adv-x="641" d="M246 774 C271 774 295 790 295 821 C295 852 271 868 246 868 C221 868 197 852 197 821 C197 790 221 774 246 774 L246 774 Z M435 774 C460 774 484 790 484 821 C484 852 460 868 435 868 C410 868 386 852 386 821 C386 790 410 774 435 774 L435 774 Z M158 55 L158 333 L535 333 L535 388 L158 388 L158 635 L587 635 L587 690 L100 690 L100 0 L590 0 L590 55 L158 55 Z " />
<glyph glyph-name="Igrave" unicode="&#xcc;" horiz-adv-x="257" d="M154 763 L29 889 L-46 889 L-46 880 L106 754 L154 754 L154 763 Z M100 0 L158 0 L158 690 L100 690 L100 0 Z " />
<glyph glyph-name="Iacute" unicode="&#xcd;" horiz-adv-x="257" d="M307 889 L232 889 L107 763 L107 754 L154 754 L307 880 L307 889 Z M100 0 L158 0 L158 690 L100 690 L100 0 Z " />
<glyph glyph-name="Icircumflex" unicode="&#xce;" horiz-adv-x="257" d="M155 889 L102 889 L22 763 L22 754 L73 754 L126 828 L179 754 L235 754 L235 763 L155 889 Z M100 0 L158 0 L158 690 L100 690 L100 0 Z " />
<glyph glyph-name="Idieresis" unicode="&#xcf;" horiz-adv-x="257" d="M11 823 C11 793 34 775 58 775 C82 775 105 793 105 823 C105 854 82 870 58 870 C34 870 11 854 11 823 L11 823 Z M154 823 C154 793 178 775 203 775 C227 775 250 793 250 823 C250 854 227 870 203 870 C178 870 154 854 154 823 L154 823 Z M100 0 L158 0 L158 690 L100 690 L100 0 Z " />
<glyph glyph-name="Eth" unicode="&#xd0;" horiz-adv-x="749" d="M378 690 L104 690 L104 373 L31 373 L31 319 L104 319 L104 0 L370 0 C548 0 696 122 696 346 C696 571 555 690 378 690 L378 690 Z M370 55 L162 55 L162 319 L300 319 L300 373 L162 373 L162 635 L370 635 C510 635 637 548 637 346 C637 141 510 55 370 55 L370 55 Z " />
<glyph glyph-name="Ntilde" unicode="&#xd1;" horiz-adv-x="772" d="M228 768 L282 768 C282 804 295 819 326 819 C362 819 388 768 456 768 C513 768 545 806 545 877 L491 877 C491 842 479 827 447 827 C411 827 384 878 316 878 C260 878 228 840 228 768 L228 768 Z M613 690 L612 228 C612 162 616 95 619 53 C600 87 568 140 533 187 L168 690 L100 690 L100 0 L159 0 L160 479 C160 528 156 594 154 636 C174 601 206 548 238 504 L604 0 L672 0 L672 690 L613 690 Z " />
<glyph glyph-name="Ograve" unicode="&#xd2;" horiz-adv-x="787" d="M419 763 L294 889 L218 889 L218 880 L371 754 L419 754 L419 763 Z M734 348 C734 573 580 700 398 700 C212 700 53 571 53 345 C53 114 205 -10 387 -10 C573 -10 734 122 734 348 L734 348 Z M675 344 C675 139 540 45 392 45 C246 45 112 142 112 346 C112 551 246 645 392 645 C540 645 675 548 675 344 L675 344 Z " />
<glyph glyph-name="Oacute" unicode="&#xd3;" horiz-adv-x="787" d="M572 889 L497 889 L372 763 L372 754 L419 754 L572 880 L572 889 Z M734 348 C734 573 580 700 398 700 C212 700 53 571 53 345 C53 114 205 -10 387 -10 C573 -10 734 122 734 348 L734 348 Z M675 344 C675 139 540 45 392 45 C246 45 112 142 112 346 C112 551 246 645 392 645 C540 645 675 548 675 344 L675 344 Z " />
<glyph glyph-name="Ocircumflex" unicode="&#xd4;" horiz-adv-x="787" d="M398 838 L482 754 L536 754 L536 763 L425 889 L370 889 L260 763 L260 754 L314 754 L398 838 Z M398 700 C212 700 53 571 53 345 C53 114 205 -10 387 -10 C573 -10 734 122 734 348 C734 573 580 700 398 700 L398 700 Z M392 45 C246 45 112 142 112 346 C112 551 246 645 392 645 C540 645 675 548 675 344 C675 139 540 45 392 45 L392 45 Z " />
<glyph glyph-name="Otilde" unicode="&#xd5;" horiz-adv-x="787" d="M234 768 L287 768 C287 804 300 819 331 819 C367 819 393 768 462 768 C518 768 550 806 550 877 L497 877 C497 842 484 827 453 827 C416 827 389 878 322 878 C266 878 234 840 234 768 L234 768 Z M734 348 C734 573 580 700 398 700 C212 700 53 571 53 345 C53 114 205 -10 387 -10 C573 -10 734 122 734 348 L734 348 Z M675 344 C675 139 540 45 392 45 C246 45 112 142 112 346 C112 551 246 645 392 645 C540 645 675 548 675 344 L675 344 Z " />
<glyph glyph-name="Odieresis" unicode="&#xd6;" horiz-adv-x="787" d="M250 821 C250 790 274 774 299 774 C324 774 348 790 348 821 C348 852 324 868 299 868 C274 868 250 852 250 821 L250 821 Z M439 821 C439 790 463 774 488 774 C513 774 537 790 537 821 C537 852 513 868 488 868 C463 868 439 852 439 821 L439 821 Z M734 348 C734 573 580 700 398 700 C212 700 53 571 53 345 C53 114 205 -10 387 -10 C573 -10 734 122 734 348 L734 348 Z M675 344 C675 139 540 45 392 45 C246 45 112 142 112 346 C112 551 246 645 392 645 C540 645 675 548 675 344 L675 344 Z " />
<glyph glyph-name="multiply" unicode="&#xd7;" horiz-adv-x="511" d="M452 448 L415 486 L256 327 L97 486 L59 448 L218 290 L59 131 L97 94 L256 252 L415 94 L452 131 L293 290 L452 448 Z " />
<glyph glyph-name="Oslash" unicode="&#xd8;" horiz-adv-x="803" d="M750 651 L707 693 L632 618 C572 672 492 700 406 700 C221 700 61 571 61 345 C61 250 87 173 130 116 L43 29 L86 -13 L170 71 C230 18 309 -10 395 -10 C582 -10 743 122 743 348 C743 441 717 517 673 574 L750 651 Z M120 346 C120 551 254 645 401 645 C472 645 539 623 591 577 L172 158 C140 205 120 268 120 346 L120 346 Z M683 344 C683 139 548 45 401 45 C331 45 263 67 212 113 L631 532 C663 484 683 422 683 344 L683 344 Z " />
<glyph glyph-name="Ugrave" unicode="&#xd9;" horiz-adv-x="740" d="M396 763 L271 889 L196 889 L196 880 L348 754 L396 754 L396 763 Z M650 284 L650 690 L592 690 L592 291 C592 104 487 47 369 47 C253 47 148 106 148 293 L148 690 L90 690 L90 286 C90 69 215 -10 365 -10 C521 -10 650 74 650 284 L650 284 Z " />
<glyph glyph-name="Uacute" unicode="&#xda;" horiz-adv-x="740" d="M549 889 L474 889 L349 763 L349 754 L396 754 L549 880 L549 889 Z M650 284 L650 690 L592 690 L592 291 C592 104 487 47 369 47 C253 47 148 106 148 293 L148 690 L90 690 L90 286 C90 69 215 -10 365 -10 C521 -10 650 74 650 284 L650 284 Z " />
<glyph glyph-name="Ucircumflex" unicode="&#xdb;" horiz-adv-x="740" d="M371 838 L454 754 L508 754 L508 763 L398 889 L343 889 L233 763 L233 754 L287 754 L371 838 Z M592 690 L592 291 C592 104 487 47 369 47 C253 47 148 106 148 293 L148 690 L90 690 L90 286 C90 69 215 -10 365 -10 C521 -10 650 74 650 284 L650 690 L592 690 Z " />
<glyph glyph-name="Udieresis" unicode="&#xdc;" horiz-adv-x="740" d="M227 821 C227 790 251 774 276 774 C301 774 325 790 325 821 C325 852 301 868 276 868 C251 868 227 852 227 821 L227 821 Z M416 821 C416 790 440 774 465 774 C490 774 514 790 514 821 C514 852 490 868 465 868 C440 868 416 852 416 821 L416 821 Z M650 284 L650 690 L592 690 L592 291 C592 104 487 47 369 47 C253 47 148 106 148 293 L148 690 L90 690 L90 286 C90 69 215 -10 365 -10 C521 -10 650 74 650 284 L650 284 Z " />
<glyph glyph-name="Yacute" unicode="&#xdd;" horiz-adv-x="644" d="M501 880 L501 889 L425 889 L300 763 L300 754 L348 754 L501 880 Z M623 690 L555 690 L426 510 C386 452 341 388 321 358 C302 388 259 452 220 507 L92 690 L20 690 L293 312 L293 0 L351 0 L351 312 L623 690 Z " />
<glyph glyph-name="Thorn" unicode="&#xde;" horiz-adv-x="669" d="M399 533 L158 533 L158 690 L100 690 L100 0 L158 0 L158 168 L393 168 C546 168 626 233 626 354 C626 470 549 533 399 533 L399 533 Z M389 228 L158 228 L158 473 L389 473 C508 473 566 434 566 350 C566 265 509 228 389 228 L389 228 Z " />
<glyph glyph-name="germandbls" unicode="&#xdf;" horiz-adv-x="609" d="M341 46 C297 46 252 55 211 67 L211 10 C248 -1 289 -10 331 -10 C476 -10 562 68 562 192 C562 307 495 361 412 377 C474 411 505 466 505 526 C505 624 440 700 297 700 C158 700 88 617 88 471 L88 0 L146 0 L146 475 C146 583 199 644 299 644 C405 644 445 587 445 524 C445 440 384 398 327 398 L274 398 L274 342 L330 342 C458 342 503 275 503 188 C503 84 430 46 341 46 L341 46 Z " />
<glyph glyph-name="agrave" unicode="&#xe0;" horiz-adv-x="544" d="M300 575 L300 584 L175 730 L99 730 L99 721 L252 575 L300 575 Z M464 106 L461 318 C460 434 400 510 274 510 C141 510 72 434 72 318 L132 318 C132 402 169 454 273 454 C369 454 404 395 405 314 L405 290 L190 258 C106 245 53 202 53 122 C53 40 111 -10 205 -10 C287 -10 367 29 409 88 C411 59 414 29 425 0 L476 0 L476 6 C469 35 464 71 464 106 L464 106 Z M206 44 C145 44 114 80 114 123 C114 162 136 194 205 205 L406 235 L407 178 C386 95 298 44 206 44 L206 44 Z " />
<glyph glyph-name="aacute" unicode="&#xe1;" horiz-adv-x="544" d="M450 721 L450 730 L374 730 L249 584 L249 575 L297 575 L450 721 Z M464 106 L461 318 C460 434 400 510 274 510 C141 510 72 434 72 318 L132 318 C132 402 169 454 273 454 C369 454 404 395 405 314 L405 290 L190 258 C106 245 53 202 53 122 C53 40 111 -10 205 -10 C287 -10 367 29 409 88 C411 59 414 29 425 0 L476 0 L476 6 C469 35 464 71 464 106 L464 106 Z M206 44 C145 44 114 80 114 123 C114 162 136 194 205 205 L406 235 L407 178 C386 95 298 44 206 44 L206 44 Z " />
<glyph glyph-name="acircumflex" unicode="&#xe2;" horiz-adv-x="544" d="M278 677 L370 575 L424 575 L424 584 L313 730 L244 730 L132 584 L132 575 L186 575 L278 677 Z M464 106 L461 318 C460 434 400 510 274 510 C141 510 72 434 72 318 L132 318 C132 402 169 454 273 454 C369 454 404 395 405 314 L405 290 L190 258 C106 245 53 202 53 122 C53 40 111 -10 205 -10 C287 -10 367 29 409 88 C411 59 414 29 425 0 L476 0 L476 6 C469 35 464 71 464 106 L464 106 Z M206 44 C145 44 114 80 114 123 C114 162 136 194 205 205 L406 235 L407 178 C386 95 298 44 206 44 L206 44 Z " />
<glyph glyph-name="atilde" unicode="&#xe3;" horiz-adv-x="544" d="M217 632 C251 632 279 569 349 569 C405 569 438 607 438 679 L384 679 C384 640 371 625 340 625 C305 625 275 689 207 689 C151 689 118 650 118 578 L172 578 C172 616 186 632 217 632 L217 632 Z M464 106 L461 318 C460 434 400 510 274 510 C141 510 72 434 72 318 L132 318 C132 402 169 454 273 454 C369 454 404 395 405 314 L405 290 L190 258 C106 245 53 202 53 122 C53 40 111 -10 205 -10 C287 -10 367 29 409 88 C411 59 414 29 425 0 L476 0 L476 6 C469 35 464 71 464 106 L464 106 Z M206 44 C145 44 114 80 114 123 C114 162 136 194 205 205 L406 235 L407 178 C386 95 298 44 206 44 L206 44 Z " />
<glyph glyph-name="adieresis" unicode="&#xe4;" horiz-adv-x="544" d="M182 611 C208 611 232 627 232 658 C232 689 208 705 182 705 C157 705 133 689 133 658 C133 627 157 611 182 611 L182 611 Z M371 611 C397 611 421 627 421 658 C421 689 397 705 371 705 C346 705 322 689 322 658 C322 627 346 611 371 611 L371 611 Z M464 106 L461 318 C460 434 400 510 274 510 C141 510 72 434 72 318 L132 318 C132 402 169 454 273 454 C369 454 404 395 405 314 L405 290 L190 258 C106 245 53 202 53 122 C53 40 111 -10 205 -10 C287 -10 367 29 409 88 C411 59 414 29 425 0 L476 0 L476 6 C469 35 464 71 464 106 L464 106 Z M206 44 C145 44 114 80 114 123 C114 162 136 194 205 205 L406 235 L407 178 C386 95 298 44 206 44 L206 44 Z " />
<glyph glyph-name="aring" unicode="&#xe5;" horiz-adv-x="544" d="M278 550 C342 550 390 597 390 662 C390 727 342 773 278 773 C213 773 165 727 165 662 C165 597 213 550 278 550 L278 550 Z M278 719 C312 719 337 696 337 662 C337 629 312 604 278 604 C243 604 219 629 219 662 C219 696 243 719 278 719 L278 719 Z M464 106 L461 318 C460 434 400 510 274 510 C141 510 72 434 72 318 L132 318 C132 402 169 454 273 454 C369 454 404 395 405 314 L405 290 L190 258 C106 245 53 202 53 122 C53 40 111 -10 205 -10 C287 -10 367 29 409 88 C411 59 414 29 425 0 L476 0 L476 6 C469 35 464 71 464 106 L464 106 Z M206 44 C145 44 114 80 114 123 C114 162 136 194 205 205 L406 235 L407 178 C386 95 298 44 206 44 L206 44 Z " />
<glyph glyph-name="ae" unicode="&#xe6;" horiz-adv-x="907" d="M857 263 C857 416 767 510 640 510 C559 510 489 472 447 404 C423 471 367 510 276 510 C144 510 74 434 74 318 L131 318 C131 400 172 450 275 450 C369 450 404 391 405 312 L405 292 L190 260 C106 248 53 202 53 123 C53 41 113 -10 215 -10 C306 -10 396 33 437 106 C475 30 545 -10 626 -10 C733 -10 830 47 850 161 L790 161 C773 79 702 51 628 51 C547 51 473 109 464 232 L857 232 L857 263 Z M637 450 C724 450 785 398 794 291 L465 291 C474 398 555 450 637 450 L637 450 Z M218 45 C145 45 114 82 114 123 C114 163 137 195 205 205 L406 236 L408 165 C381 87 305 45 218 45 L218 45 Z " />
<glyph glyph-name="ccedilla" unicode="&#xe7;" horiz-adv-x="546" d="M284 47 C194 47 110 114 110 249 C110 385 189 453 284 453 C358 453 431 417 442 320 L502 320 C490 450 396 510 286 510 C155 510 50 413 50 249 C50 95 136 6 250 -8 L232 -62 L262 -87 C267 -86 276 -85 284 -85 C314 -85 335 -102 335 -131 C335 -164 309 -177 281 -177 C249 -177 230 -161 230 -140 L177 -140 C177 -182 211 -224 280 -224 C347 -224 386 -184 386 -128 C386 -72 342 -40 292 -41 L302 -9 C409 -2 489 63 502 180 L441 180 C429 85 361 47 284 47 L284 47 Z " />
<glyph glyph-name="egrave" unicode="&#xe8;" horiz-adv-x="554" d="M319 575 L319 584 L194 730 L119 730 L119 721 L272 575 L319 575 Z M505 243 C505 416 413 510 285 510 C155 510 50 411 50 250 C50 82 155 -10 278 -10 C391 -10 482 48 499 161 L439 161 C421 80 355 48 278 48 C198 48 121 107 111 232 L505 232 L505 243 Z M283 452 C369 452 431 400 440 290 L112 290 C121 399 201 452 283 452 L283 452 Z " />
<glyph glyph-name="eacute" unicode="&#xe9;" horiz-adv-x="554" d="M449 721 L449 730 L374 730 L249 584 L249 575 L296 575 L449 721 Z M505 243 C505 416 413 510 285 510 C155 510 50 411 50 250 C50 82 155 -10 278 -10 C391 -10 482 48 499 161 L439 161 C421 80 355 48 278 48 C198 48 121 107 111 232 L505 232 L505 243 Z M283 452 C369 452 431 400 440 290 L112 290 C121 399 201 452 283 452 L283 452 Z " />
<glyph glyph-name="ecircumflex" unicode="&#xea;" horiz-adv-x="554" d="M287 678 L380 575 L434 575 L434 584 L322 730 L254 730 L142 584 L142 575 L195 575 L287 678 Z M505 243 C505 416 413 510 285 510 C155 510 50 411 50 250 C50 82 155 -10 278 -10 C391 -10 482 48 499 161 L439 161 C421 80 355 48 278 48 C198 48 121 107 111 232 L505 232 L505 243 Z M283 452 C369 452 431 400 440 290 L112 290 C121 399 201 452 283 452 L283 452 Z " />
<glyph glyph-name="edieresis" unicode="&#xeb;" horiz-adv-x="554" d="M196 611 C221 611 245 627 245 658 C245 689 221 705 196 705 C171 705 147 689 147 658 C147 627 171 611 196 611 L196 611 Z M385 611 C410 611 434 627 434 658 C434 689 410 705 385 705 C360 705 336 689 336 658 C336 627 360 611 385 611 L385 611 Z M505 243 C505 416 413 510 285 510 C155 510 50 411 50 250 C50 82 155 -10 278 -10 C391 -10 482 48 499 161 L439 161 C421 80 355 48 278 48 C198 48 121 107 111 232 L505 232 L505 243 Z M283 452 C369 452 431 400 440 290 L112 290 C121 399 201 452 283 452 L283 452 Z " />
<glyph glyph-name="igrave" unicode="&#xec;" horiz-adv-x="233" d="M-62 730 L-62 721 L91 575 L138 575 L138 584 L13 730 L-62 730 Z M88 0 L144 0 L144 500 L88 500 L88 0 Z " />
<glyph glyph-name="iacute" unicode="&#xed;" horiz-adv-x="233" d="M288 730 L213 730 L88 584 L88 575 L135 575 L288 721 L288 730 Z M88 0 L144 0 L144 500 L88 500 L88 0 Z " />
<glyph glyph-name="icircumflex" unicode="&#xee;" horiz-adv-x="233" d="M135 730 L99 730 L9 584 L9 575 L62 575 L116 664 L169 575 L224 575 L224 584 L135 730 Z M88 0 L144 0 L144 500 L88 500 L88 0 Z " />
<glyph glyph-name="idieresis" unicode="&#xef;" horiz-adv-x="233" d="M8 655 C8 627 28 612 52 612 C77 612 98 627 98 655 C98 682 77 696 52 696 C28 696 8 682 8 655 L8 655 Z M136 655 C136 627 157 612 181 612 C205 612 227 627 227 655 C227 682 205 696 181 696 C157 696 136 682 136 655 L136 655 Z M88 0 L144 0 L144 500 L88 500 L88 0 Z " />
<glyph glyph-name="eth" unicode="&#xf0;" horiz-adv-x="598" d="M341 689 L380 739 L337 772 L293 714 C241 737 180 749 111 749 L111 690 C162 690 210 681 253 663 L213 611 L255 578 L302 638 C371 595 425 527 455 435 C415 489 351 510 300 510 C162 510 49 415 49 250 C49 81 157 -10 287 -10 C421 -10 535 74 535 292 C535 459 471 610 341 689 L341 689 Z M292 45 C197 45 109 113 109 251 C109 390 197 455 292 455 C384 455 475 397 475 249 C475 110 387 45 292 45 L292 45 Z " />
<glyph glyph-name="ntilde" unicode="&#xf1;" horiz-adv-x="593" d="M237 632 C271 632 299 569 369 569 C425 569 458 607 458 679 L404 679 C404 640 391 625 360 625 C325 625 295 689 227 689 C171 689 138 650 138 578 L192 578 C192 616 206 632 237 632 L237 632 Z M324 510 C245 510 179 473 142 415 L142 500 L88 500 L88 0 L144 0 L144 312 C165 397 230 455 313 455 C411 455 456 400 456 307 L456 0 L512 0 L512 307 C512 427 452 510 324 510 L324 510 Z " />
<glyph glyph-name="ograve" unicode="&#xf2;" horiz-adv-x="584" d="M135 730 L135 721 L288 575 L335 575 L335 584 L210 730 L135 730 Z M535 252 C535 417 427 510 296 510 C163 510 49 415 49 250 C49 81 157 -10 287 -10 C421 -10 535 87 535 252 L535 252 Z M475 249 C475 110 387 45 292 45 C197 45 109 113 109 251 C109 390 197 455 292 455 C387 455 475 387 475 249 L475 249 Z " />
<glyph glyph-name="oacute" unicode="&#xf3;" horiz-adv-x="584" d="M463 730 L388 730 L263 584 L263 575 L310 575 L463 721 L463 730 Z M535 252 C535 417 427 510 296 510 C163 510 49 415 49 250 C49 81 157 -10 287 -10 C421 -10 535 87 535 252 L535 252 Z M475 249 C475 110 387 45 292 45 C197 45 109 113 109 251 C109 390 197 455 292 455 C387 455 475 387 475 249 L475 249 Z " />
<glyph glyph-name="ocircumflex" unicode="&#xf4;" horiz-adv-x="584" d="M296 678 L389 575 L443 575 L443 584 L331 730 L263 730 L151 584 L151 575 L204 575 L296 678 Z M296 510 C163 510 49 415 49 250 C49 81 157 -10 287 -10 C421 -10 535 87 535 252 C535 417 427 510 296 510 L296 510 Z M292 45 C197 45 109 113 109 251 C109 390 197 455 292 455 C387 455 475 387 475 249 C475 110 387 45 292 45 L292 45 Z " />
<glyph glyph-name="otilde" unicode="&#xf5;" horiz-adv-x="584" d="M132 578 L186 578 C186 616 199 632 230 632 C265 632 293 569 362 569 C418 569 451 607 451 679 L397 679 C397 640 384 625 353 625 C318 625 289 689 221 689 C165 689 132 650 132 578 L132 578 Z M535 252 C535 417 427 510 296 510 C163 510 49 415 49 250 C49 81 157 -10 287 -10 C421 -10 535 87 535 252 L535 252 Z M475 249 C475 110 387 45 292 45 C197 45 109 113 109 251 C109 390 197 455 292 455 C387 455 475 387 475 249 L475 249 Z " />
<glyph glyph-name="odieresis" unicode="&#xf6;" horiz-adv-x="584" d="M153 658 C153 627 177 611 202 611 C227 611 251 627 251 658 C251 689 227 705 202 705 C177 705 153 689 153 658 L153 658 Z M342 658 C342 627 366 611 391 611 C416 611 440 627 440 658 C440 689 416 705 391 705 C366 705 342 689 342 658 L342 658 Z M535 252 C535 417 427 510 296 510 C163 510 49 415 49 250 C49 81 157 -10 287 -10 C421 -10 535 87 535 252 L535 252 Z M475 249 C475 110 387 45 292 45 C197 45 109 113 109 251 C109 390 197 455 292 455 C387 455 475 387 475 249 L475 249 Z " />
<glyph glyph-name="divide" unicode="&#xf7;" horiz-adv-x="546" d="M227 489 C227 461 248 447 273 447 C298 447 319 461 319 489 C319 517 298 532 273 532 C248 532 227 517 227 489 L227 489 Z M71 319 L71 265 L474 265 L474 319 L71 319 Z M227 95 C227 67 248 52 273 52 C298 52 319 67 319 95 C319 123 298 137 273 137 C248 137 227 123 227 95 L227 95 Z " />
<glyph glyph-name="oslash" unicode="&#xf8;" horiz-adv-x="602" d="M562 474 L524 513 L464 453 C422 490 366 510 306 510 C172 510 58 415 58 250 C58 185 74 131 101 90 L36 25 L74 -15 L137 48 C180 10 236 -10 297 -10 C430 -10 544 87 544 252 C544 317 528 370 500 412 L562 474 Z M118 251 C118 390 207 455 301 455 C345 455 388 440 421 410 L146 135 C128 165 118 204 118 251 L118 251 Z M484 249 C484 110 396 45 301 45 C256 45 213 60 180 91 L456 367 C473 336 484 297 484 249 L484 249 Z " />
<glyph glyph-name="ugrave" unicode="&#xf9;" horiz-adv-x="589" d="M308 575 L308 584 L183 730 L108 730 L108 721 L260 575 L308 575 Z M499 96 L499 500 L443 500 L443 188 C423 103 360 45 278 45 C180 45 137 100 137 195 L137 500 L81 500 L81 196 C81 75 138 -10 267 -10 C345 -10 409 26 445 84 C447 53 451 23 459 0 L512 0 L512 6 C505 34 499 67 499 96 L499 96 Z " />
<glyph glyph-name="uacute" unicode="&#xfa;" horiz-adv-x="589" d="M458 721 L458 730 L383 730 L258 584 L258 575 L305 575 L458 721 Z M499 96 L499 500 L443 500 L443 188 C423 103 360 45 278 45 C180 45 137 100 137 195 L137 500 L81 500 L81 196 C81 75 138 -10 267 -10 C345 -10 409 26 445 84 C447 53 451 23 459 0 L512 0 L512 6 C505 34 499 67 499 96 L499 96 Z " />
<glyph glyph-name="ucircumflex" unicode="&#xfb;" horiz-adv-x="589" d="M286 678 L379 575 L433 575 L433 584 L321 730 L252 730 L140 584 L140 575 L194 575 L286 678 Z M499 96 L499 500 L443 500 L443 188 C423 103 360 45 278 45 C180 45 137 100 137 195 L137 500 L81 500 L81 196 C81 75 138 -10 267 -10 C345 -10 409 26 445 84 C447 53 451 23 459 0 L512 0 L512 6 C505 34 499 67 499 96 L499 96 Z " />
<glyph glyph-name="udieresis" unicode="&#xfc;" horiz-adv-x="589" d="M191 611 C216 611 240 627 240 658 C240 689 216 705 191 705 C165 705 141 689 141 658 C141 627 165 611 191 611 L191 611 Z M380 611 C405 611 429 627 429 658 C429 689 405 705 380 705 C354 705 330 689 330 658 C330 627 354 611 380 611 L380 611 Z M499 96 L499 500 L443 500 L443 188 C423 103 360 45 278 45 C180 45 137 100 137 195 L137 500 L81 500 L81 196 C81 75 138 -10 267 -10 C345 -10 409 26 445 84 C447 53 451 23 459 0 L512 0 L512 6 C505 34 499 67 499 96 L499 96 Z " />
<glyph glyph-name="yacute" unicode="&#xfd;" horiz-adv-x="509" d="M426 721 L426 730 L351 730 L226 584 L226 575 L273 575 L426 721 Z M433 500 L316 210 C294 157 269 91 256 56 C242 91 217 156 197 207 L80 500 L17 500 L226 5 L172 -111 C151 -156 129 -172 83 -172 C67 -172 51 -169 39 -167 L39 -219 C50 -222 68 -224 82 -224 C169 -224 188 -197 223 -126 L282 0 L492 500 L433 500 Z " />
<glyph glyph-name="thorn" unicode="&#xfe;" horiz-adv-x="605" d="M338 510 C256 510 184 477 144 421 L144 750 L88 750 L88 -214 L144 -214 L144 76 C182 22 248 -10 326 -10 C457 -10 556 95 556 251 C556 408 464 510 338 510 L338 510 Z M320 45 C234 45 165 104 144 191 L144 314 C165 399 237 455 322 455 C419 455 496 391 496 251 C496 111 419 45 320 45 L320 45 Z " />
<glyph glyph-name="ydieresis" unicode="&#xff;" horiz-adv-x="509" d="M159 611 C184 611 208 627 208 658 C208 689 184 705 159 705 C134 705 110 689 110 658 C110 627 134 611 159 611 L159 611 Z M348 611 C373 611 397 627 397 658 C397 689 373 705 348 705 C323 705 299 689 299 658 C299 627 323 611 348 611 L348 611 Z M433 500 L316 210 C294 157 269 91 256 56 C242 91 217 156 197 207 L80 500 L17 500 L226 5 L172 -111 C151 -156 129 -172 83 -172 C67 -172 51 -169 39 -167 L39 -219 C50 -222 68 -224 82 -224 C169 -224 188 -197 223 -126 L282 0 L492 500 L433 500 Z " />
<glyph glyph-name="Amacron" unicode="&#x100;" horiz-adv-x="682" d="M479 839 L208 839 L208 785 L479 785 L479 839 Z M606 0 L670 0 L374 690 L302 690 L18 0 L79 0 L165 208 L518 208 L606 0 Z M188 265 L253 422 L340 639 C356 596 393 504 428 421 L494 265 L188 265 Z " />
<glyph glyph-name="amacron" unicode="&#x101;" horiz-adv-x="544" d="M414 669 L143 669 L143 615 L414 615 L414 669 Z M464 106 L461 318 C460 434 400 510 274 510 C141 510 72 434 72 318 L132 318 C132 402 169 454 273 454 C369 454 404 395 405 314 L405 290 L190 258 C106 245 53 202 53 122 C53 40 111 -10 205 -10 C287 -10 367 29 409 88 C411 59 414 29 425 0 L476 0 L476 6 C469 35 464 71 464 106 L464 106 Z M206 44 C145 44 114 80 114 123 C114 162 136 194 205 205 L406 235 L407 178 C386 95 298 44 206 44 L206 44 Z " />
<glyph glyph-name="Abreve" unicode="&#x102;" horiz-adv-x="682" d="M344 744 C427 744 478 806 479 887 L426 887 C426 831 390 800 344 800 C297 800 262 831 261 887 L209 887 C209 806 261 744 344 744 L344 744 Z M606 0 L670 0 L374 690 L302 690 L18 0 L79 0 L165 208 L518 208 L606 0 Z M188 265 L253 422 L340 639 C356 596 393 504 428 421 L494 265 L188 265 Z " />
<glyph glyph-name="abreve" unicode="&#x103;" horiz-adv-x="544" d="M278 569 C360 569 412 618 412 730 L360 730 C359 647 321 624 278 624 C235 624 197 647 197 730 L144 730 C144 618 196 569 278 569 L278 569 Z M464 106 L461 318 C460 434 400 510 274 510 C141 510 72 434 72 318 L132 318 C132 402 169 454 273 454 C369 454 404 395 405 314 L405 290 L190 258 C106 245 53 202 53 122 C53 40 111 -10 205 -10 C287 -10 367 29 409 88 C411 59 414 29 425 0 L476 0 L476 6 C469 35 464 71 464 106 L464 106 Z M206 44 C145 44 114 80 114 123 C114 162 136 194 205 205 L406 235 L407 178 C386 95 298 44 206 44 L206 44 Z " />
<glyph glyph-name="Aogonek" unicode="&#x104;" horiz-adv-x="682" d="M584 -118 C584 -79 620 -28 670 0 L374 690 L302 690 L18 0 L79 0 L165 208 L518 208 L604 5 C557 -36 530 -80 530 -122 C530 -185 565 -247 680 -229 L680 -180 C614 -196 584 -165 584 -118 L584 -118 Z M188 265 L253 422 L340 639 C356 596 393 504 428 421 L494 265 L188 265 Z " />
<glyph glyph-name="aogonek" unicode="&#x105;" horiz-adv-x="544" d="M390 -118 C390 -79 426 -28 476 0 L476 6 C469 35 464 71 464 106 L461 318 C460 434 400 510 274 510 C141 510 72 434 72 318 L132 318 C132 402 169 454 273 454 C369 454 404 395 405 314 L405 290 L190 258 C106 245 53 202 53 122 C53 40 111 -10 205 -10 C287 -10 367 29 409 88 C410 63 413 39 420 15 C367 -29 336 -77 336 -122 C336 -185 371 -247 486 -229 L486 -180 C420 -196 390 -165 390 -118 L390 -118 Z M206 44 C145 44 114 80 114 123 C114 162 136 194 205 205 L406 235 L407 178 C386 95 298 44 206 44 L206 44 Z " />
<glyph glyph-name="Cacute" unicode="&#x106;" horiz-adv-x="713" d="M535 889 L460 889 L335 763 L335 754 L382 754 L535 880 L535 889 Z M667 232 L610 232 C595 103 493 45 373 45 C239 45 112 142 112 346 C112 551 238 645 371 645 C490 645 596 584 610 458 L667 458 C657 613 529 700 375 700 C203 700 53 571 53 345 C53 114 202 -10 370 -10 C527 -10 655 78 667 232 L667 232 Z " />
<glyph glyph-name="cacute" unicode="&#x107;" horiz-adv-x="546" d="M447 730 L372 730 L247 584 L247 575 L294 575 L447 721 L447 730 Z M282 -10 C399 -10 488 56 502 180 L441 180 C429 85 361 47 284 47 C194 47 110 114 110 249 C110 385 189 453 284 453 C358 453 431 417 442 320 L502 320 C490 450 396 510 286 510 C155 510 50 413 50 249 C50 81 153 -10 282 -10 L282 -10 Z " />
<glyph glyph-name="Ccircumflex" unicode="&#x108;" horiz-adv-x="713" d="M385 838 L468 754 L522 754 L522 763 L412 889 L357 889 L247 763 L247 754 L301 754 L385 838 Z M373 45 C239 45 112 142 112 346 C112 551 238 645 371 645 C490 645 596 584 610 458 L667 458 C657 613 529 700 375 700 C203 700 53 571 53 345 C53 114 202 -10 370 -10 C527 -10 655 78 667 232 L610 232 C595 103 493 45 373 45 L373 45 Z " />
<glyph glyph-name="ccircumflex" unicode="&#x109;" horiz-adv-x="546" d="M292 678 L385 575 L439 575 L439 584 L327 730 L259 730 L147 584 L147 575 L200 575 L292 678 Z M284 47 C194 47 110 114 110 249 C110 385 189 453 284 453 C358 453 431 417 442 320 L502 320 C490 450 396 510 286 510 C155 510 50 413 50 249 C50 81 153 -10 282 -10 C399 -10 488 56 502 180 L441 180 C429 85 361 47 284 47 L284 47 Z " />
<glyph glyph-name="Cdotaccent" unicode="&#x10a;" horiz-adv-x="713" d="M333 825 C333 793 357 776 383 776 C409 776 434 793 434 825 C434 857 409 874 383 874 C357 874 333 857 333 825 L333 825 Z M667 232 L610 232 C595 103 493 45 373 45 C239 45 112 142 112 346 C112 551 238 645 371 645 C490 645 596 584 610 458 L667 458 C657 613 529 700 375 700 C203 700 53 571 53 345 C53 114 202 -10 370 -10 C527 -10 655 78 667 232 L667 232 Z " />
<glyph glyph-name="cdotaccent" unicode="&#x10b;" horiz-adv-x="546" d="M243 658 C243 626 268 609 294 609 C319 609 344 626 344 658 C344 690 319 707 294 707 C268 707 243 690 243 658 L243 658 Z M282 -10 C399 -10 488 56 502 180 L441 180 C429 85 361 47 284 47 C194 47 110 114 110 249 C110 385 189 453 284 453 C358 453 431 417 442 320 L502 320 C490 450 396 510 286 510 C155 510 50 413 50 249 C50 81 153 -10 282 -10 L282 -10 Z " />
<glyph glyph-name="Ccaron" unicode="&#x10c;" horiz-adv-x="713" d="M356 754 L411 754 L521 880 L521 889 L467 889 L383 805 L299 889 L245 889 L245 880 L356 754 Z M373 45 C239 45 112 142 112 346 C112 551 238 645 371 645 C490 645 596 584 610 458 L667 458 C657 613 529 700 375 700 C203 700 53 571 53 345 C53 114 202 -10 370 -10 C527 -10 655 78 667 232 L610 232 C595 103 493 45 373 45 L373 45 Z " />
<glyph glyph-name="ccaron" unicode="&#x10d;" horiz-adv-x="546" d="M259 575 L327 575 L439 721 L439 730 L385 730 L292 627 L200 730 L147 730 L147 721 L259 575 Z M284 47 C194 47 110 114 110 249 C110 385 189 453 284 453 C358 453 431 417 442 320 L502 320 C490 450 396 510 286 510 C155 510 50 413 50 249 C50 81 153 -10 282 -10 C399 -10 488 56 502 180 L441 180 C429 85 361 47 284 47 L284 47 Z " />
<glyph glyph-name="Dcaron" unicode="&#x10e;" horiz-adv-x="745" d="M311 754 L366 754 L477 880 L477 889 L423 889 L339 805 L255 889 L201 889 L201 880 L311 754 Z M374 690 L100 690 L100 0 L366 0 C544 0 692 122 692 346 C692 571 551 690 374 690 L374 690 Z M366 55 L158 55 L158 635 L366 635 C506 635 632 548 632 346 C632 141 506 55 366 55 L366 55 Z " />
<glyph glyph-name="dcaron" unicode="&#x10f;" horiz-adv-x="603" d="M615 765 C591 765 569 750 569 724 C569 705 578 693 592 686 L565 629 L565 621 L607 621 L648 687 C653 693 661 709 661 722 C661 750 639 765 615 765 L615 765 Z M517 750 L461 750 L461 421 C423 477 356 510 275 510 C145 510 50 405 50 249 C50 92 139 -12 270 -12 C352 -12 423 22 463 79 C465 50 470 21 477 0 L530 0 L530 6 C522 34 517 67 517 96 L517 750 Z M282 43 C183 43 109 109 109 249 C109 389 184 455 283 455 C369 455 440 397 461 312 L461 186 C440 101 368 43 282 43 L282 43 Z " />
<glyph glyph-name="Dcroat" unicode="&#x110;" horiz-adv-x="749" d="M378 690 L104 690 L104 373 L31 373 L31 319 L104 319 L104 0 L370 0 C548 0 696 122 696 346 C696 571 555 690 378 690 L378 690 Z M370 55 L162 55 L162 319 L300 319 L300 373 L162 373 L162 635 L370 635 C510 635 637 548 637 346 C637 141 510 55 370 55 L370 55 Z " />
<glyph glyph-name="dcroat" unicode="&#x111;" horiz-adv-x="607" d="M585 594 L585 647 L517 647 L517 750 L461 750 L461 647 L302 647 L302 594 L461 594 L461 421 C423 477 356 510 275 510 C145 510 50 405 50 249 C50 92 139 -12 270 -12 C352 -12 423 22 463 79 C465 50 470 21 477 0 L530 0 L530 6 C522 34 517 67 517 96 L517 594 L585 594 Z M282 43 C183 43 109 109 109 249 C109 389 184 455 283 455 C369 455 440 397 461 312 L461 186 C440 101 368 43 282 43 L282 43 Z " />
<glyph glyph-name="Emacron" unicode="&#x112;" horiz-adv-x="641" d="M476 839 L205 839 L205 785 L476 785 L476 839 Z M158 55 L158 333 L535 333 L535 388 L158 388 L158 635 L587 635 L587 690 L100 690 L100 0 L590 0 L590 55 L158 55 Z " />
<glyph glyph-name="emacron" unicode="&#x113;" horiz-adv-x="554" d="M427 669 L156 669 L156 615 L427 615 L427 669 Z M505 243 C505 416 413 510 285 510 C155 510 50 411 50 250 C50 82 155 -10 278 -10 C391 -10 482 48 499 161 L439 161 C421 80 355 48 278 48 C198 48 121 107 111 232 L505 232 L505 243 Z M283 452 C369 452 431 400 440 290 L112 290 C121 399 201 452 283 452 L283 452 Z " />
<glyph glyph-name="Ebreve" unicode="&#x114;" horiz-adv-x="641" d="M341 744 C424 744 475 806 475 887 L423 887 C422 831 387 800 341 800 C294 800 259 831 258 887 L206 887 C206 806 257 744 341 744 L341 744 Z M158 55 L158 333 L535 333 L535 388 L158 388 L158 635 L587 635 L587 690 L100 690 L100 0 L590 0 L590 55 L158 55 Z " />
<glyph glyph-name="ebreve" unicode="&#x115;" horiz-adv-x="554" d="M290 569 C372 569 424 618 424 730 L371 730 C371 647 333 624 290 624 C247 624 209 647 208 730 L156 730 C156 618 208 569 290 569 L290 569 Z M505 243 C505 416 413 510 285 510 C155 510 50 411 50 250 C50 82 155 -10 278 -10 C391 -10 482 48 499 161 L439 161 C421 80 355 48 278 48 C198 48 121 107 111 232 L505 232 L505 243 Z M283 452 C369 452 431 400 440 290 L112 290 C121 399 201 452 283 452 L283 452 Z " />
<glyph glyph-name="Edotaccent" unicode="&#x116;" horiz-adv-x="641" d="M351 776 C377 776 402 793 402 825 C402 857 377 874 351 874 C326 874 301 857 301 825 C301 793 326 776 351 776 L351 776 Z M158 55 L158 333 L535 333 L535 388 L158 388 L158 635 L587 635 L587 690 L100 690 L100 0 L590 0 L590 55 L158 55 Z " />
<glyph glyph-name="edotaccent" unicode="&#x117;" horiz-adv-x="554" d="M287 609 C313 609 337 626 337 658 C337 690 313 707 287 707 C261 707 236 690 236 658 C236 626 261 609 287 609 L287 609 Z M505 243 C505 416 413 510 285 510 C155 510 50 411 50 250 C50 82 155 -10 278 -10 C391 -10 482 48 499 161 L439 161 C421 80 355 48 278 48 C198 48 121 107 111 232 L505 232 L505 243 Z M283 452 C369 452 431 400 440 290 L112 290 C121 399 201 452 283 452 L283 452 Z " />
<glyph glyph-name="Eogonek" unicode="&#x118;" horiz-adv-x="641" d="M504 -118 C504 -79 540 -28 590 0 L590 55 L158 55 L158 333 L535 333 L535 388 L158 388 L158 635 L587 635 L587 690 L100 690 L100 0 L518 0 C475 -40 450 -82 450 -122 C450 -185 485 -247 600 -229 L600 -180 C534 -196 504 -165 504 -118 L504 -118 Z " />
<glyph glyph-name="eogonek" unicode="&#x119;" horiz-adv-x="554" d="M505 243 C505 416 413 510 285 510 C155 510 50 411 50 250 C50 82 155 -10 278 -10 C285 -10 292 -10 300 -9 C274 -40 260 -71 260 -102 C260 -164 295 -227 410 -208 L410 -159 C344 -175 314 -145 314 -97 C314 -63 341 -20 381 9 C443 35 488 86 499 161 L439 161 C421 80 355 48 278 48 C198 48 121 107 111 232 L505 232 L505 243 Z M283 452 C369 452 431 400 440 290 L112 290 C121 399 201 452 283 452 L283 452 Z " />
<glyph glyph-name="Ecaron" unicode="&#x11a;" horiz-adv-x="641" d="M321 754 L376 754 L487 880 L487 889 L433 889 L349 805 L265 889 L211 889 L211 880 L321 754 Z M158 55 L158 333 L535 333 L535 388 L158 388 L158 635 L587 635 L587 690 L100 690 L100 0 L590 0 L590 55 L158 55 Z " />
<glyph glyph-name="ecaron" unicode="&#x11b;" horiz-adv-x="554" d="M257 575 L325 575 L437 721 L437 730 L383 730 L290 627 L198 730 L145 730 L145 721 L257 575 Z M505 243 C505 416 413 510 285 510 C155 510 50 411 50 250 C50 82 155 -10 278 -10 C391 -10 482 48 499 161 L439 161 C421 80 355 48 278 48 C198 48 121 107 111 232 L505 232 L505 243 Z M283 452 C369 452 431 400 440 290 L112 290 C121 399 201 452 283 452 L283 452 Z " />
<glyph glyph-name="Gcircumflex" unicode="&#x11c;" horiz-adv-x="743" d="M398 838 L482 754 L536 754 L536 763 L425 889 L370 889 L260 763 L260 754 L314 754 L398 838 Z M677 352 L419 352 L419 293 L619 293 L619 100 C561 68 491 45 402 45 C240 45 112 143 112 346 C112 551 246 645 386 645 C505 645 609 585 618 461 L675 461 C669 615 546 700 391 700 C213 700 53 571 53 345 C53 114 201 -10 394 -10 C515 -10 609 24 677 71 L677 352 Z " />
<glyph glyph-name="gcircumflex" unicode="&#x11d;" horiz-adv-x="517" d="M268 678 L361 575 L415 575 L415 584 L303 730 L234 730 L123 584 L123 575 L176 575 L268 678 Z M485 500 L318 500 C297 506 275 510 251 510 C143 510 47 445 47 327 C47 244 90 189 151 163 C132 141 120 115 120 87 C120 35 160 5 232 -2 L340 -12 C397 -17 423 -43 423 -83 C423 -135 368 -168 259 -168 C144 -168 91 -123 91 -54 L31 -54 C31 -158 105 -224 255 -224 C404 -224 482 -173 482 -83 C482 -8 434 36 342 45 L264 53 C203 58 181 71 181 98 C181 116 190 131 206 147 C220 145 233 144 247 144 C356 144 452 208 452 329 C452 382 432 421 399 451 C429 449 462 447 485 447 L485 500 Z M249 200 C174 200 105 236 105 327 C105 417 174 455 249 454 C326 452 394 414 394 326 C394 236 326 200 249 200 L249 200 Z " />
<glyph glyph-name="Gbreve" unicode="&#x11e;" horiz-adv-x="743" d="M398 744 C481 744 532 806 533 887 L480 887 C480 831 444 800 398 800 C351 800 316 831 315 887 L263 887 C263 806 315 744 398 744 L398 744 Z M677 352 L419 352 L419 293 L619 293 L619 100 C561 68 491 45 402 45 C240 45 112 143 112 346 C112 551 246 645 386 645 C505 645 609 585 618 461 L675 461 C669 615 546 700 391 700 C213 700 53 571 53 345 C53 114 201 -10 394 -10 C515 -10 609 24 677 71 L677 352 Z " />
<glyph glyph-name="gbreve" unicode="&#x11f;" horiz-adv-x="517" d="M269 569 C351 569 403 618 403 730 L350 730 C350 647 312 624 269 624 C226 624 188 647 187 730 L135 730 C135 618 187 569 269 569 L269 569 Z M485 500 L318 500 C297 506 275 510 251 510 C143 510 47 445 47 327 C47 244 90 189 151 163 C132 141 120 115 120 87 C120 35 160 5 232 -2 L340 -12 C397 -17 423 -43 423 -83 C423 -135 368 -168 259 -168 C144 -168 91 -123 91 -54 L31 -54 C31 -158 105 -224 255 -224 C404 -224 482 -173 482 -83 C482 -8 434 36 342 45 L264 53 C203 58 181 71 181 98 C181 116 190 131 206 147 C220 145 233 144 247 144 C356 144 452 208 452 329 C452 382 432 421 399 451 C429 449 462 447 485 447 L485 500 Z M249 200 C174 200 105 236 105 327 C105 417 174 455 249 454 C326 452 394 414 394 326 C394 236 326 200 249 200 L249 200 Z " />
<glyph glyph-name="Gdotaccent" unicode="&#x120;" horiz-adv-x="743" d="M396 776 C421 776 446 793 446 825 C446 857 421 874 396 874 C370 874 345 857 345 825 C345 793 370 776 396 776 L396 776 Z M677 352 L419 352 L419 293 L619 293 L619 100 C561 68 491 45 402 45 C240 45 112 143 112 346 C112 551 246 645 386 645 C505 645 609 585 618 461 L675 461 C669 615 546 700 391 700 C213 700 53 571 53 345 C53 114 201 -10 394 -10 C515 -10 609 24 677 71 L677 352 Z " />
<glyph glyph-name="gdotaccent" unicode="&#x121;" horiz-adv-x="517" d="M269 609 C295 609 319 626 319 658 C319 690 295 707 269 707 C243 707 218 690 218 658 C218 626 243 609 269 609 L269 609 Z M485 500 L318 500 C297 506 275 510 251 510 C143 510 47 445 47 327 C47 244 90 189 151 163 C132 141 120 115 120 87 C120 35 160 5 232 -2 L340 -12 C397 -17 423 -43 423 -83 C423 -135 368 -168 259 -168 C144 -168 91 -123 91 -54 L31 -54 C31 -158 105 -224 255 -224 C404 -224 482 -173 482 -83 C482 -8 434 36 342 45 L264 53 C203 58 181 71 181 98 C181 116 190 131 206 147 C220 145 233 144 247 144 C356 144 452 208 452 329 C452 382 432 421 399 451 C429 449 462 447 485 447 L485 500 Z M249 200 C174 200 105 236 105 327 C105 417 174 455 249 454 C326 452 394 414 394 326 C394 236 326 200 249 200 L249 200 Z " />
<glyph glyph-name="uni0122" unicode="&#x122;" horiz-adv-x="743" d="M677 352 L419 352 L419 293 L619 293 L619 100 C561 68 491 45 402 45 C240 45 112 143 112 346 C112 551 246 645 386 645 C505 645 609 585 618 461 L675 461 C669 615 546 700 391 700 C213 700 53 571 53 345 C53 114 201 -10 394 -10 C515 -10 609 24 677 71 L677 352 Z M378 -46 C355 -46 335 -60 335 -88 C335 -105 342 -117 356 -124 L313 -211 L313 -219 L348 -219 L410 -125 C418 -113 423 -101 423 -86 C423 -60 403 -46 378 -46 L378 -46 Z " />
<glyph glyph-name="uni0123" unicode="&#x123;" horiz-adv-x="517" d="M253 568 C277 568 299 583 299 608 C299 628 290 640 276 647 L303 704 L303 712 L261 712 L220 646 C215 639 207 624 207 611 C207 583 229 568 253 568 L253 568 Z M485 500 L318 500 C297 506 275 510 251 510 C143 510 47 445 47 327 C47 244 90 189 151 163 C132 141 120 115 120 87 C120 35 160 5 232 -2 L340 -12 C397 -17 423 -43 423 -83 C423 -135 368 -168 259 -168 C144 -168 91 -123 91 -54 L31 -54 C31 -158 105 -224 255 -224 C404 -224 482 -173 482 -83 C482 -8 434 36 342 45 L264 53 C203 58 181 71 181 98 C181 116 190 131 206 147 C220 145 233 144 247 144 C356 144 452 208 452 329 C452 382 432 421 399 451 C429 449 462 447 485 447 L485 500 Z M249 200 C174 200 105 236 105 327 C105 417 174 455 249 454 C326 452 394 414 394 326 C394 236 326 200 249 200 L249 200 Z " />
<glyph glyph-name="Hcircumflex" unicode="&#x124;" horiz-adv-x="757" d="M380 838 L464 754 L518 754 L518 763 L408 889 L353 889 L242 763 L242 754 L296 754 L380 838 Z M599 690 L599 388 L158 388 L158 690 L100 690 L100 0 L158 0 L158 332 L599 332 L599 0 L657 0 L657 690 L599 690 Z " />
<glyph glyph-name="hcircumflex" unicode="&#x125;" horiz-adv-x="594" d="M200 814 L254 814 L254 823 L144 949 L89 949 L-21 823 L-21 814 L33 814 L117 898 L200 814 Z M326 510 C247 510 182 474 144 417 L144 750 L88 750 L88 0 L144 0 L144 312 C165 397 236 455 319 455 C418 455 457 400 457 302 L457 0 L513 0 L513 302 C513 428 454 510 326 510 L326 510 Z " />
<glyph glyph-name="Hbar" unicode="&#x126;" horiz-adv-x="757" d="M723 569 L657 569 L657 690 L599 690 L599 569 L157 569 L157 690 L99 690 L99 569 L34 569 L34 515 L99 515 L99 0 L157 0 L157 332 L599 332 L599 0 L657 0 L657 515 L723 515 L723 569 Z M599 388 L157 388 L157 515 L599 515 L599 388 Z " />
<glyph glyph-name="hbar" unicode="&#x127;" horiz-adv-x="594" d="M326 510 C247 510 182 474 144 417 L144 587 L272 587 L272 641 L144 641 L144 750 L88 750 L88 641 L-10 641 L-10 587 L88 587 L88 0 L144 0 L144 312 C165 397 236 455 319 455 C418 455 457 400 457 302 L457 0 L513 0 L513 302 C513 428 454 510 326 510 L326 510 Z " />
<glyph glyph-name="Itilde" unicode="&#x128;" horiz-adv-x="257" d="M-7 768 L46 768 C46 805 55 821 75 821 C108 821 123 768 189 768 C234 768 261 805 261 877 L209 877 C209 841 201 825 180 825 C147 825 131 878 66 878 C20 878 -7 841 -7 768 L-7 768 Z M100 0 L158 0 L158 690 L100 690 L100 0 Z " />
<glyph glyph-name="itilde" unicode="&#x129;" horiz-adv-x="233" d="M-8 594 L40 594 C40 624 46 646 66 646 C96 646 114 592 168 592 C214 592 241 634 241 700 L193 700 C193 670 188 648 167 648 C137 648 118 702 64 702 C19 702 -8 660 -8 594 L-8 594 Z M88 0 L144 0 L144 500 L88 500 L88 0 Z " />
<glyph glyph-name="Imacron" unicode="&#x12a;" horiz-adv-x="257" d="M16 839 L16 785 L240 785 L240 839 L16 839 Z M100 0 L158 0 L158 690 L100 690 L100 0 Z " />
<glyph glyph-name="imacron" unicode="&#x12b;" horiz-adv-x="233" d="M12 669 L12 615 L221 615 L221 669 L12 669 Z M88 0 L144 0 L144 500 L88 500 L88 0 Z " />
<glyph glyph-name="Ibreve" unicode="&#x12c;" horiz-adv-x="257" d="M129 800 C86 800 70 831 69 887 L17 887 C17 806 48 744 129 744 C209 744 240 806 240 887 L188 887 C187 831 171 800 129 800 L129 800 Z M100 0 L158 0 L158 690 L100 690 L100 0 Z " />
<glyph glyph-name="ibreve" unicode="&#x12d;" horiz-adv-x="233" d="M115 624 C71 624 56 662 57 730 L4 730 C4 621 38 569 115 569 C192 569 226 621 226 730 L174 730 C174 662 160 624 115 624 L115 624 Z M88 0 L144 0 L144 500 L88 500 L88 0 Z " />
<glyph glyph-name="Iogonek" unicode="&#x12e;" horiz-adv-x="257" d="M72 -118 C72 -79 107 -28 158 0 L158 690 L100 690 L100 14 C48 -30 17 -78 17 -122 C17 -185 52 -247 167 -229 L167 -180 C101 -196 72 -165 72 -118 L72 -118 Z " />
<glyph glyph-name="iogonek" unicode="&#x12f;" horiz-adv-x="234" d="M118 609 C144 609 168 626 168 658 C168 690 144 707 118 707 C92 707 67 690 67 658 C67 626 92 609 118 609 L118 609 Z M60 -118 C60 -79 95 -28 146 0 L146 500 L90 500 L90 15 C36 -29 5 -77 5 -122 C5 -185 40 -247 155 -229 L155 -180 C89 -196 60 -165 60 -118 L60 -118 Z " />
<glyph glyph-name="Idotaccent" unicode="&#x130;" horiz-adv-x="257" d="M77 825 C77 793 102 776 127 776 C153 776 178 793 178 825 C178 857 153 874 127 874 C102 874 77 857 77 825 L77 825 Z M100 0 L158 0 L158 690 L100 690 L100 0 Z " />
<glyph glyph-name="dotlessi" unicode="&#x131;" horiz-adv-x="233" d="M88 0 L144 0 L144 500 L88 500 L88 0 Z " />
<glyph glyph-name="IJ" unicode="&#x132;" horiz-adv-x="836" d="M100 0 L158 0 L158 690 L100 690 L100 0 Z M685 690 L685 246 C685 80 600 45 512 45 C425 45 349 97 349 223 L292 223 C292 67 386 -10 509 -10 C637 -10 743 48 743 238 L743 690 L685 690 Z " />
<glyph glyph-name="ij" unicode="&#x133;" horiz-adv-x="490" d="M72 658 C72 630 93 615 116 615 C140 615 161 630 161 658 C161 686 140 701 116 701 C93 701 72 686 72 658 L72 658 Z M329 658 C329 630 350 615 373 615 C397 615 418 630 418 658 C418 686 397 701 373 701 C350 701 329 686 329 658 L329 658 Z M88 0 L144 0 L144 500 L88 500 L88 0 Z M401 -106 L401 500 L345 500 L345 -97 C345 -144 322 -170 276 -170 C261 -170 245 -168 233 -165 L233 -220 C243 -222 264 -224 276 -224 C362 -224 401 -175 401 -106 L401 -106 Z " />
<glyph glyph-name="Jcircumflex" unicode="&#x134;" horiz-adv-x="572" d="M478 889 L423 889 L313 763 L313 754 L367 754 L451 838 L534 754 L588 754 L588 763 L478 889 Z M422 246 C422 80 337 45 248 45 C161 45 86 97 86 223 L29 223 C29 67 122 -10 246 -10 C373 -10 480 48 480 238 L480 690 L422 690 L422 246 Z " />
<glyph glyph-name="jcircumflex" unicode="&#x135;" horiz-adv-x="241" d="M143 730 L108 730 L18 584 L18 575 L71 575 L125 664 L177 575 L233 575 L233 584 L143 730 Z M96 -97 C96 -144 73 -170 27 -170 C12 -170 -4 -168 -16 -165 L-16 -220 C-6 -222 12 -224 25 -224 C109 -224 152 -175 152 -106 L152 500 L96 500 L96 -97 Z " />
<glyph glyph-name="uni0136" unicode="&#x136;" horiz-adv-x="630" d="M235 356 L619 690 L535 690 L158 362 L158 690 L100 690 L100 0 L158 0 L158 348 L540 0 L628 0 L235 356 Z M347 -46 C324 -46 303 -60 303 -88 C303 -105 311 -117 324 -124 L282 -211 L282 -219 L316 -219 L378 -125 C386 -113 392 -101 392 -86 C392 -60 371 -46 347 -46 L347 -46 Z " />
<glyph glyph-name="uni0137" unicode="&#x137;" horiz-adv-x="516" d="M88 0 L144 0 L144 750 L88 750 L88 0 Z M239 267 L501 500 L420 500 L159 267 L429 0 L509 0 L239 267 Z M245 -46 C222 -46 201 -60 201 -88 C201 -105 208 -117 222 -124 L179 -211 L179 -219 L214 -219 L276 -125 C284 -113 289 -101 289 -86 C289 -60 269 -46 245 -46 L245 -46 Z " />
<glyph glyph-name="kgreenlandic" unicode="&#x138;" horiz-adv-x="516" d="M88 0 L144 0 L144 500 L88 500 L88 0 Z M239 269 L501 500 L418 500 L159 270 L429 0 L509 0 L239 269 Z " />
<glyph glyph-name="Lacute" unicode="&#x139;" horiz-adv-x="594" d="M305 880 L305 889 L229 889 L104 763 L104 754 L152 754 L305 880 Z M158 55 L158 690 L100 690 L100 0 L574 0 L574 55 L158 55 Z " />
<glyph glyph-name="lacute" unicode="&#x13a;" horiz-adv-x="233" d="M295 949 L220 949 L95 823 L95 814 L142 814 L295 940 L295 949 Z M88 0 L144 0 L144 750 L88 750 L88 0 Z " />
<glyph glyph-name="uni013B" unicode="&#x13b;" horiz-adv-x="594" d="M158 55 L158 690 L100 690 L100 0 L574 0 L574 55 L158 55 Z M344 -46 C321 -46 301 -60 301 -88 C301 -105 308 -117 321 -124 L279 -211 L279 -219 L313 -219 L375 -125 C383 -113 389 -101 389 -86 C389 -60 368 -46 344 -46 L344 -46 Z " />
<glyph glyph-name="uni013C" unicode="&#x13c;" horiz-adv-x="233" d="M88 0 L144 0 L144 750 L88 750 L88 0 Z M161 -86 C161 -60 141 -46 116 -46 C93 -46 73 -60 73 -88 C73 -105 80 -117 94 -124 L51 -211 L51 -219 L86 -219 L148 -125 C156 -113 161 -101 161 -86 L161 -86 Z " />
<glyph glyph-name="Lcaron" unicode="&#x13d;" horiz-adv-x="594" d="M454 613 C459 620 467 635 467 648 C467 676 445 691 421 691 C397 691 375 676 375 651 C375 631 384 619 398 612 L371 555 L371 547 L413 547 L454 613 Z M158 55 L158 690 L100 690 L100 0 L574 0 L574 55 L158 55 Z " />
<glyph glyph-name="lcaron" unicode="&#x13e;" horiz-adv-x="230" d="M288 722 C288 750 267 765 242 765 C218 765 196 750 196 724 C196 705 206 693 219 686 L192 629 L192 621 L234 621 L276 687 C280 693 288 709 288 722 L288 722 Z M88 0 L144 0 L144 750 L88 750 L88 0 Z " />
<glyph glyph-name="Ldot" unicode="&#x13f;" horiz-adv-x="594" d="M158 55 L158 690 L100 690 L100 0 L574 0 L574 55 L158 55 Z M411 331 C436 331 457 345 457 373 C457 401 436 416 411 416 C387 416 366 401 366 373 C366 345 387 331 411 331 L411 331 Z " />
<glyph glyph-name="ldot" unicode="&#x140;" horiz-adv-x="229" d="M88 0 L144 0 L144 750 L88 750 L88 0 Z M173 343 C173 315 194 301 219 301 C244 301 265 315 265 343 C265 371 244 386 219 386 C194 386 173 371 173 343 L173 343 Z " />
<glyph glyph-name="Lslash" unicode="&#x141;" horiz-adv-x="624" d="M188 55 L188 305 L362 386 L339 433 L188 363 L188 690 L130 690 L130 336 L28 289 L51 241 L130 278 L130 0 L604 0 L604 55 L188 55 Z " />
<glyph glyph-name="lslash" unicode="&#x142;" horiz-adv-x="294" d="M274 402 L250 455 L180 423 L180 750 L124 750 L124 397 L31 354 L56 301 L124 333 L124 0 L180 0 L180 358 L274 402 Z " />
<glyph glyph-name="Nacute" unicode="&#x143;" horiz-adv-x="772" d="M566 889 L491 889 L366 763 L366 754 L414 754 L566 880 L566 889 Z M613 690 L612 228 C612 162 616 95 619 53 C600 87 568 140 533 187 L168 690 L100 690 L100 0 L159 0 L160 479 C160 528 156 594 154 636 C174 601 206 548 238 504 L604 0 L672 0 L672 690 L613 690 Z " />
<glyph glyph-name="nacute" unicode="&#x144;" horiz-adv-x="593" d="M470 721 L470 730 L394 730 L269 584 L269 575 L317 575 L470 721 Z M324 510 C245 510 179 473 142 415 L142 500 L88 500 L88 0 L144 0 L144 312 C165 397 230 455 313 455 C411 455 456 400 456 307 L456 0 L512 0 L512 307 C512 427 452 510 324 510 L324 510 Z " />
<glyph glyph-name="uni0145" unicode="&#x145;" horiz-adv-x="772" d="M613 690 L612 228 C612 162 616 95 619 53 C600 87 568 140 533 187 L168 690 L100 690 L100 0 L159 0 L160 479 C160 528 156 594 154 636 C174 601 206 548 238 504 L604 0 L672 0 L672 690 L613 690 Z M423 -86 C423 -60 402 -46 378 -46 C355 -46 335 -60 335 -88 C335 -105 342 -117 355 -124 L313 -211 L313 -219 L348 -219 L409 -125 C417 -113 423 -101 423 -86 L423 -86 Z " />
<glyph glyph-name="uni0146" unicode="&#x146;" horiz-adv-x="593" d="M324 510 C245 510 179 473 142 415 L142 500 L88 500 L88 0 L144 0 L144 312 C165 397 230 455 313 455 C411 455 456 400 456 307 L456 0 L512 0 L512 307 C512 427 452 510 324 510 L324 510 Z M298 -46 C275 -46 255 -60 255 -88 C255 -105 262 -117 275 -124 L233 -211 L233 -219 L268 -219 L329 -125 C337 -113 343 -101 343 -86 C343 -60 322 -46 298 -46 L298 -46 Z " />
<glyph glyph-name="Ncaron" unicode="&#x147;" horiz-adv-x="772" d="M360 754 L415 754 L525 880 L525 889 L471 889 L388 806 L304 889 L250 889 L250 880 L360 754 Z M613 690 L612 228 C612 162 616 95 619 53 C600 87 568 140 533 187 L168 690 L100 690 L100 0 L159 0 L160 479 C160 528 156 594 154 636 C174 601 206 548 238 504 L604 0 L672 0 L672 690 L613 690 Z " />
<glyph glyph-name="ncaron" unicode="&#x148;" horiz-adv-x="593" d="M274 575 L343 575 L455 721 L455 730 L401 730 L308 627 L216 730 L162 730 L162 721 L274 575 Z M324 510 C245 510 179 473 142 415 L142 500 L88 500 L88 0 L144 0 L144 312 C165 397 230 455 313 455 C411 455 456 400 456 307 L456 0 L512 0 L512 307 C512 427 452 510 324 510 L324 510 Z " />
<glyph glyph-name="napostrophe" unicode="&#x149;" horiz-adv-x="615" d="M134 643 C134 671 112 686 88 686 C64 686 42 671 42 645 C42 625 51 614 65 607 L38 550 L38 542 L80 542 L121 608 C126 614 134 630 134 643 L134 643 Z M346 510 C267 510 201 473 164 414 L164 500 L111 500 L111 0 L167 0 L167 316 C189 399 254 455 335 455 C433 455 478 400 478 307 L478 0 L534 0 L534 307 C534 427 474 510 346 510 L346 510 Z " />
<glyph glyph-name="Eng" unicode="&#x14a;" horiz-adv-x="772" d="M613 690 L612 228 C612 162 616 95 619 53 C600 87 568 140 533 187 L168 690 L100 690 L100 0 L159 0 L160 479 C160 528 156 594 154 636 C174 601 206 548 238 504 L604 0 L616 0 L616 -97 C616 -144 593 -170 547 -170 C532 -170 516 -168 504 -165 L504 -220 C514 -222 532 -224 545 -224 C629 -224 672 -175 672 -106 L672 690 L613 690 Z " />
<glyph glyph-name="eng" unicode="&#x14b;" horiz-adv-x="593" d="M324 510 C245 510 179 473 142 415 L142 500 L88 500 L88 0 L144 0 L144 312 C165 397 230 455 313 455 C411 455 456 400 456 307 L456 -97 C456 -144 433 -170 387 -170 C371 -170 356 -168 343 -165 L343 -220 C354 -222 372 -224 384 -224 C469 -224 512 -175 512 -106 L512 307 C512 427 452 510 324 510 L324 510 Z " />
<glyph glyph-name="Omacron" unicode="&#x14c;" horiz-adv-x="787" d="M258 839 L258 785 L529 785 L529 839 L258 839 Z M734 348 C734 573 580 700 398 700 C212 700 53 571 53 345 C53 114 205 -10 387 -10 C573 -10 734 122 734 348 L734 348 Z M675 344 C675 139 540 45 392 45 C246 45 112 142 112 346 C112 551 246 645 392 645 C540 645 675 548 675 344 L675 344 Z " />
<glyph glyph-name="omacron" unicode="&#x14d;" horiz-adv-x="584" d="M161 669 L161 615 L432 615 L432 669 L161 669 Z M535 252 C535 417 427 510 296 510 C163 510 49 415 49 250 C49 81 157 -10 287 -10 C421 -10 535 87 535 252 L535 252 Z M475 249 C475 110 387 45 292 45 C197 45 109 113 109 251 C109 390 197 455 292 455 C387 455 475 387 475 249 L475 249 Z " />
<glyph glyph-name="Obreve" unicode="&#x14e;" horiz-adv-x="787" d="M398 800 C444 800 480 831 481 887 L533 887 C532 806 481 744 398 744 C315 744 264 806 263 887 L315 887 C316 831 352 800 398 800 L398 800 Z M734 348 C734 573 580 700 398 700 C212 700 53 571 53 345 C53 114 205 -10 387 -10 C573 -10 734 122 734 348 L734 348 Z M675 344 C675 139 540 45 392 45 C246 45 112 142 112 346 C112 551 246 645 392 645 C540 645 675 548 675 344 L675 344 Z " />
<glyph glyph-name="obreve" unicode="&#x14f;" horiz-adv-x="584" d="M296 624 C339 624 377 647 377 730 L430 730 C430 618 378 569 296 569 C214 569 162 618 162 730 L214 730 C215 647 253 624 296 624 L296 624 Z M535 252 C535 417 427 510 296 510 C163 510 49 415 49 250 C49 81 157 -10 287 -10 C421 -10 535 87 535 252 L535 252 Z M475 249 C475 110 387 45 292 45 C197 45 109 113 109 251 C109 390 197 455 292 455 C387 455 475 387 475 249 L475 249 Z " />
<glyph glyph-name="Ohungarumlaut" unicode="&#x150;" horiz-adv-x="787" d="M483 893 L419 893 L320 763 L320 754 L364 754 L483 884 L483 893 Z M597 893 L533 893 L434 763 L434 754 L478 754 L597 884 L597 893 Z M734 348 C734 573 580 700 398 700 C212 700 53 571 53 345 C53 114 205 -10 387 -10 C573 -10 734 122 734 348 L734 348 Z M675 344 C675 139 540 45 392 45 C246 45 112 142 112 346 C112 551 246 645 392 645 C540 645 675 548 675 344 L675 344 Z " />
<glyph glyph-name="ohungarumlaut" unicode="&#x151;" horiz-adv-x="584" d="M373 716 L309 716 L210 584 L210 575 L255 575 L373 707 L373 716 Z M487 716 L424 716 L324 584 L324 575 L369 575 L487 707 L487 716 Z M535 252 C535 417 427 510 296 510 C163 510 49 415 49 250 C49 81 157 -10 287 -10 C421 -10 535 87 535 252 L535 252 Z M475 249 C475 110 387 45 292 45 C197 45 109 113 109 251 C109 390 197 455 292 455 C387 455 475 387 475 249 L475 249 Z " />
<glyph glyph-name="OE" unicode="&#x152;" horiz-adv-x="1205" d="M722 55 L722 333 L1099 333 L1099 388 L722 388 L722 635 L1151 635 L1151 690 L664 690 L664 558 C604 651 503 700 392 700 C212 700 53 571 53 345 C53 114 205 -10 381 -10 C496 -10 602 42 664 139 L664 0 L1154 0 L1154 55 L722 55 Z M386 45 C245 45 112 142 112 346 C112 551 245 645 386 645 C529 645 664 546 664 344 C664 141 529 45 386 45 L386 45 Z " />
<glyph glyph-name="oe" unicode="&#x153;" horiz-adv-x="979" d="M928 263 C928 416 838 510 712 510 C623 510 546 464 506 383 C467 465 388 510 296 510 C163 510 49 415 49 250 C49 81 157 -10 287 -10 C380 -10 461 36 503 118 C541 35 616 -10 701 -10 C809 -10 902 47 922 161 L862 161 C845 78 779 48 705 48 C624 48 545 108 536 232 L928 232 L928 263 Z M292 45 C197 45 109 113 109 251 C109 390 197 455 292 455 C387 455 475 387 475 249 C475 110 387 45 292 45 L292 45 Z M709 452 C797 452 859 400 867 290 L537 290 C546 399 627 452 709 452 L709 452 Z " />
<glyph glyph-name="Racute" unicode="&#x154;" horiz-adv-x="705" d="M529 880 L529 889 L454 889 L329 763 L329 754 L376 754 L529 880 Z M630 90 L602 195 C579 285 541 322 501 336 C576 363 630 421 630 505 C630 628 560 690 401 690 L100 690 L100 0 L158 0 L158 311 L379 311 C450 311 517 296 540 203 L569 85 C575 60 586 26 606 0 L667 0 L667 6 C651 30 639 54 630 90 L630 90 Z M158 367 L158 634 L393 634 C520 634 571 596 571 502 C571 408 502 367 406 367 L158 367 Z " />
<glyph glyph-name="racute" unicode="&#x155;" horiz-adv-x="343" d="M271 730 L146 584 L146 575 L194 575 L347 721 L347 730 L271 730 Z M142 415 L142 500 L88 500 L88 0 L144 0 L144 298 C160 397 218 451 279 451 C294 451 312 450 324 449 L324 509 C317 510 304 510 294 510 C228 510 174 476 142 415 L142 415 Z " />
<glyph glyph-name="uni0156" unicode="&#x156;" horiz-adv-x="705" d="M630 90 L602 195 C579 285 541 322 501 336 C576 363 630 421 630 505 C630 628 560 690 401 690 L100 690 L100 0 L158 0 L158 311 L379 311 C450 311 517 296 540 203 L569 85 C575 60 586 26 606 0 L667 0 L667 6 C651 30 639 54 630 90 L630 90 Z M158 367 L158 634 L393 634 C520 634 571 596 571 502 C571 408 502 367 406 367 L158 367 Z M377 -46 C354 -46 333 -60 333 -88 C333 -105 341 -117 354 -124 L312 -211 L312 -219 L346 -219 L408 -125 C416 -113 422 -101 422 -86 C422 -60 401 -46 377 -46 L377 -46 Z " />
<glyph glyph-name="uni0157" unicode="&#x157;" horiz-adv-x="343" d="M294 510 C228 510 174 476 142 415 L142 500 L88 500 L88 0 L144 0 L144 298 C160 397 218 451 279 451 C294 451 312 450 324 449 L324 509 C317 510 304 510 294 510 L294 510 Z M119 -46 C96 -46 75 -60 75 -88 C75 -105 83 -117 96 -124 L54 -211 L54 -219 L88 -219 L150 -125 C158 -113 164 -101 164 -86 C164 -60 143 -46 119 -46 L119 -46 Z " />
<glyph glyph-name="Rcaron" unicode="&#x158;" horiz-adv-x="705" d="M323 754 L378 754 L488 880 L488 889 L434 889 L351 806 L267 889 L213 889 L213 880 L323 754 Z M630 90 L602 195 C579 285 541 322 501 336 C576 363 630 421 630 505 C630 628 560 690 401 690 L100 690 L100 0 L158 0 L158 311 L379 311 C450 311 517 296 540 203 L569 85 C575 60 586 26 606 0 L667 0 L667 6 C651 30 639 54 630 90 L630 90 Z M158 367 L158 634 L393 634 C520 634 571 596 571 502 C571 408 502 367 406 367 L158 367 Z " />
<glyph glyph-name="rcaron" unicode="&#x159;" horiz-adv-x="343" d="M268 730 L201 629 L133 730 L77 731 L77 722 L174 575 L228 575 L325 721 L325 730 L268 730 Z M142 415 L142 500 L88 500 L88 0 L144 0 L144 298 C160 397 218 451 279 451 C294 451 312 450 324 449 L324 509 C317 510 304 510 294 510 C228 510 174 476 142 415 L142 415 Z " />
<glyph glyph-name="Sacute" unicode="&#x15a;" horiz-adv-x="662" d="M503 889 L428 889 L303 763 L303 754 L350 754 L503 880 L503 889 Z M405 368 L290 387 C188 404 131 432 131 517 C131 599 202 641 325 644 C467 647 542 583 542 472 L600 472 C600 605 511 700 332 700 C155 700 72 617 72 513 C72 397 150 352 265 333 L377 315 C485 297 552 259 552 176 C552 90 478 45 332 45 C174 45 100 110 100 212 L42 212 C42 77 136 -11 329 -11 C517 -11 613 64 613 176 C613 275 559 342 405 368 L405 368 Z " />
<glyph glyph-name="sacute" unicode="&#x15b;" horiz-adv-x="506" d="M415 730 L340 730 L215 584 L215 575 L262 575 L415 721 L415 730 Z M302 277 L233 285 C155 295 119 320 119 369 C119 418 156 451 242 453 C340 456 388 409 388 327 L447 327 C447 431 384 510 249 510 C118 510 58 444 58 362 C58 291 103 240 208 230 L284 220 C354 213 396 187 396 133 C396 79 347 46 251 47 C150 47 102 99 102 172 L44 172 C44 67 111 -10 247 -10 C392 -10 457 53 457 133 C457 211 410 265 302 277 L302 277 Z " />
<glyph glyph-name="Scircumflex" unicode="&#x15c;" horiz-adv-x="662" d="M337 838 L420 754 L474 754 L474 763 L364 889 L309 889 L199 763 L199 754 L253 754 L337 838 Z M405 368 L290 387 C188 404 131 432 131 517 C131 599 202 641 325 644 C467 647 542 583 542 472 L600 472 C600 605 511 700 332 700 C155 700 72 617 72 513 C72 397 150 352 265 333 L377 315 C485 297 552 259 552 176 C552 90 478 45 332 45 C174 45 100 110 100 212 L42 212 C42 77 136 -11 329 -11 C517 -11 613 64 613 176 C613 275 559 342 405 368 L405 368 Z " />
<glyph glyph-name="scircumflex" unicode="&#x15d;" horiz-adv-x="506" d="M258 677 L350 575 L404 575 L404 584 L293 730 L224 730 L112 584 L112 575 L166 575 L258 677 Z M302 277 L233 285 C155 295 119 320 119 369 C119 418 156 451 242 453 C340 456 388 409 388 327 L447 327 C447 431 384 510 249 510 C118 510 58 444 58 362 C58 291 103 240 208 230 L284 220 C354 213 396 187 396 133 C396 79 347 46 251 47 C150 47 102 99 102 172 L44 172 C44 67 111 -10 247 -10 C392 -10 457 53 457 133 C457 211 410 265 302 277 L302 277 Z " />
<glyph glyph-name="Scedilla" unicode="&#x15e;" horiz-adv-x="662" d="M613 176 C613 275 559 342 405 368 L290 387 C188 404 131 432 131 517 C131 599 202 641 325 644 C467 647 542 583 542 472 L600 472 C600 605 511 700 332 700 C155 700 72 617 72 513 C72 397 150 352 265 333 L377 315 C485 297 552 259 552 176 C552 90 478 45 332 45 C174 45 100 110 100 212 L42 212 C42 81 130 -5 310 -11 L293 -62 L323 -87 C328 -86 338 -85 346 -85 C375 -85 397 -102 397 -131 C397 -164 371 -177 343 -177 C311 -177 292 -161 292 -140 L239 -140 C239 -182 272 -224 342 -224 C408 -224 448 -184 448 -128 C448 -72 404 -40 354 -41 L363 -10 C529 -1 613 71 613 176 L613 176 Z " />
<glyph glyph-name="scedilla" unicode="&#x15f;" horiz-adv-x="506" d="M457 133 C457 211 410 265 302 277 L233 285 C155 295 119 320 119 369 C119 418 156 451 242 453 C340 456 388 409 388 327 L447 327 C447 431 384 510 249 510 C118 510 58 444 58 362 C58 291 103 240 208 230 L284 220 C354 213 396 187 396 133 C396 79 347 46 251 47 C150 47 102 99 102 172 L44 172 C44 73 103 -1 224 -9 L206 -62 L236 -87 C241 -86 250 -85 259 -85 C288 -85 309 -102 309 -131 C309 -164 283 -177 255 -177 C224 -177 205 -161 205 -140 L151 -140 C151 -182 185 -224 254 -224 C321 -224 360 -184 360 -128 C360 -72 316 -40 266 -41 L276 -9 C401 -1 457 59 457 133 L457 133 Z " />
<glyph glyph-name="Scaron" unicode="&#x160;" horiz-adv-x="662" d="M309 754 L364 754 L474 880 L474 889 L420 889 L337 806 L253 889 L199 889 L199 880 L309 754 Z M405 368 L290 387 C188 404 131 432 131 517 C131 599 202 641 325 644 C467 647 542 583 542 472 L600 472 C600 605 511 700 332 700 C155 700 72 617 72 513 C72 397 150 352 265 333 L377 315 C485 297 552 259 552 176 C552 90 478 45 332 45 C174 45 100 110 100 212 L42 212 C42 77 136 -11 329 -11 C517 -11 613 64 613 176 C613 275 559 342 405 368 L405 368 Z " />
<glyph glyph-name="scaron" unicode="&#x161;" horiz-adv-x="506" d="M224 575 L293 575 L404 721 L404 730 L350 730 L258 628 L166 730 L112 730 L112 721 L224 575 Z M302 277 L233 285 C155 295 119 320 119 369 C119 418 156 451 242 453 C340 456 388 409 388 327 L447 327 C447 431 384 510 249 510 C118 510 58 444 58 362 C58 291 103 240 208 230 L284 220 C354 213 396 187 396 133 C396 79 347 46 251 47 C150 47 102 99 102 172 L44 172 C44 67 111 -10 247 -10 C392 -10 457 53 457 133 C457 211 410 265 302 277 L302 277 Z " />
<glyph glyph-name="uni0162" unicode="&#x162;" horiz-adv-x="648" d="M353 0 L353 635 L629 635 L629 690 L20 690 L20 635 L295 635 L295 0 L296 0 L275 -62 L306 -87 C311 -86 320 -85 328 -85 C357 -85 379 -102 379 -131 C379 -164 353 -177 325 -177 C293 -177 274 -161 274 -140 L221 -140 C221 -182 255 -224 324 -224 C391 -224 430 -184 430 -128 C430 -72 386 -40 336 -41 L349 0 L353 0 Z " />
<glyph glyph-name="uni0163" unicode="&#x163;" horiz-adv-x="338" d="M231 -41 L241 -10 C264 -9 300 -5 320 3 L320 55 C299 46 268 43 245 43 C182 43 162 72 162 133 L162 446 L312 446 L312 500 L162 500 L162 648 L106 648 L106 500 L21 500 L21 446 L106 446 L106 121 C106 55 127 9 189 -5 L170 -62 L201 -87 C206 -86 215 -85 223 -85 C252 -85 274 -102 274 -131 C274 -164 248 -177 220 -177 C188 -177 169 -161 169 -140 L116 -140 C116 -182 150 -224 219 -224 C286 -224 325 -184 325 -128 C325 -72 281 -40 231 -41 L231 -41 Z " />
<glyph glyph-name="Tcaron" unicode="&#x164;" horiz-adv-x="648" d="M297 754 L352 754 L462 880 L462 889 L408 889 L324 805 L240 889 L186 889 L186 880 L297 754 Z M629 690 L20 690 L20 635 L295 635 L295 0 L353 0 L353 635 L629 635 L629 690 Z " />
<glyph glyph-name="tcaron" unicode="&#x165;" horiz-adv-x="338" d="M301 602 C305 609 313 624 313 637 C313 665 292 680 268 680 C243 680 222 665 222 640 C222 620 231 608 244 601 L218 544 L218 536 L259 536 L301 602 Z M245 43 C182 43 162 72 162 133 L162 446 L312 446 L312 500 L162 500 L162 648 L106 648 L106 500 L21 500 L21 446 L106 446 L106 121 C106 40 138 -10 236 -10 C259 -10 299 -6 320 3 L320 55 C299 46 268 43 245 43 L245 43 Z " />
<glyph glyph-name="Tbar" unicode="&#x166;" horiz-adv-x="648" d="M629 635 L629 690 L20 690 L20 635 L295 635 L295 373 L133 373 L133 319 L295 319 L295 0 L353 0 L353 319 L513 319 L513 373 L353 373 L353 635 L629 635 Z " />
<glyph glyph-name="tbar" unicode="&#x167;" horiz-adv-x="338" d="M245 43 C182 43 162 72 162 133 L162 222 L308 222 L308 277 L162 277 L162 446 L312 446 L312 500 L162 500 L162 648 L106 648 L106 500 L21 500 L21 446 L106 446 L106 277 L23 277 L23 222 L106 222 L106 121 C106 40 138 -10 236 -10 C259 -10 299 -6 320 3 L320 55 C299 46 268 43 245 43 L245 43 Z " />
<glyph glyph-name="Utilde" unicode="&#x168;" horiz-adv-x="740" d="M211 768 L265 768 C265 804 277 819 308 819 C345 819 370 768 439 768 C495 768 527 806 527 877 L474 877 C474 842 461 827 430 827 C394 827 367 878 299 878 C243 878 211 840 211 768 L211 768 Z M650 284 L650 690 L592 690 L592 291 C592 104 487 47 369 47 C253 47 148 106 148 293 L148 690 L90 690 L90 286 C90 69 215 -10 365 -10 C521 -10 650 74 650 284 L650 284 Z " />
<glyph glyph-name="utilde" unicode="&#x169;" horiz-adv-x="589" d="M225 632 C259 632 287 569 357 569 C413 569 446 607 446 679 L392 679 C392 640 379 625 348 625 C313 625 284 689 216 689 C159 689 127 650 127 578 L181 578 C181 616 194 632 225 632 L225 632 Z M499 96 L499 500 L443 500 L443 188 C423 103 360 45 278 45 C180 45 137 100 137 195 L137 500 L81 500 L81 196 C81 75 138 -10 267 -10 C345 -10 409 26 445 84 C447 53 451 23 459 0 L512 0 L512 6 C505 34 499 67 499 96 L499 96 Z " />
<glyph glyph-name="Umacron" unicode="&#x16a;" horiz-adv-x="740" d="M235 839 L235 785 L506 785 L506 839 L235 839 Z M650 284 L650 690 L592 690 L592 291 C592 104 487 47 369 47 C253 47 148 106 148 293 L148 690 L90 690 L90 286 C90 69 215 -10 365 -10 C521 -10 650 74 650 284 L650 284 Z " />
<glyph glyph-name="umacron" unicode="&#x16b;" horiz-adv-x="589" d="M422 669 L151 669 L151 615 L422 615 L422 669 Z M499 96 L499 500 L443 500 L443 188 C423 103 360 45 278 45 C180 45 137 100 137 195 L137 500 L81 500 L81 196 C81 75 138 -10 267 -10 C345 -10 409 26 445 84 C447 53 451 23 459 0 L512 0 L512 6 C505 34 499 67 499 96 L499 96 Z " />
<glyph glyph-name="Ubreve" unicode="&#x16c;" horiz-adv-x="740" d="M371 800 C417 800 452 831 453 887 L505 887 C505 806 454 744 371 744 C287 744 236 806 236 887 L288 887 C289 831 324 800 371 800 L371 800 Z M650 284 L650 690 L592 690 L592 291 C592 104 487 47 369 47 C253 47 148 106 148 293 L148 690 L90 690 L90 286 C90 69 215 -10 365 -10 C521 -10 650 74 650 284 L650 284 Z " />
<glyph glyph-name="ubreve" unicode="&#x16d;" horiz-adv-x="589" d="M286 569 C368 569 421 618 421 730 L368 730 C367 647 330 624 286 624 C243 624 206 647 205 730 L152 730 C152 618 204 569 286 569 L286 569 Z M499 96 L499 500 L443 500 L443 188 C423 103 360 45 278 45 C180 45 137 100 137 195 L137 500 L81 500 L81 196 C81 75 138 -10 267 -10 C345 -10 409 26 445 84 C447 53 451 23 459 0 L512 0 L512 6 C505 34 499 67 499 96 L499 96 Z " />
<glyph glyph-name="Uring" unicode="&#x16e;" horiz-adv-x="740" d="M370 736 C435 736 483 783 483 848 C483 913 435 959 370 959 C305 959 257 913 257 848 C257 783 305 736 370 736 L370 736 Z M370 784 C332 784 305 811 305 848 C305 886 332 911 370 911 C408 911 435 886 435 848 C435 811 408 784 370 784 L370 784 Z M650 284 L650 690 L592 690 L592 291 C592 104 487 47 369 47 C253 47 148 106 148 293 L148 690 L90 690 L90 286 C90 69 215 -10 365 -10 C521 -10 650 74 650 284 L650 284 Z " />
<glyph glyph-name="uring" unicode="&#x16f;" horiz-adv-x="589" d="M286 550 C351 550 399 597 399 662 C399 727 351 773 286 773 C221 773 173 727 173 662 C173 597 221 550 286 550 L286 550 Z M286 719 C321 719 345 696 345 662 C345 629 321 604 286 604 C251 604 227 629 227 662 C227 696 251 719 286 719 L286 719 Z M499 96 L499 500 L443 500 L443 188 C423 103 360 45 278 45 C180 45 137 100 137 195 L137 500 L81 500 L81 196 C81 75 138 -10 267 -10 C345 -10 409 26 445 84 C447 53 451 23 459 0 L512 0 L512 6 C505 34 499 67 499 96 L499 96 Z " />
<glyph glyph-name="Uhungarumlaut" unicode="&#x170;" horiz-adv-x="740" d="M460 893 L396 893 L297 763 L297 754 L342 754 L460 884 L460 893 Z M574 893 L510 893 L411 763 L411 754 L456 754 L574 884 L574 893 Z M650 284 L650 690 L592 690 L592 291 C592 104 487 47 369 47 C253 47 148 106 148 293 L148 690 L90 690 L90 286 C90 69 215 -10 365 -10 C521 -10 650 74 650 284 L650 284 Z " />
<glyph glyph-name="uhungarumlaut" unicode="&#x171;" horiz-adv-x="589" d="M368 707 L368 716 L304 716 L205 584 L205 575 L249 575 L368 707 Z M319 575 L363 575 L482 707 L482 716 L418 716 L319 584 L319 575 Z M499 96 L499 500 L443 500 L443 188 C423 103 360 45 278 45 C180 45 137 100 137 195 L137 500 L81 500 L81 196 C81 75 138 -10 267 -10 C345 -10 409 26 445 84 C447 53 451 23 459 0 L512 0 L512 6 C505 34 499 67 499 96 L499 96 Z " />
<glyph glyph-name="Uogonek" unicode="&#x172;" horiz-adv-x="740" d="M592 690 L592 291 C592 104 487 47 369 47 C253 47 148 106 148 293 L148 690 L90 690 L90 286 C90 69 215 -10 365 -10 C375 -10 384 -10 393 -9 C362 -43 345 -78 345 -112 C345 -175 380 -237 495 -219 L495 -170 C428 -186 399 -155 399 -108 C399 -69 433 -19 484 9 C581 45 650 131 650 284 L650 690 L592 690 Z " />
<glyph glyph-name="uogonek" unicode="&#x173;" horiz-adv-x="589" d="M426 -118 C426 -79 462 -28 512 0 L512 6 C505 34 499 67 499 96 L499 500 L443 500 L443 188 C423 103 360 45 278 45 C180 45 137 100 137 195 L137 500 L81 500 L81 196 C81 75 138 -10 267 -10 C345 -10 409 26 445 84 C447 59 450 34 455 14 C403 -30 372 -78 372 -122 C372 -185 407 -247 522 -229 L522 -180 C456 -196 426 -165 426 -118 L426 -118 Z " />
<glyph glyph-name="Wcircumflex" unicode="&#x174;" horiz-adv-x="983" d="M495 838 L578 754 L632 754 L632 763 L522 889 L467 889 L357 763 L357 754 L411 754 L495 838 Z M899 690 L755 209 C741 165 722 96 710 53 C699 96 682 164 669 209 L536 690 L454 690 L322 210 L282 51 C270 95 248 167 234 210 L82 690 L19 690 L242 0 L321 0 L453 479 C465 525 482 598 492 638 C503 598 522 526 535 480 L670 0 L746 0 L960 690 L899 690 Z " />
<glyph glyph-name="wcircumflex" unicode="&#x175;" horiz-adv-x="789" d="M397 678 L490 575 L544 575 L544 584 L432 730 L363 730 L251 584 L251 575 L305 575 L397 678 Z M712 500 L609 198 C593 154 576 96 565 58 C554 97 537 154 523 196 L424 500 L365 500 L267 198 C253 156 236 98 225 58 C214 98 196 156 183 196 L80 500 L18 500 L193 0 L258 0 L366 330 C376 361 388 405 396 433 C402 405 414 361 424 330 L531 0 L596 0 L771 500 L712 500 Z " />
<glyph glyph-name="Ycircumflex" unicode="&#x176;" horiz-adv-x="644" d="M322 838 L406 754 L460 754 L460 763 L349 889 L294 889 L184 763 L184 754 L238 754 L322 838 Z M623 690 L555 690 L426 510 C386 452 341 388 321 358 C302 388 259 452 220 507 L92 690 L20 690 L293 312 L293 0 L351 0 L351 312 L623 690 Z " />
<glyph glyph-name="ycircumflex" unicode="&#x177;" horiz-adv-x="509" d="M254 678 L347 575 L401 575 L401 584 L289 730 L221 730 L109 584 L109 575 L162 575 L254 678 Z M433 500 L316 210 C294 157 269 91 256 56 C242 91 217 156 197 207 L80 500 L17 500 L226 5 L172 -111 C151 -156 129 -172 83 -172 C67 -172 51 -169 39 -167 L39 -219 C50 -222 68 -224 82 -224 C169 -224 188 -197 223 -126 L282 0 L492 500 L433 500 Z " />
<glyph glyph-name="Ydieresis" unicode="&#x178;" horiz-adv-x="644" d="M227 774 C253 774 277 790 277 821 C277 852 253 868 227 868 C202 868 178 852 178 821 C178 790 202 774 227 774 L227 774 Z M416 774 C442 774 466 790 466 821 C466 852 442 868 416 868 C391 868 367 852 367 821 C367 790 391 774 416 774 L416 774 Z M623 690 L555 690 L426 510 C386 452 341 388 321 358 C302 388 259 452 220 507 L92 690 L20 690 L293 312 L293 0 L351 0 L351 312 L623 690 Z " />
<glyph glyph-name="Zacute" unicode="&#x179;" horiz-adv-x="624" d="M493 889 L418 889 L293 763 L293 754 L340 754 L493 880 L493 889 Z M197 168 L580 629 L580 690 L48 690 L48 635 L367 635 C428 635 481 636 519 638 C497 614 460 571 420 523 L38 64 L38 0 L591 0 L591 55 L236 55 C183 55 131 55 99 53 C121 78 156 118 197 168 L197 168 Z " />
<glyph glyph-name="zacute" unicode="&#x17a;" horiz-adv-x="474" d="M409 730 L334 730 L209 584 L209 575 L256 575 L409 721 L409 730 Z M185 141 L427 457 L427 500 L47 500 L47 445 L226 445 C258 445 323 447 358 448 C336 423 295 373 276 348 L41 43 L41 0 L436 0 L436 55 L229 55 C201 55 147 53 116 52 C134 76 168 118 185 141 L185 141 Z " />
<glyph glyph-name="Zdotaccent" unicode="&#x17b;" horiz-adv-x="624" d="M263 825 C263 793 287 776 313 776 C339 776 364 793 364 825 C364 857 339 874 313 874 C287 874 263 857 263 825 L263 825 Z M197 168 L580 629 L580 690 L48 690 L48 635 L367 635 C428 635 481 636 519 638 C497 614 460 571 420 523 L38 64 L38 0 L591 0 L591 55 L236 55 C183 55 131 55 99 53 C121 78 156 118 197 168 L197 168 Z " />
<glyph glyph-name="zdotaccent" unicode="&#x17c;" horiz-adv-x="474" d="M187 658 C187 626 212 609 238 609 C263 609 288 626 288 658 C288 690 263 707 238 707 C212 707 187 690 187 658 L187 658 Z M185 141 L427 457 L427 500 L47 500 L47 445 L226 445 C258 445 323 447 358 448 C336 423 295 373 276 348 L41 43 L41 0 L436 0 L436 55 L229 55 C201 55 147 53 116 52 C134 76 168 118 185 141 L185 141 Z " />
<glyph glyph-name="Zcaron" unicode="&#x17d;" horiz-adv-x="624" d="M287 754 L342 754 L452 880 L452 889 L398 889 L315 806 L231 889 L177 889 L177 880 L287 754 Z M236 55 C183 55 131 55 99 53 C121 78 156 118 197 168 L580 629 L580 690 L48 690 L48 635 L367 635 C428 635 481 636 519 638 C497 614 460 571 420 523 L38 64 L38 0 L591 0 L591 55 L236 55 Z " />
<glyph glyph-name="zcaron" unicode="&#x17e;" horiz-adv-x="474" d="M203 575 L272 575 L384 721 L384 730 L330 730 L237 627 L145 730 L92 730 L92 721 L203 575 Z M229 55 C201 55 147 53 116 52 C134 76 168 118 185 141 L427 457 L427 500 L47 500 L47 445 L226 445 C258 445 323 447 358 448 C336 423 295 373 276 348 L41 43 L41 0 L436 0 L436 55 L229 55 Z " />
<glyph glyph-name="florin" unicode="&#x192;" horiz-adv-x="553" d="M450 706 C473 706 495 705 514 701 L524 755 C504 759 481 760 462 760 C362 760 308 707 293 624 L271 500 L159 500 L150 446 L262 446 L164 -109 C156 -154 132 -172 97 -172 C73 -172 51 -170 34 -166 L24 -218 C41 -222 72 -224 98 -224 C163 -224 205 -187 218 -115 L317 446 L476 446 L485 500 L327 500 L347 613 C358 675 389 706 450 706 L450 706 Z " />
<glyph glyph-name="uni019D" unicode="&#x19d;" horiz-adv-x="772" d="M613 690 L612 228 C612 162 616 95 619 53 C600 87 568 140 533 187 L168 690 L100 690 L100 -97 C100 -144 77 -170 32 -170 C16 -170 1 -168 -12 -165 L-12 -220 C-1 -222 17 -224 29 -224 C115 -224 159 -175 159 -106 L160 479 C160 528 156 594 154 636 C174 601 206 548 238 504 L604 0 L672 0 L672 690 L613 690 Z " />
<glyph glyph-name="Gcaron" unicode="&#x1e6;" horiz-adv-x="743" d="M370 754 L425 754 L536 880 L536 889 L482 889 L398 805 L314 889 L260 889 L260 880 L370 754 Z M677 352 L419 352 L419 293 L619 293 L619 100 C561 68 491 45 402 45 C240 45 112 143 112 346 C112 551 246 645 386 645 C505 645 609 585 618 461 L675 461 C669 615 546 700 391 700 C213 700 53 571 53 345 C53 114 201 -10 394 -10 C515 -10 609 24 677 71 L677 352 Z " />
<glyph glyph-name="gcaron" unicode="&#x1e7;" horiz-adv-x="517" d="M234 575 L303 575 L415 721 L415 730 L361 730 L268 627 L176 730 L123 730 L123 721 L234 575 Z M485 500 L318 500 C297 506 275 510 251 510 C143 510 47 445 47 327 C47 244 90 189 151 163 C132 141 120 115 120 87 C120 35 160 5 232 -2 L340 -12 C397 -17 423 -43 423 -83 C423 -135 368 -168 259 -168 C144 -168 91 -123 91 -54 L31 -54 C31 -158 105 -224 255 -224 C404 -224 482 -173 482 -83 C482 -8 434 36 342 45 L264 53 C203 58 181 71 181 98 C181 116 190 131 206 147 C220 145 233 144 247 144 C356 144 452 208 452 329 C452 382 432 421 399 451 C429 449 462 447 485 447 L485 500 Z M249 200 C174 200 105 236 105 327 C105 417 174 455 249 454 C326 452 394 414 394 326 C394 236 326 200 249 200 L249 200 Z " />
<glyph glyph-name="uni01EA" unicode="&#x1ea;" horiz-adv-x="787" d="M491 5 C629 45 734 166 734 348 C734 573 580 700 398 700 C212 700 53 571 53 345 C53 114 205 -10 387 -10 C394 -10 401 -10 408 -9 C376 -44 358 -79 358 -114 C358 -176 393 -239 508 -220 L508 -171 C442 -187 413 -157 413 -109 C413 -72 445 -24 491 5 L491 5 Z M112 346 C112 551 246 645 392 645 C540 645 675 548 675 344 C675 139 540 45 392 45 C246 45 112 142 112 346 L112 346 Z " />
<glyph glyph-name="uni01EB" unicode="&#x1eb;" horiz-adv-x="584" d="M351 -2 C455 23 535 114 535 252 C535 417 427 510 296 510 C163 510 49 415 49 250 C49 87 150 -4 274 -10 C239 -45 219 -83 219 -119 C219 -182 255 -244 370 -225 L370 -177 C303 -192 274 -162 274 -115 C274 -78 305 -30 351 -2 L351 -2 Z M109 251 C109 390 197 455 292 455 C387 455 475 387 475 249 C475 110 387 45 292 45 C197 45 109 113 109 251 L109 251 Z " />
<glyph glyph-name="AEacute" unicode="&#x1fc;" horiz-adv-x="1039" d="M722 880 L722 889 L647 889 L522 763 L522 754 L569 754 L722 880 Z M556 55 L556 333 L933 333 L933 388 L556 388 L556 635 L985 635 L985 690 L496 690 L-10 0 L60 0 L232 235 L498 235 L498 0 L989 0 L989 55 L556 55 Z M274 293 L468 558 L498 601 L498 293 L274 293 Z " />
<glyph glyph-name="aeacute" unicode="&#x1fd;" horiz-adv-x="907" d="M624 721 L624 730 L549 730 L424 584 L424 575 L471 575 L624 721 Z M857 263 C857 416 767 510 640 510 C559 510 489 472 447 404 C423 471 367 510 276 510 C144 510 74 434 74 318 L131 318 C131 400 172 450 275 450 C369 450 404 391 405 312 L405 292 L190 260 C106 248 53 202 53 123 C53 41 113 -10 215 -10 C306 -10 396 33 437 106 C475 30 545 -10 626 -10 C733 -10 830 47 850 161 L790 161 C773 79 702 51 628 51 C547 51 473 109 464 232 L857 232 L857 263 Z M637 450 C724 450 785 398 794 291 L465 291 C474 398 555 450 637 450 L637 450 Z M218 45 C145 45 114 82 114 123 C114 163 137 195 205 205 L406 236 L408 165 C381 87 305 45 218 45 L218 45 Z " />
<glyph glyph-name="Oslashacute" unicode="&#x1fe;" horiz-adv-x="803" d="M580 880 L580 889 L505 889 L380 763 L380 754 L428 754 L580 880 Z M750 651 L707 693 L632 618 C572 672 492 700 406 700 C221 700 61 571 61 345 C61 250 87 173 130 116 L43 29 L86 -13 L170 71 C230 18 309 -10 395 -10 C582 -10 743 122 743 348 C743 441 717 517 673 574 L750 651 Z M120 346 C120 551 254 645 401 645 C472 645 539 623 591 577 L172 158 C140 205 120 268 120 346 L120 346 Z M683 344 C683 139 548 45 401 45 C331 45 263 67 212 113 L631 532 C663 484 683 422 683 344 L683 344 Z " />
<glyph glyph-name="oslashacute" unicode="&#x1ff;" horiz-adv-x="602" d="M476 721 L476 730 L401 730 L276 584 L276 575 L323 575 L476 721 Z M562 474 L524 513 L464 453 C422 490 366 510 306 510 C172 510 58 415 58 250 C58 185 74 131 101 90 L36 25 L74 -15 L137 48 C180 10 236 -10 297 -10 C430 -10 544 87 544 252 C544 317 528 370 500 412 L562 474 Z M118 251 C118 390 207 455 301 455 C345 455 388 440 421 410 L146 135 C128 165 118 204 118 251 L118 251 Z M484 249 C484 110 396 45 301 45 C256 45 213 60 180 91 L456 367 C473 336 484 297 484 249 L484 249 Z " />
<glyph glyph-name="uni0218" unicode="&#x218;" horiz-adv-x="662" d="M405 368 L290 387 C188 404 131 432 131 517 C131 599 202 641 325 644 C467 647 542 583 542 472 L600 472 C600 605 511 700 332 700 C155 700 72 617 72 513 C72 397 150 352 265 333 L377 315 C485 297 552 259 552 176 C552 90 478 45 332 45 C174 45 100 110 100 212 L42 212 C42 77 136 -11 329 -11 C517 -11 613 64 613 176 C613 275 559 342 405 368 L405 368 Z M353 -86 C353 -60 332 -46 308 -46 C285 -46 264 -60 264 -88 C264 -105 272 -117 285 -124 L243 -211 L243 -219 L277 -219 L339 -125 C347 -113 353 -101 353 -86 L353 -86 Z " />
<glyph glyph-name="uni0219" unicode="&#x219;" horiz-adv-x="506" d="M302 277 L233 285 C155 295 119 320 119 369 C119 418 156 451 242 453 C340 456 388 409 388 327 L447 327 C447 431 384 510 249 510 C118 510 58 444 58 362 C58 291 103 240 208 230 L284 220 C354 213 396 187 396 133 C396 79 347 46 251 47 C150 47 102 99 102 172 L44 172 C44 67 111 -10 247 -10 C392 -10 457 53 457 133 C457 211 410 265 302 277 L302 277 Z M295 -86 C295 -60 274 -46 250 -46 C227 -46 206 -60 206 -88 C206 -105 214 -117 227 -124 L185 -211 L185 -219 L219 -219 L281 -125 C289 -113 295 -101 295 -86 L295 -86 Z " />
<glyph glyph-name="uni021A" unicode="&#x21a;" horiz-adv-x="648" d="M629 690 L20 690 L20 635 L295 635 L295 0 L353 0 L353 635 L629 635 L629 690 Z M324 -46 C301 -46 281 -60 281 -88 C281 -105 288 -117 301 -124 L259 -211 L259 -219 L294 -219 L355 -125 C363 -113 369 -101 369 -86 C369 -60 348 -46 324 -46 L324 -46 Z " />
<glyph glyph-name="uni021B" unicode="&#x21b;" horiz-adv-x="338" d="M245 43 C182 43 162 72 162 133 L162 446 L312 446 L312 500 L162 500 L162 648 L106 648 L106 500 L21 500 L21 446 L106 446 L106 121 C106 40 138 -10 236 -10 C259 -10 299 -6 320 3 L320 55 C299 46 268 43 245 43 L245 43 Z M227 -46 C204 -46 183 -60 183 -88 C183 -105 190 -117 204 -124 L161 -211 L161 -219 L196 -219 L258 -125 C266 -113 271 -101 271 -86 C271 -60 251 -46 227 -46 L227 -46 Z " />
<glyph glyph-name="uni0232" unicode="&#x232;" horiz-adv-x="644" d="M458 839 L186 839 L186 785 L458 785 L458 839 Z M623 690 L555 690 L426 510 C386 452 341 388 321 358 C302 388 259 452 220 507 L92 690 L20 690 L293 312 L293 0 L351 0 L351 312 L623 690 Z " />
<glyph glyph-name="uni0233" unicode="&#x233;" horiz-adv-x="509" d="M393 669 L122 669 L122 615 L393 615 L393 669 Z M433 500 L316 210 C294 157 269 91 256 56 C242 91 217 156 197 207 L80 500 L17 500 L226 5 L172 -111 C151 -156 129 -172 83 -172 C67 -172 51 -169 39 -167 L39 -219 C50 -222 68 -224 82 -224 C169 -224 188 -197 223 -126 L282 0 L492 500 L433 500 Z " />
<glyph glyph-name="uni0237" unicode="&#x237;" horiz-adv-x="241" d="M152 -106 L152 500 L96 500 L96 -97 C96 -144 73 -170 27 -170 C12 -170 -4 -168 -16 -165 L-16 -220 C-6 -222 12 -224 25 -224 C109 -224 152 -175 152 -106 L152 -106 Z " />
<glyph glyph-name="uni0272" unicode="&#x272;" horiz-adv-x="593" d="M324 510 C245 510 179 473 142 415 L142 500 L88 500 L88 -97 C88 -144 65 -170 19 -170 C4 -170 -12 -168 -24 -165 L-24 -220 C-14 -222 4 -224 17 -224 C101 -224 144 -175 144 -106 L144 312 C165 397 230 455 313 455 C411 455 456 400 456 307 L456 0 L512 0 L512 307 C512 427 452 510 324 510 L324 510 Z " />
<glyph glyph-name="circumflex" unicode="&#x2c6;" horiz-adv-x="600" d="M233 730 L164 730 L52 584 L52 575 L106 575 L198 678 L291 575 L345 575 L345 584 L233 730 Z " />
<glyph glyph-name="caron" unicode="&#x2c7;" horiz-adv-x="600" d="M293 730 L200 627 L108 730 L55 730 L55 721 L167 575 L235 575 L347 721 L347 730 L293 730 Z " />
<glyph glyph-name="breve" unicode="&#x2d8;" horiz-adv-x="600" d="M185 624 C228 624 266 647 266 730 L319 730 C319 618 267 569 185 569 C103 569 51 618 51 730 L103 730 C104 647 142 624 185 624 L185 624 Z " />
<glyph glyph-name="dotaccent" unicode="&#x2d9;" horiz-adv-x="600" d="M45 658 C45 626 70 609 96 609 C121 609 146 626 146 658 C146 690 121 707 96 707 C70 707 45 690 45 658 L45 658 Z " />
<glyph glyph-name="ring" unicode="&#x2da;" horiz-adv-x="600" d="M137 550 C201 550 249 597 249 662 C249 727 201 773 137 773 C72 773 24 727 24 662 C24 597 72 550 137 550 L137 550 Z M137 604 C102 604 77 629 77 662 C77 696 102 719 137 719 C171 719 196 696 196 662 C196 629 171 604 137 604 L137 604 Z " />
<glyph glyph-name="ogonek" unicode="&#x2db;" horiz-adv-x="600" d="M188 0 L152 30 C87 -18 48 -72 48 -122 C48 -185 83 -247 198 -229 L198 -180 C132 -196 102 -165 102 -118 C102 -79 138 -28 188 0 L188 0 Z " />
<glyph glyph-name="tilde" unicode="&#x2dc;" horiz-adv-x="600" d="M64 578 L118 578 C118 616 131 632 162 632 C197 632 225 569 294 569 C351 569 383 607 383 679 L329 679 C329 640 317 625 285 625 C250 625 221 689 153 689 C97 689 64 650 64 578 L64 578 Z " />
<glyph glyph-name="hungarumlaut" unicode="&#x2dd;" horiz-adv-x="600" d="M213 716 L149 716 L50 584 L50 575 L95 575 L213 707 L213 716 Z M327 716 L264 716 L164 584 L164 575 L209 575 L327 707 L327 716 Z " />
<glyph glyph-name="gravecomb" unicode="&#x300;" d="M-250 730 L-250 721 L-97 575 L-50 575 L-50 584 L-175 730 L-250 730 Z " />
<glyph glyph-name="acutecomb" unicode="&#x301;" d="M-50 730 L-125 730 L-250 584 L-250 575 L-203 575 L-50 721 L-50 730 Z " />
<glyph glyph-name="uni0302" unicode="&#x302;" d="M-164 730 L-233 730 L-345 584 L-345 575 L-291 575 L-199 678 L-106 575 L-52 575 L-52 584 L-164 730 Z " />
<glyph glyph-name="tildecomb" unicode="&#x303;" d="M-384 578 L-330 578 C-330 616 -317 632 -286 632 C-251 632 -223 569 -154 569 C-97 569 -65 607 -65 679 L-119 679 C-119 640 -131 625 -163 625 C-198 625 -227 689 -295 689 C-351 689 -384 650 -384 578 L-384 578 Z " />
<glyph glyph-name="uni0304" unicode="&#x304;" d="M-320 669 L-320 615 L-49 615 L-49 669 L-320 669 Z " />
<glyph glyph-name="uni0306" unicode="&#x306;" d="M-185 624 C-142 624 -104 647 -104 730 L-51 730 C-51 618 -103 569 -185 569 C-267 569 -319 618 -319 730 L-267 730 C-266 647 -228 624 -185 624 L-185 624 Z " />
<glyph glyph-name="uni0307" unicode="&#x307;" d="M-146 658 C-146 626 -121 609 -95 609 C-70 609 -45 626 -45 658 C-45 690 -70 707 -95 707 C-121 707 -146 690 -146 658 L-146 658 Z " />
<glyph glyph-name="uni0308" unicode="&#x308;" d="M-352 658 C-352 627 -328 611 -303 611 C-278 611 -254 627 -254 658 C-254 689 -278 705 -303 705 C-328 705 -352 689 -352 658 L-352 658 Z M-163 658 C-163 627 -139 611 -114 611 C-89 611 -65 627 -65 658 C-65 689 -89 705 -114 705 C-139 705 -163 689 -163 658 L-163 658 Z " />
<glyph glyph-name="uni030A" unicode="&#x30a;" d="M-136 550 C-72 550 -24 597 -24 662 C-24 727 -72 773 -136 773 C-201 773 -249 727 -249 662 C-249 597 -201 550 -136 550 L-136 550 Z M-136 604 C-171 604 -196 629 -196 662 C-196 696 -171 719 -136 719 C-102 719 -77 696 -77 662 C-77 629 -102 604 -136 604 L-136 604 Z " />
<glyph glyph-name="uni030B" unicode="&#x30b;" d="M-164 716 L-228 716 L-327 584 L-327 575 L-282 575 L-164 707 L-164 716 Z M-50 716 L-113 716 L-213 584 L-213 575 L-168 575 L-50 707 L-50 716 Z " />
<glyph glyph-name="uni030C" unicode="&#x30c;" d="M-104 730 L-197 627 L-289 730 L-342 730 L-342 721 L-230 575 L-162 575 L-50 721 L-50 730 L-104 730 Z " />
<glyph glyph-name="dotbelowcomb" unicode="&#x323;" d="M-174 -101 C-174 -127 -154 -141 -131 -141 C-107 -141 -87 -127 -87 -101 C-87 -74 -107 -60 -131 -60 C-154 -60 -174 -74 -174 -101 L-174 -101 Z " />
<glyph glyph-name="uni0326" unicode="&#x326;" d="M-87 -86 C-87 -60 -107 -46 -131 -46 C-154 -46 -175 -60 -175 -88 C-175 -105 -168 -117 -154 -124 L-197 -211 L-197 -219 L-162 -219 L-100 -125 C-92 -113 -87 -101 -87 -86 L-87 -86 Z " />
<glyph glyph-name="uni0327" unicode="&#x327;" d="M-146 -41 L-129 13 L-181 12 L-206 -62 L-176 -87 C-171 -86 -162 -85 -154 -85 C-124 -85 -103 -102 -103 -131 C-103 -164 -129 -177 -157 -177 C-189 -177 -208 -161 -208 -140 L-261 -140 C-261 -182 -227 -224 -158 -224 C-91 -224 -52 -184 -52 -128 C-52 -72 -96 -40 -146 -41 L-146 -41 Z " />
<glyph glyph-name="uni0328" unicode="&#x328;" d="M-141 0 L-177 30 C-242 -18 -281 -72 -281 -122 C-281 -185 -246 -247 -131 -229 L-131 -180 C-197 -196 -227 -165 -227 -118 C-227 -79 -191 -28 -141 0 L-141 0 Z " />
<glyph glyph-name="uni0335" unicode="&#x335;" d="M-334 308 L-334 254 L-51 254 L-51 308 L-334 308 Z " />
<glyph glyph-name="uni0336" unicode="&#x336;" d="M-741 308 L-741 254 L-52 254 L-52 308 L-741 308 Z " />
<glyph glyph-name="uni0337" unicode="&#x337;" d="M-284 298 L-260 245 L-42 346 L-66 399 L-284 298 Z " />
<glyph glyph-name="uni0338" unicode="&#x338;" d="M-380 150 L-342 110 L146 599 L108 638 L-380 150 Z " />
<glyph glyph-name="uni03BC" unicode="&#x3bc;" horiz-adv-x="600" d="M509 96 L509 500 L453 500 L453 188 C432 103 370 45 287 45 C190 45 147 100 147 195 L147 500 L91 500 L91 196 L91 192 L82 -72 C79 -121 61 -142 25 -142 C9 -142 -8 -140 -21 -137 L-21 -192 C-9 -195 10 -197 23 -197 C101 -197 136 -163 140 -64 L144 40 C176 5 217 -10 274 -10 C353 -10 418 26 454 84 C456 53 461 23 469 0 L522 0 L522 6 C514 34 509 67 509 96 L509 96 Z " />
<glyph glyph-name="Wgrave" unicode="&#x1e80;" horiz-adv-x="983" d="M520 763 L395 889 L320 889 L320 880 L472 754 L520 754 L520 763 Z M669 209 L536 690 L454 690 L322 210 L282 51 C270 95 248 167 234 210 L82 690 L19 690 L242 0 L321 0 L453 479 C465 525 482 598 492 638 C503 598 522 526 535 480 L670 0 L746 0 L960 690 L899 690 L755 209 C741 165 722 96 710 53 C699 96 682 164 669 209 L669 209 Z " />
<glyph glyph-name="wgrave" unicode="&#x1e81;" horiz-adv-x="789" d="M219 730 L219 721 L371 575 L419 575 L419 584 L294 730 L219 730 Z M523 196 L424 500 L365 500 L267 198 C253 156 236 98 225 58 C214 98 196 156 183 196 L80 500 L18 500 L193 0 L258 0 L366 330 C376 361 388 405 396 433 C402 405 414 361 424 330 L531 0 L596 0 L771 500 L712 500 L609 198 C593 154 576 96 565 58 C554 97 537 154 523 196 L523 196 Z " />
<glyph glyph-name="Wacute" unicode="&#x1e82;" horiz-adv-x="983" d="M673 889 L598 889 L473 763 L473 754 L520 754 L673 880 L673 889 Z M669 209 L536 690 L454 690 L322 210 L282 51 C270 95 248 167 234 210 L82 690 L19 690 L242 0 L321 0 L453 479 C465 525 482 598 492 638 C503 598 522 526 535 480 L670 0 L746 0 L960 690 L899 690 L755 209 C741 165 722 96 710 53 C699 96 682 164 669 209 L669 209 Z " />
<glyph glyph-name="wacute" unicode="&#x1e83;" horiz-adv-x="789" d="M569 730 L494 730 L369 584 L369 575 L416 575 L569 721 L569 730 Z M523 196 L424 500 L365 500 L267 198 C253 156 236 98 225 58 C214 98 196 156 183 196 L80 500 L18 500 L193 0 L258 0 L366 330 C376 361 388 405 396 433 C402 405 414 361 424 330 L531 0 L596 0 L771 500 L712 500 L609 198 C593 154 576 96 565 58 C554 97 537 154 523 196 L523 196 Z " />
<glyph glyph-name="Wdieresis" unicode="&#x1e84;" horiz-adv-x="983" d="M351 821 C351 790 375 774 400 774 C425 774 449 790 449 821 C449 852 425 868 400 868 C375 868 351 852 351 821 L351 821 Z M540 821 C540 790 564 774 589 774 C614 774 638 790 638 821 C638 852 614 868 589 868 C564 868 540 852 540 821 L540 821 Z M669 209 L536 690 L454 690 L322 210 L282 51 C270 95 248 167 234 210 L82 690 L19 690 L242 0 L321 0 L453 479 C465 525 482 598 492 638 C503 598 522 526 535 480 L670 0 L746 0 L960 690 L899 690 L755 209 C741 165 722 96 710 53 C699 96 682 164 669 209 L669 209 Z " />
<glyph glyph-name="wdieresis" unicode="&#x1e85;" horiz-adv-x="789" d="M252 658 C252 627 276 611 302 611 C327 611 351 627 351 658 C351 689 327 705 302 705 C276 705 252 689 252 658 L252 658 Z M441 658 C441 627 465 611 491 611 C516 611 540 627 540 658 C540 689 516 705 491 705 C465 705 441 689 441 658 L441 658 Z M523 196 L424 500 L365 500 L267 198 C253 156 236 98 225 58 C214 98 196 156 183 196 L80 500 L18 500 L193 0 L258 0 L366 330 C376 361 388 405 396 433 C402 405 414 361 424 330 L531 0 L596 0 L771 500 L712 500 L609 198 C593 154 576 96 565 58 C554 97 537 154 523 196 L523 196 Z " />
<glyph glyph-name="uni1E9E" unicode="&#x1e9e;" horiz-adv-x="769" d="M497 431 L644 664 L644 690 L336 690 C173 690 92 642 92 453 L92 0 L153 0 L153 456 C153 595 211 635 340 635 L555 635 L415 412 L422 388 C571 371 663 306 663 197 C663 99 596 46 499 46 C394 46 343 111 343 189 L285 189 C285 79 354 -10 498 -10 C648 -10 725 80 725 195 C725 349 598 409 497 431 L497 431 Z " />
<glyph glyph-name="uni1EBC" unicode="&#x1ebc;" horiz-adv-x="641" d="M286 819 C322 819 348 768 417 768 C473 768 505 806 505 877 L452 877 C452 842 439 827 408 827 C371 827 344 878 277 878 C221 878 189 840 189 768 L242 768 C242 804 255 819 286 819 L286 819 Z M158 55 L158 333 L535 333 L535 388 L158 388 L158 635 L587 635 L587 690 L100 690 L100 0 L590 0 L590 55 L158 55 Z " />
<glyph glyph-name="uni1EBD" unicode="&#x1ebd;" horiz-adv-x="554" d="M220 632 C255 632 283 569 352 569 C409 569 441 607 441 679 L387 679 C387 640 375 625 343 625 C308 625 279 689 211 689 C155 689 122 650 122 578 L176 578 C176 616 189 632 220 632 L220 632 Z M505 243 C505 416 413 510 285 510 C155 510 50 411 50 250 C50 82 155 -10 278 -10 C391 -10 482 48 499 161 L439 161 C421 80 355 48 278 48 C198 48 121 107 111 232 L505 232 L505 243 Z M283 452 C369 452 431 400 440 290 L112 290 C121 399 201 452 283 452 L283 452 Z " />
<glyph glyph-name="Ygrave" unicode="&#x1ef2;" horiz-adv-x="644" d="M347 754 L347 763 L222 889 L147 889 L147 880 L300 754 L347 754 Z M623 690 L555 690 L426 510 C386 452 341 388 321 358 C302 388 259 452 220 507 L92 690 L20 690 L293 312 L293 0 L351 0 L351 312 L623 690 Z " />
<glyph glyph-name="ygrave" unicode="&#x1ef3;" horiz-adv-x="509" d="M276 575 L276 584 L151 730 L76 730 L76 721 L229 575 L276 575 Z M433 500 L316 210 C294 157 269 91 256 56 C242 91 217 156 197 207 L80 500 L17 500 L226 5 L172 -111 C151 -156 129 -172 83 -172 C67 -172 51 -169 39 -167 L39 -219 C50 -222 68 -224 82 -224 C169 -224 188 -197 223 -126 L282 0 L492 500 L433 500 Z " />
<glyph glyph-name="uni1EF8" unicode="&#x1ef8;" horiz-adv-x="644" d="M260 819 C296 819 322 768 391 768 C447 768 479 806 479 877 L425 877 C425 842 413 827 382 827 C345 827 318 878 251 878 C194 878 162 840 162 768 L216 768 C216 804 229 819 260 819 L260 819 Z M623 690 L555 690 L426 510 C386 452 341 388 321 358 C302 388 259 452 220 507 L92 690 L20 690 L293 312 L293 0 L351 0 L351 312 L623 690 Z " />
<glyph glyph-name="uni1EF9" unicode="&#x1ef9;" horiz-adv-x="509" d="M193 632 C228 632 256 569 325 569 C381 569 414 607 414 679 L360 679 C360 640 347 625 316 625 C281 625 252 689 184 689 C128 689 95 650 95 578 L149 578 C149 616 162 632 193 632 L193 632 Z M433 500 L316 210 C294 157 269 91 256 56 C242 91 217 156 197 207 L80 500 L17 500 L226 5 L172 -111 C151 -156 129 -172 83 -172 C67 -172 51 -169 39 -167 L39 -219 C50 -222 68 -224 82 -224 C169 -224 188 -197 223 -126 L282 0 L492 500 L433 500 Z " />
<glyph glyph-name="endash" unicode="&#x2013;" horiz-adv-x="586" d="M70 308 L70 254 L516 254 L516 308 L70 308 Z " />
<glyph glyph-name="emdash" unicode="&#x2014;" horiz-adv-x="893" d="M70 308 L70 254 L823 254 L823 308 L70 308 Z " />
<glyph glyph-name="quoteleft" unicode="&#x2018;" horiz-adv-x="203" d="M51 567 C51 539 72 525 97 525 C121 525 142 539 142 567 C142 585 135 600 119 607 L142 701 L142 710 L111 710 L60 598 C55 588 51 578 51 567 L51 567 Z " />
<glyph glyph-name="quoteright" unicode="&#x2019;" horiz-adv-x="202" d="M158 641 C158 669 137 683 112 683 C88 683 67 669 67 641 C67 623 74 608 90 601 L67 507 L67 498 L98 498 L149 610 C154 620 158 630 158 641 L158 641 Z " />
<glyph glyph-name="quotesinglbase" unicode="&#x201a;" horiz-adv-x="220" d="M156 33 C156 61 135 75 110 75 C85 75 64 61 64 33 C64 15 72 0 88 -7 L64 -101 L64 -110 L95 -110 L147 2 C151 12 156 22 156 33 L156 33 Z " />
<glyph glyph-name="quotedblleft" unicode="&#x201c;" horiz-adv-x="351" d="M53 542 C53 514 74 500 99 500 C124 500 145 514 145 542 C145 560 137 575 121 582 L145 676 L145 685 L114 685 L62 573 C58 563 53 553 53 542 L53 542 Z M198 542 C198 514 219 500 244 500 C268 500 289 514 289 542 C289 560 282 575 266 582 L289 676 L289 685 L258 685 L207 573 C202 563 198 553 198 542 L198 542 Z " />
<glyph glyph-name="quotedblright" unicode="&#x201d;" horiz-adv-x="347" d="M158 641 C158 669 137 683 112 683 C88 683 67 669 67 641 C67 623 74 608 90 601 L67 507 L67 498 L98 498 L149 610 C154 620 158 630 158 641 L158 641 Z M303 641 C303 669 282 683 257 683 C232 683 211 669 211 641 C211 623 219 608 235 601 L211 507 L211 498 L242 498 L294 610 C298 620 303 630 303 641 L303 641 Z " />
<glyph glyph-name="quotedblbase" unicode="&#x201e;" horiz-adv-x="367" d="M156 33 C156 61 135 75 110 75 C85 75 64 61 64 33 C64 15 72 0 88 -7 L64 -101 L64 -110 L95 -110 L147 2 C151 12 156 22 156 33 L156 33 Z M301 33 C301 61 280 75 256 75 C231 75 210 61 210 33 C210 15 218 0 233 -7 L210 -101 L210 -110 L241 -110 L293 2 C297 12 301 22 301 33 L301 33 Z " />
<glyph glyph-name="dagger" unicode="&#x2020;" horiz-adv-x="472" d="M440 500 L264 500 L264 690 L208 690 L208 500 L32 500 L32 446 L208 446 L208 0 L264 0 L264 446 L440 446 L440 500 Z " />
<glyph glyph-name="daggerdbl" unicode="&#x2021;" horiz-adv-x="490" d="M449 446 L449 500 L273 500 L273 690 L217 690 L217 500 L41 500 L41 446 L217 446 L217 188 L41 188 L41 134 L217 134 L217 -80 L273 -80 L273 134 L449 134 L449 188 L273 188 L273 446 L449 446 Z " />
<glyph glyph-name="bullet" unicode="&#x2022;" horiz-adv-x="333" d="M98 297 C98 255 129 233 166 233 C203 233 235 255 235 297 C235 339 203 361 166 361 C129 361 98 339 98 297 L98 297 Z " />
<glyph glyph-name="ellipsis" unicode="&#x2026;" horiz-adv-x="510" d="M62 33 C62 5 83 -10 108 -10 C133 -10 154 5 154 33 C154 61 133 75 108 75 C83 75 62 61 62 33 L62 33 Z M209 33 C209 5 230 -10 255 -10 C280 -10 301 5 301 33 C301 61 280 75 255 75 C230 75 209 61 209 33 L209 33 Z M356 33 C356 5 377 -10 402 -10 C427 -10 448 5 448 33 C448 61 427 75 402 75 C377 75 356 61 356 33 L356 33 Z " />
<glyph glyph-name="perthousand" unicode="&#x2030;" horiz-adv-x="1350" d="M232 -10 L291 -10 L704 700 L645 700 L232 -10 Z M373 485 C373 619 307 696 207 696 C105 696 35 619 35 483 C35 344 101 270 201 270 C303 270 373 350 373 485 L373 485 Z M315 482 C315 374 272 321 204 321 C137 321 94 374 94 484 C94 593 137 645 204 645 C272 645 315 591 315 482 L315 482 Z M906 209 C906 343 840 420 739 420 C638 420 568 343 568 207 C568 68 634 -6 733 -6 C836 -6 906 74 906 209 L906 209 Z M1314 209 C1314 343 1248 420 1147 420 C1046 420 976 343 976 207 C976 68 1042 -6 1142 -6 C1244 -6 1314 74 1314 209 L1314 209 Z M847 206 C847 98 804 45 737 45 C669 45 626 98 626 208 C626 317 669 369 737 369 C804 369 847 315 847 206 L847 206 Z M1256 206 C1256 98 1213 45 1145 45 C1077 45 1035 98 1035 208 C1035 317 1077 369 1145 369 C1213 369 1256 315 1256 206 L1256 206 Z " />
<glyph glyph-name="guilsinglleft" unicode="&#x2039;" horiz-adv-x="297" d="M245 449 L177 449 L49 274 L49 230 L177 54 L245 55 L104 254 L245 449 Z " />
<glyph glyph-name="guilsinglright" unicode="&#x203a;" horiz-adv-x="297" d="M120 449 L52 449 L193 254 L52 55 L120 54 L248 230 L248 274 L120 449 Z " />
<glyph glyph-name="fraction" unicode="&#x2044;" horiz-adv-x="140" d="M-165 -10 L-106 -10 L306 700 L247 700 L-165 -10 Z " />
<glyph glyph-name="Euro" unicode="&#x20ac;" horiz-adv-x="611" d="M552 74 C518 59 461 45 403 45 C303 45 210 113 178 245 L489 245 L499 303 L169 303 C168 317 167 331 167 346 C167 361 168 376 169 390 L489 390 L499 448 L178 448 C209 580 299 645 401 645 C457 645 517 632 546 616 L568 664 C530 687 467 700 406 700 C270 700 153 610 118 448 L46 448 L36 390 L110 390 C109 375 108 360 108 345 C108 331 109 317 110 303 L46 303 L36 245 L117 245 C150 78 266 -10 399 -10 C463 -10 533 5 571 26 L552 74 Z " />
<glyph glyph-name="trademark" unicode="&#x2122;" horiz-adv-x="977" d="M399 690 L32 690 L32 642 L189 642 L189 276 L242 276 L242 642 L399 642 L399 690 Z M818 690 L699 398 C690 375 680 344 674 324 C668 343 658 374 648 397 L528 690 L453 690 L453 276 L505 276 L506 496 C506 542 502 605 500 642 C511 607 531 549 548 508 L644 276 L697 276 L795 506 C809 543 829 598 841 633 C838 597 835 539 835 495 L836 276 L889 276 L889 690 L818 690 Z " />
<glyph glyph-name="oneeighth" unicode="&#x215b;" horiz-adv-x="826" d="M535 700 L122 -10 L181 -10 L594 700 L535 700 Z M135 276 L190 276 L190 690 L151 690 C110 655 73 630 33 615 L33 564 C70 577 104 595 135 617 L135 276 Z M700 217 C741 235 770 270 770 316 C770 373 719 420 630 420 C539 420 489 373 489 315 C489 269 518 231 559 214 C504 199 473 158 473 110 C473 40 538 -6 629 -6 C721 -6 786 40 786 111 C786 162 753 203 700 217 L700 217 Z M546 306 C546 343 573 373 629 373 C685 373 713 343 713 306 C713 264 679 238 629 238 C578 238 546 264 546 306 L546 306 Z M629 42 C568 42 532 69 532 115 C532 165 574 189 630 189 C685 189 727 165 727 115 C727 69 690 42 629 42 L629 42 Z " />
<glyph glyph-name="threeeighths" unicode="&#x215c;" horiz-adv-x="938" d="M648 700 L236 -10 L295 -10 L707 700 L648 700 Z M339 391 C339 440 313 477 267 490 C302 507 323 544 323 582 C323 644 273 696 191 696 C103 696 45 643 45 558 L100 558 C100 614 131 645 188 645 C241 645 267 616 267 574 C267 535 235 510 198 510 L129 510 L129 461 L199 461 C242 461 280 439 280 392 C280 349 245 320 187 320 C127 320 93 353 93 408 L37 408 C37 324 93 270 187 270 C279 270 339 319 339 391 L339 391 Z M815 217 C856 235 886 270 886 316 C886 373 835 420 746 420 C655 420 604 373 604 315 C604 269 634 231 675 214 C620 199 589 158 589 110 C589 40 654 -6 744 -6 C837 -6 901 40 901 111 C901 162 869 203 815 217 L815 217 Z M662 306 C662 343 689 373 744 373 C801 373 828 343 828 306 C828 264 795 238 744 238 C694 238 662 264 662 306 L662 306 Z M744 42 C684 42 648 69 648 115 C648 165 690 189 746 189 C801 189 842 165 842 115 C842 69 806 42 744 42 L744 42 Z " />
<glyph glyph-name="fiveeighths" unicode="&#x215d;" horiz-adv-x="935" d="M631 700 L218 -10 L277 -10 L690 700 L631 700 Z M327 409 C327 498 266 547 197 547 C164 547 127 538 102 511 L111 641 L303 641 L303 690 L61 690 L44 445 L96 445 C107 477 144 496 187 496 C236 496 268 463 268 410 C268 351 228 321 180 321 C133 321 99 344 98 390 L42 390 C42 314 98 270 182 270 C261 270 327 320 327 409 L327 409 Z M814 217 C855 235 884 270 884 316 C884 373 833 420 744 420 C653 420 603 373 603 315 C603 269 632 231 673 214 C618 199 587 158 587 110 C587 40 652 -6 743 -6 C835 -6 900 40 900 111 C900 162 867 203 814 217 L814 217 Z M660 306 C660 343 687 373 743 373 C799 373 827 343 827 306 C827 264 793 238 743 238 C692 238 660 264 660 306 L660 306 Z M743 42 C682 42 646 69 646 115 C646 165 688 189 744 189 C799 189 841 165 841 115 C841 69 804 42 743 42 L743 42 Z " />
<glyph glyph-name="seveneighths" unicode="&#x215e;" horiz-adv-x="852" d="M123 -10 L182 -10 L595 700 L536 700 L123 -10 Z M84 276 L145 276 L317 647 L317 690 L32 690 L32 640 L197 640 C218 640 240 641 256 641 C249 627 238 607 228 584 L84 276 Z M655 420 C745 420 795 373 795 316 C795 270 766 235 725 217 C778 203 811 162 811 111 C811 40 746 -6 654 -6 C563 -6 498 40 498 110 C498 158 530 199 584 214 C543 231 514 269 514 315 C514 373 564 420 655 420 L655 420 Z M654 238 C704 238 738 264 738 306 C738 343 710 373 654 373 C599 373 571 343 571 306 C571 264 604 238 654 238 L654 238 Z M654 42 C715 42 752 69 752 115 C752 165 711 189 655 189 C600 189 557 165 557 115 C557 69 594 42 654 42 L654 42 Z " />
<glyph glyph-name="arrowleft" unicode="&#x2190;" horiz-adv-x="738" d="M697 372 L128 372 L387 629 L350 666 L29 345 L350 24 L387 61 L128 318 L697 318 L697 372 Z " />
<glyph glyph-name="arrowup" unicode="&#x2191;" horiz-adv-x="701" d="M672 368 L350 690 L29 368 L66 331 L324 591 L324 22 L377 22 L377 591 L635 331 L672 368 Z " />
<glyph glyph-name="arrowright" unicode="&#x2192;" horiz-adv-x="738" d="M387 666 L350 629 L609 372 L41 372 L41 318 L609 318 L350 61 L387 24 L709 345 L387 666 Z " />
<glyph glyph-name="arrowdown" unicode="&#x2193;" horiz-adv-x="698" d="M633 369 L375 110 L375 679 L322 679 L322 110 L64 369 L27 332 L349 11 L670 332 L633 369 Z " />
<glyph glyph-name="arrowboth" unicode="&#x2194;" horiz-adv-x="1094" d="M1065 345 L743 666 L706 629 L966 372 L127 372 L387 629 L350 666 L29 345 L350 24 L387 61 L127 318 L966 318 L706 61 L743 24 L1065 345 Z " />
<glyph glyph-name="arrowupdn" unicode="&#x2195;" horiz-adv-x="706" d="M353 -243 L674 79 L637 116 L380 -144 L380 695 L637 435 L674 472 L353 794 L32 472 L69 435 L326 695 L326 -144 L69 116 L32 79 L353 -243 Z " />
<glyph glyph-name="uni2196" unicode="&#x2196;" horiz-adv-x="636" d="M590 128 L188 530 L553 529 L553 581 L99 581 L99 127 L151 127 L150 492 L553 90 L590 128 Z " />
<glyph glyph-name="uni2197" unicode="&#x2197;" horiz-adv-x="636" d="M83 581 L83 529 L448 530 L46 128 L84 90 L486 492 L485 127 L537 127 L537 581 L83 581 Z " />
<glyph glyph-name="uni2198" unicode="&#x2198;" horiz-adv-x="635" d="M485 563 L486 197 L83 600 L46 562 L448 160 L82 161 L82 109 L537 109 L537 563 L485 563 Z " />
<glyph glyph-name="uni2199" unicode="&#x2199;" horiz-adv-x="635" d="M589 562 L551 600 L149 198 L150 563 L98 563 L98 109 L552 109 L552 161 L187 160 L589 562 Z " />
<glyph glyph-name="minus" unicode="&#x2212;" horiz-adv-x="502" d="M73 314 L73 260 L429 260 L429 314 L73 314 Z " />
<glyph glyph-name="approxequal" unicode="&#x2248;" horiz-adv-x="575" d="M77 309 L133 309 C133 354 154 380 201 380 C260 380 294 306 376 306 C442 306 502 352 502 434 L446 434 C446 385 413 363 379 363 C320 363 285 437 204 437 C127 437 77 391 77 309 L77 309 Z M77 147 L133 147 C133 193 154 219 201 219 C260 219 294 145 376 145 C442 145 502 191 502 273 L446 273 C446 223 413 201 379 201 C320 201 285 275 204 275 C127 275 77 229 77 147 L77 147 Z " />
<glyph glyph-name="notequal" unicode="&#x2260;" horiz-adv-x="551" d="M477 363 L477 417 L372 417 L437 557 L378 557 L313 417 L74 417 L74 363 L288 363 L211 198 L74 198 L74 143 L185 143 L119 1 L177 1 L243 143 L477 143 L477 198 L269 198 L346 363 L477 363 Z " />
<glyph glyph-name="uniF8FF" unicode="&#xf8ff;" horiz-adv-x="1137" d="M249 573 C249 559 240 551 227 551 L119 551 L119 697 C119 711 128 722 144 722 C159 722 169 711 169 697 L169 595 L227 595 C240 595 249 586 249 573 L249 573 Z M265 636 C265 685 305 722 358 722 C411 722 450 687 450 636 C450 585 411 548 358 548 C305 548 265 586 265 636 L265 636 Z M566 600 C566 624 484 606 484 668 C484 700 508 722 554 722 C584 722 614 712 614 688 C614 677 606 669 594 669 C579 669 568 680 549 680 C537 680 533 676 533 670 C533 650 615 667 615 602 C615 569 587 548 544 548 C504 548 478 561 478 583 C478 595 486 603 500 603 C516 603 522 591 546 591 C560 591 566 594 566 600 L566 600 Z M398 636 C398 660 382 677 358 677 C333 677 316 660 316 636 C316 613 333 594 358 594 C382 594 398 611 398 636 L398 636 Z M454 285 L373 370 L373 307 C373 293 362 281 347 281 C332 281 322 293 322 307 L322 453 L354 453 L435 368 L435 431 C435 445 445 456 460 456 C475 456 486 445 486 431 L486 285 L454 285 Z M987 334 C987 357 905 339 905 402 C905 435 929 456 976 456 C1007 456 1036 445 1036 421 C1036 410 1028 402 1016 402 C1001 402 989 413 971 413 C959 413 955 409 955 404 C955 383 1037 400 1037 335 C1037 302 1009 281 965 281 C927 281 900 294 900 316 C900 328 907 337 922 337 C937 337 943 324 967 324 C981 324 987 327 987 334 L987 334 Z M261 281 C249 281 240 286 236 296 L231 309 L161 309 L156 296 C152 286 143 281 131 281 C113 281 101 298 110 317 L176 453 L216 453 L281 317 C289 298 279 281 261 281 L261 281 Z M700 369 C700 318 664 285 609 285 L534 285 L534 453 L609 453 C664 453 700 420 700 369 L700 369 Z M861 369 C861 357 853 349 839 349 L791 349 L791 326 L849 326 C862 326 870 318 870 305 C870 293 862 285 849 285 L740 285 L740 453 L849 453 C862 453 870 444 870 432 C870 420 862 410 849 410 L791 410 L791 390 L839 390 C853 390 861 380 861 369 L861 369 Z M649 368 C649 392 634 408 608 408 L585 408 L585 328 L608 328 C634 328 649 345 649 368 L649 368 Z M217 343 L196 394 L175 343 L217 343 Z M158 22 L158 126 L122 126 C108 126 100 137 100 148 C100 160 108 170 122 170 L244 170 C258 170 268 161 268 148 C268 136 258 126 244 126 L209 126 L209 22 C209 7 197 -3 183 -3 C169 -3 158 7 158 22 L158 22 Z M455 169 L392 69 L392 22 C392 7 381 -3 367 -3 C353 -3 341 7 341 22 L341 69 L279 169 L337 169 L368 110 L398 169 L455 169 Z M555 42 L532 42 L532 22 C532 7 522 -3 508 -3 C493 -3 481 7 481 22 L481 169 L555 169 C599 169 624 141 624 106 C624 70 599 42 555 42 L555 42 Z M780 85 C780 73 772 65 758 65 L710 65 L710 43 L768 43 C782 43 790 34 790 21 C790 9 782 0 768 0 L659 0 L659 169 L768 169 C782 169 790 160 790 148 C790 136 782 126 768 126 L710 126 L710 106 L758 106 C772 106 780 96 780 85 L780 85 Z M551 84 C568 84 576 92 576 106 C576 118 568 128 551 128 L532 128 L532 84 L551 84 Z " />
<glyph glyph-name="fi" unicode="&#xfb01;" horiz-adv-x="572" d="M483 500 L168 500 L168 613 C168 675 193 706 255 706 C279 706 304 704 325 700 L325 754 C305 758 276 760 257 760 C156 760 112 707 112 624 L112 500 L27 500 L27 446 L112 446 L112 0 L168 0 L168 446 L427 446 L427 0 L483 0 L483 500 Z M455 701 C432 701 411 686 411 658 C411 630 432 615 455 615 C478 615 499 630 499 658 C499 686 478 701 455 701 L455 701 Z " />
<glyph glyph-name="fl" unicode="&#xfb02;" horiz-adv-x="558" d="M112 624 L112 500 L27 500 L27 446 L112 446 L112 0 L168 0 L168 446 L318 446 L318 500 L168 500 L168 613 C168 675 193 706 255 706 C279 706 304 704 325 700 L325 754 C305 758 276 760 257 760 C156 760 112 707 112 624 L112 624 Z M413 750 L413 0 L469 0 L469 750 L413 750 Z " />
</font>
</svg>
